<?xml version="1.0" encoding="UTF-8" standalone="no"?>
<svg style="opacity:.2"
   viewBox="0.00 -1.42 128.13 128.13"
   version="1.1"
   id="svg4"
   width="128.13"
   height="128.13"
   xmlns="http://www.w3.org/2000/svg"
   xmlns:svg="http://www.w3.org/2000/svg">
  <defs
     id="defs4" />
  <g
     fill="#9c5542"
     id="g4"
     transform="translate(-61.853847,-1009.2056)">
    <path
       d="m 183.64,1072.05 c 0.23,-0.3 0.46,-0.61 0.66,-0.92 0.22,-0.26 0.43,-0.54 0.62,-0.83 4.38,-5.62 5.99,-13.07 4.56,-20.97 l -1.14,-6.3 -2.93,-13.83 c -0.25,-1.2 -0.02,-2.71 0.18,-4.04 0.34,-2.23 0.92,-5.96 -1.87,-9.21 -2.02,-2.36 -5.25,-3.47 -8.35,-2.91 h -4.47 c -2.82,0 -5.75,-0.34 -9.23,-1.09 l -10.17,-2.2 -12.12,-0.19 c -2.54,0 -4.43,0.78 -5.33,1.15 l -0.14,0.06 c -2.91,1.04 -5.56,2.53 -7.9,4.43 -0.11,-0.08 -0.22,-0.15 -0.31,-0.22 l -0.09,-0.06 c -0.13,-0.09 -0.26,-0.18 -0.36,-0.26 l -0.25,-0.2 c -1.19,-0.98 -3.18,-2.6 -5.93,-3.14 -2.33,-0.97 -4.52,-1.51 -6.67,-1.64 -3.27,-0.61 -6.71,-0.63 -10.01,-0.07 -4.3,0.1 -8.23,1.09 -11.53,2.07 l -1.13,0.04 -3.28,0.92 c -1.56,0.46 -3.54,0.5 -5.59,0.5 H 78.8 c 0,0 -0.62,0 -0.62,0 -1.85,-0.34 -4.12,-0.11 -5.69,0.11 l -9.74,1.36 2.93,9.39 c 0.45,1.44 0.59,3.02 0.46,5.4 -0.47,1.33 -0.57,2.49 -0.61,3.06 l -3,15.37 c -0.63,3.23 -1.28,8.11 0.35,13.15 l 1.36,4.23 c 0.94,2.91 2.48,4.95 3.95,6.63 -0.38,0.46 -0.74,0.93 -1.09,1.41 -1.7,2.34 -4.01,5.99 -4.52,10.71 l -0.56,1.84 -0.05,8.1 0.57,3.37 0.7,3.74 1.65,7.69 c 0.13,0.69 0.31,1.34 0.55,1.95 v 0.38 c 0,1.08 0.19,2.14 0.56,3.17 l -0.24,9.5 0.86,1.8 c 1.62,3.4 5,5.51 8.82,5.51 1.84,0 3.39,-0.49 4.29,-0.8 0.85,0 2.34,0.29 3.55,0.53 l 17.65,3.45 12.31,0.05 5.45,-1.7 c 2.62,-0.82 5.09,-2.23 7.37,-4.22 2.45,2.04 5.02,3.47 8.03,4.47 0.16,0.05 0.32,0.12 0.48,0.18 l 0.15,0.06 c 1.26,0.51 3.38,1.35 6.04,1.38 l 8.47,0.09 16.34,-3.42 5.59,-0.74 6.63,0.62 1.67,-0.55 c 3.43,-1.14 8.53,-5.25 6.09,-13.44 0.14,-3.68 1.09,-7.52 1.93,-10.93 0.87,-3.51 1.69,-6.82 1.67,-9.98 0.54,-1.84 0.53,-3.49 0.53,-4.49 l 0.02,-2.38 c 0.07,-7.01 -2.07,-13.04 -6.06,-17.16 z m 3.03,19.54 c 0,0.93 0,2.33 -0.46,3.82 l -0.07,0.23 v 0.25 c 0.06,2.83 -0.7,5.89 -1.58,9.46 -0.89,3.62 -1.91,7.71 -2.02,11.79 v 0.25 c 0,0 0.07,0.24 0.07,0.24 2.32,7.39 -3.01,9.58 -4.1,9.94 l -1.07,0.36 -6.34,-0.59 -5.98,0.79 -12.9,2.66 -3.3,0.72 -8.13,-0.08 c -2.1,-0.02 -3.75,-0.68 -4.96,-1.17 l -0.14,-0.06 c -0.22,-0.09 -0.44,-0.17 -0.65,-0.25 -2.88,-0.96 -5.31,-2.37 -7.66,-4.44 l -1.4,-1.24 -1,0.97 c -2.22,2.15 -4.64,3.65 -7.19,4.44 l -5.01,1.57 -11.42,-0.02 -17.52,-3.43 c -1.4,-0.28 -2.98,-0.59 -4.12,-0.59 -0.21,0 -0.35,0.01 -0.42,0.02 l -0.41,0.1 c -0.73,0.26 -1.96,0.69 -3.45,0.69 -2.65,0 -5,-1.46 -6.12,-3.8 l -0.55,-1.15 0.23,-9.38 -0.11,-0.28 c -0.31,-0.77 -0.46,-1.57 -0.46,-2.37 v -0.96 c 0,0 -0.12,-0.28 -0.12,-0.28 -0.21,-0.5 -0.37,-1.06 -0.49,-1.69 l -1.65,-7.69 -0.69,-3.67 -0.52,-3.09 0.05,-7.4 0.48,-1.56 0.06,-0.29 c 0.4,-4.07 2.46,-7.32 3.97,-9.4 0.56,-0.77 1.16,-1.5 1.78,-2.18 l 0.93,-1.01 -1.25,-1.36 c -1.42,-1.56 -3.01,-3.45 -3.88,-6.17 l -1.36,-4.23 c -1.41,-4.38 -0.82,-8.75 -0.26,-11.66 l 3.01,-15.47 0.02,-0.19 c 0.03,-0.46 0.09,-1.43 0.5,-2.51 l 0.08,-0.22 v -0.23 c 0.18,-2.89 0,-4.83 -0.57,-6.68 l -1.87,-6.01 6.24,-0.87 c 1.49,-0.21 3.37,-0.4 4.84,-0.11 l 0.15,0.03 h 0.9 c 0,0 2.06,0 2.06,0 2.29,0 4.51,-0.05 6.45,-0.63 l 2.72,-0.81 1.13,-0.04 0.38,-0.06 c 3.17,-0.95 6.96,-1.93 11.03,-2 l 0.23,-0.02 c 3.01,-0.53 6.16,-0.51 9.15,0.06 l 0.2,0.02 c 1.88,0.1 3.82,0.59 5.92,1.48 l 0.32,0.1 c 2.07,0.37 3.67,1.68 4.73,2.54 l 0.33,0.26 c 0.14,0.11 0.3,0.22 0.46,0.33 l 0.09,0.07 c 0.31,0.22 0.71,0.5 1.16,0.86 l 0.99,0.78 0.94,-0.84 c 2.27,-2.03 4.92,-3.59 7.91,-4.67 l 0.21,-0.08 c 0.84,-0.35 2.24,-0.92 4.17,-0.92 l 11.66,0.15 10.02,2.16 c 3.68,0.8 6.82,1.17 9.86,1.17 h 4.61 c 0,0 0.29,-0.03 0.29,-0.03 2.1,-0.42 4.28,0.3 5.65,1.89 1.89,2.2 1.48,4.86 1.18,6.81 -0.23,1.5 -0.52,3.38 -0.15,5.12 l 2.92,13.78 1.14,6.26 c 1.29,7.07 -0.14,13.69 -4,18.63 l -0.07,0.1 c -0.16,0.24 -0.32,0.46 -0.5,0.67 l -0.11,0.14 c -0.39,0.6 -0.85,1.18 -1.36,1.73 l -1.05,1.13 1.15,1.02 c 4,3.53 6.17,9.18 6.11,15.9 l -0.02,2.41 z"
       id="path1" />
    <path
       d="m 99.34,1099.15 h 54.26 c 0,0 0.17,-52.92 0.17,-52.92 l -54.26,0.18 z m 3.16,-49.75 48.26,-0.16 -0.15,46.91 h -48.26 z"
       id="path2" />
    <path
       d="m 172.84,1064.36 -0.09,-0.25 c -0.43,-1.26 -0.58,-2.36 -0.69,-3.17 l -0.06,-0.41 -3.93,-11.27 -2.62,-4.71 -6.67,-8.28 -4.22,-3.44 h -0.51 c -2.46,-0.07 -4.71,-1.08 -6.34,-2.86 l -0.4,-0.44 -0.6,-0.04 c -1.43,-0.1 -2.82,-0.58 -4.02,-1.4 l -0.25,-0.17 -0.3,-0.06 c -1.92,-0.37 -3.74,-1.22 -5.26,-2.47 l -0.53,-0.44 -0.68,0.12 c -1.27,0.22 -2.62,0.13 -3.87,-0.25 l -0.27,-0.08 -0.29,0.02 c -3.2,0.25 -9.94,0.51 -13.12,0.51 -1.5,0 -2.79,0 -4.09,-0.39 l -0.42,-0.13 -0.42,0.12 c -0.25,0.07 -0.49,0.13 -0.73,0.2 l -0.52,0.13 -0.32,0.43 c -1.65,2.24 -4.28,3.58 -7.03,3.58 -0.28,0 -0.56,-0.01 -0.84,-0.04 l -0.51,-0.05 -0.43,0.27 c -0.71,0.45 -1.36,0.78 -1.91,1.07 -0.29,0.15 -0.63,0.33 -0.81,0.45 l -2.05,1.42 -1.35,1.22 -7.82,8.12 -1.84,2.63 -2.12,3.73 -3.73,7.46 -0.03,0.28 c -0.17,1.85 -0.74,3.36 -1.15,4.48 l -0.74,1.82 v 3.55 c 0,0 0.54,10.24 0.54,10.24 l 0.41,2.75 2.44,8.84 0.22,0.25 c 1.58,1.85 2.74,3.93 3.34,6.02 l 0.12,0.42 0.33,0.29 c 0.69,0.61 1.36,1.33 1.98,2.15 l 4.26,5.64 3.46,3.28 3.5,2.59 0.45,0.03 c 2.36,0.16 4.52,1.32 5.93,3.18 l 0.16,0.21 0.22,0.14 c 0.39,0.25 0.78,0.54 1.16,0.84 l 0.26,0.21 0.32,0.08 c 0.26,0.07 0.53,0.14 0.79,0.22 l 3.22,0.96 9.1,2.25 h 0.19 c 3.99,-0.05 9.95,-0.26 15.73,-1.56 l 0.13,-0.03 c 1.06,-0.24 1.85,-0.43 2.32,-0.6 l 6.27,-2.6 1.59,-0.84 0.21,-0.38 c 0.41,-0.72 0.92,-1.39 1.5,-1.99 1.57,-1.6 3.59,-2.6 5.86,-2.88 l 0.39,-0.05 0.32,-0.24 c 2.74,-2.03 5.16,-4.46 7.2,-7.21 l 2.21,-2.98 3.12,-5.43 1.25,-2.55 0.81,-2.69 0.78,-2.99 1.62,-9.26 -0.12,-7.05 v -0.52 z m -4.43,16.12 -0.75,2.89 -0.67,2.28 -1.12,2.3 -2.96,5.16 -2.16,2.91 c -1.79,2.41 -3.9,4.55 -6.28,6.37 -2.78,0.43 -5.26,1.71 -7.22,3.7 -0.66,0.68 -1.25,1.42 -1.74,2.23 l -0.64,0.34 -6.15,2.55 c -0.14,0.05 -0.58,0.17 -1.91,0.47 l -0.1,0.02 c -5.41,1.22 -11.06,1.43 -14.91,1.48 l -8.66,-2.14 -3.15,-0.94 c -0.2,-0.06 -0.41,-0.12 -0.61,-0.17 -0.31,-0.24 -0.62,-0.47 -0.94,-0.68 -1.84,-2.3 -4.54,-3.77 -7.49,-4.1 l -2.2,-1.67 -0.47,-0.3 -3.08,-2.9 -4.18,-5.54 c -0.64,-0.85 -1.34,-1.63 -2.06,-2.3 -0.72,-2.26 -1.95,-4.48 -3.6,-6.46 l -2.2,-7.94 -0.37,-2.44 -0.54,-10.09 v -2.86 c 0,0 0.57,-1.4 0.57,-1.4 0.42,-1.14 1.05,-2.84 1.29,-4.95 l 3.45,-6.89 1.98,-3.49 1.58,-2.29 7.67,-7.96 1.05,-0.96 1.91,-1.32 c 0.1,-0.06 0.35,-0.19 0.62,-0.33 0.4,-0.21 0.98,-0.51 1.62,-0.89 3.68,0.2 7.33,-1.43 9.69,-4.3 1.54,0.38 3.02,0.38 4.46,0.38 3.14,0 9.71,-0.25 13.07,-0.49 1.4,0.39 2.87,0.52 4.31,0.36 1.71,1.28 3.69,2.18 5.77,2.62 1.41,0.9 3,1.47 4.64,1.68 2.02,2 4.67,3.19 7.55,3.37 l 3.09,2.49 6.35,7.84 2.38,4.25 3.77,10.75 0.03,0.21 c 0.11,0.83 0.27,2.06 0.74,3.5 v 0.07 c 0,0 0.12,6.79 0.12,6.79 l -1.54,8.79 z"
       id="path3" />
    <path
       d="m 140.95,1056.72 -1.28,-0.77 -7.67,-0.22 -0.22,-0.02 c -0.71,-0.06 -1.82,-0.09 -2.71,0.07 h -22.76 c 0,0 1.03,6.56 1.03,6.56 0.31,1.95 1.17,3.32 1.62,4.05 l 4.22,6.83 c 0.38,0.61 0.97,1.51 1.8,2.4 0.56,1.16 1.21,2.16 1.8,3.07 0.39,0.6 0.8,1.23 1.04,1.72 l 0.58,1.17 c 0.25,0.51 0.55,0.98 0.88,1.4 0.5,1.19 1.2,2.21 2.1,3.04 1.14,1.07 2.62,1.66 4.16,1.66 v 0 c 2.06,0 3.95,-1.03 5.1,-2.78 0.74,-0.82 1.24,-1.66 1.61,-2.28 l 5.35,-8.77 3.94,-6.57 0.19,-0.34 c 1,-1.01 1.72,-2.37 1.99,-3.75 0.51,-2.61 -0.58,-5.15 -2.78,-6.48 z m -0.17,5.89 c -0.17,0.86 -0.65,1.73 -1.29,2.33 l -0.17,0.16 -9.64,15.98 c -0.36,0.59 -0.76,1.26 -1.34,1.9 l -0.17,0.22 c -0.58,0.92 -1.59,1.49 -2.64,1.49 -0.78,0 -1.53,-0.3 -2.11,-0.85 -0.62,-0.58 -1.1,-1.3 -1.44,-2.16 l -0.09,-0.23 -0.16,-0.19 c -0.24,-0.29 -0.46,-0.63 -0.64,-1 l -0.58,-1.17 c -0.32,-0.65 -0.78,-1.35 -1.23,-2.05 -0.59,-0.91 -1.2,-1.84 -1.69,-2.9 l -0.11,-0.23 -0.18,-0.18 c -0.72,-0.74 -1.25,-1.54 -1.58,-2.07 l -4.22,-6.84 c -0.4,-0.63 -0.99,-1.59 -1.21,-2.93 l -0.49,-3.1 h 19.39 c 0,0 0.3,-0.03 0.3,-0.03 0.64,-0.13 1.4,-0.1 2.11,-0.05 0.1,0 0.19,0.01 0.28,0.02 l 6.89,0.2 0.6,0.37 c 1.11,0.67 1.65,1.98 1.39,3.33 z"
       id="path4" />
  </g>
</svg>
