<?xml version="1.0" encoding="UTF-8" standalone="no"?>
<svg style="opacity:.2"
   viewBox="-7.92 0.00 159.62 159.62"
   version="1.1"
   id="svg3"
   width="159.62"
   height="159.62"
   xmlns="http://www.w3.org/2000/svg"
   xmlns:svg="http://www.w3.org/2000/svg"><defs><filter id="thin" x="-20%" y="-20%" width="140%" height="140%"><feMorphology operator="erode" radius="0.9"/></filter></defs>
  <defs
     id="defs3" />
  <g filter="url(#thin)"
     fill="#ba7a3f"
     id="g3"
     transform="translate(-52.23,-828.27)">
    <path
       d="m 193.23,937.01 c -0.44,-3.72 -0.08,-8.1 0.31,-11.95 l 0.09,-0.89 -0.79,-6.95 c -0.21,-1.87 -0.89,-3.62 -2.02,-5.18 l -0.34,-0.95 c -0.42,-1.15 -1,-2.21 -1.74,-3.16 0.07,-0.09 0.13,-0.19 0.2,-0.29 l 1.36,-2.02 c 3.2,-4.76 3.02,-10.4 2.82,-16.4 -0.12,-3.65 -0.24,-7.41 0.52,-10.26 1.81,-2.34 2.61,-5.11 2.31,-8.03 l -0.64,-6.27 -12.9,-2.28 c -0.23,-0.1 -0.77,-0.36 -1.01,-0.48 -0.72,-0.36 -1.59,-0.79 -2.6,-1.17 -1.22,-1.16 -2.69,-2.02 -4.3,-2.5 -1.69,-1.57 -3.85,-2.64 -6.3,-3.09 -1.35,-0.87 -2.94,-1.39 -4.73,-1.55 -2.32,-0.21 -4.21,-0.25 -5.99,-0.13 -0.92,-1.91 -2.29,-3.64 -3.95,-4.94 -0.26,-0.21 -0.54,-0.41 -0.83,-0.59 -0.35,-0.38 -0.74,-0.75 -1.15,-1.1 -1.25,-1.89 -3,-3.31 -5.08,-4.13 -0.31,-0.23 -0.64,-0.45 -0.98,-0.65 l -3.33,-1.99 -3.23,-1.81 -1.96,-1.2 c -0.47,-0.29 -0.81,-0.52 -1.04,-0.68 -0.34,-0.94 -1,-2.5 -2.27,-3.9 -2.38,-3.54 -5.7,-4.12 -7.48,-4.15 l -2.92,-0.05 -2.31,1.78 c -1.67,1.29 -2.95,2.82 -3.8,4.56 -0.52,0.46 -0.98,0.94 -1.39,1.45 l -0.09,0.1 c -0.12,0.12 -0.25,0.27 -0.39,0.43 -1.06,0.58 -2.01,1.28 -2.83,2.09 -0.93,0.38 -1.63,0.83 -2.09,1.14 -1.08,0.6 -2.04,1.26 -2.87,1.97 -3.21,0.64 -5.17,2.8 -5.93,3.65 l -0.09,0.07 c -0.6,0.49 -1.81,1.47 -2.83,3.02 -1.58,1.14 -2.87,2.7 -3.76,4.59 -4.23,-0.47 -8.66,0.42 -12.49,2.51 l -3.52,1.42 -4.45,2.88 -6.25,2.85 c -0.15,0.07 -0.29,0.14 -0.43,0.21 l -3.33,0.35 c -2.8,0.29 -5.22,1.85 -6.65,4.26 -2.42,4.11 -0.65,8.27 0.02,9.84 l 0.85,2 c 0.09,0.88 0.27,1.69 0.54,2.47 l -0.12,10 c -0.04,3.07 0.27,6.02 0.96,9.3 0.52,2.46 1.85,4.59 3.87,6.18 0.02,0.03 0.04,0.06 0.06,0.09 -1.43,1.83 -2.6,3.95 -3.5,6.33 -1.71,4.57 -1.52,9.26 -1.34,13.8 0.13,3.16 0.26,6.43 -0.33,9.35 l -6.54,13.44 10.48,2.19 c 2.17,0.45 4.5,0.89 6.96,1.06 1.77,1.15 3.33,1.93 4.85,2.43 0.29,0.26 0.59,0.51 0.92,0.74 0.89,0.65 1.83,1.15 2.81,1.5 1.36,1.12 2.74,1.75 3.41,2.07 l 0.34,0.16 c 2.17,1.04 4.42,1.69 7.08,2.05 2.22,0.3 4.16,0.38 6.01,0.24 0.06,0.09 0.11,0.19 0.17,0.28 0.53,1.91 1.7,3.58 3.32,4.75 l 2.8,2.75 c 2.54,2.5 5.34,3.85 7.81,5.05 1.09,0.53 2.12,1.03 2.88,1.54 l 2.44,1.61 c 0.76,0.86 1.55,1.49 2.04,1.87 l 1.07,1.62 c 0.95,2.23 2.48,3.84 4.55,4.78 1.18,0.53 2.43,0.8 3.73,0.8 3.24,0 6.28,-1.7 8.34,-4.65 l 2.91,-4.17 c 1.1,-0.52 1.94,-1.11 2.56,-1.56 l 7.41,-4.27 c 1.94,-1.11 5.51,-3.16 7.53,-6.89 1.07,-1.04 1.94,-2.19 2.61,-3.49 1.47,0.13 2.97,0.1 4.58,-0.08 1.68,0.14 3.35,-0.19 5.03,-0.99 4,-0.91 7.22,-3.23 8.31,-4.09 v 0 c 0.81,-0.4 2.11,-1.05 3.38,-2.24 1.4,-0.38 2.48,-0.96 3.19,-1.36 1.24,-0.26 7.19,-1.52 7.19,-1.52 4.49,-0.95 7.39,-5.01 6.91,-9.67 -0.22,-2.11 -1.16,-4.24 -2.6,-5.91 z m -4.93,12.65 c -6.4,1.35 -7.51,1.58 -7.85,1.74 v 0 c -0.67,0.38 -1.67,0.95 -3,1.26 l -0.43,0.1 -0.31,0.31 c -1.01,1.03 -2.13,1.59 -2.88,1.96 l -0.42,0.24 c -1.68,1.35 -4.51,3.02 -7.38,3.64 l -0.35,0.12 c -1.28,0.63 -2.5,0.89 -3.73,0.76 l -0.16,-0.02 -0.16,0.02 c -1.81,0.22 -3.48,0.21 -5.05,-0.02 l -1.15,-0.17 -0.45,1.07 c -0.6,1.42 -1.44,2.62 -2.57,3.68 l -0.19,0.18 -0.12,0.23 c -1.59,3.09 -4.65,4.84 -6.48,5.89 l -7.38,4.24 c -0.1,0.06 -0.19,0.13 -0.33,0.23 -0.57,0.4 -1.35,0.96 -2.35,1.38 l -0.4,0.17 -3.39,4.87 c -1.49,2.14 -3.64,3.37 -5.88,3.37 -0.87,0 -1.7,-0.18 -2.49,-0.54 -1.41,-0.64 -2.41,-1.73 -3.07,-3.33 l -1.57,-2.43 -0.21,-0.16 c -0.42,-0.31 -1.2,-0.9 -1.9,-1.73 l -0.14,-0.17 -2.78,-1.84 c -0.92,-0.62 -2.05,-1.17 -3.24,-1.75 -2.26,-1.1 -4.82,-2.34 -7.01,-4.49 l -2.88,-2.83 -0.19,-0.16 c -1.15,-0.8 -1.96,-1.99 -2.29,-3.33 l -0.06,-0.24 -0.13,-0.21 c -0.23,-0.36 -0.44,-0.74 -0.63,-1.12 l -0.47,-0.96 -1.06,0.13 c -1.87,0.23 -3.89,0.19 -6.27,-0.13 -2.34,-0.31 -4.31,-0.88 -6.19,-1.79 l -0.36,-0.17 c -0.64,-0.3 -1.83,-0.85 -2.95,-1.81 l -0.23,-0.2 -0.29,-0.09 c -0.77,-0.25 -1.53,-0.64 -2.24,-1.16 -0.32,-0.23 -0.61,-0.48 -0.88,-0.73 l -0.26,-0.25 -0.34,-0.1 c -1.44,-0.43 -2.94,-1.19 -4.73,-2.39 l -0.34,-0.23 -0.41,-0.02 c -2.41,-0.14 -4.75,-0.57 -6.92,-1.03 l -6.71,-1.4 4.94,-10.15 0.12,-0.34 c 0.71,-3.33 0.57,-6.86 0.43,-10.28 -0.17,-4.24 -0.35,-8.62 1.15,-12.62 0.92,-2.45 2.17,-4.58 3.71,-6.33 l 0.82,-0.93 -0.75,-0.98 c -0.3,-0.39 -0.56,-0.77 -0.79,-1.11 l -0.14,-0.21 -0.21,-0.15 c -1.56,-1.18 -2.55,-2.71 -2.94,-4.56 -0.64,-3.06 -0.93,-5.81 -0.89,-8.65 l 0.13,-10.55 -0.1,-0.26 c -0.25,-0.67 -0.41,-1.39 -0.48,-2.19 l -0.02,-0.24 -1.03,-2.44 c -0.6,-1.41 -1.84,-4.33 -0.19,-7.14 0.93,-1.59 2.53,-2.61 4.37,-2.8 l 3.96,-0.42 0.28,-0.16 c 0.16,-0.09 0.32,-0.18 0.46,-0.25 l 6.34,-2.89 4.36,-2.84 3.47,-1.4 0.17,-0.08 c 3.62,-2 7.88,-2.74 11.8,-2.06 l 1.23,0.21 0.43,-1.17 c 0.71,-1.91 1.87,-3.45 3.37,-4.46 l 0.27,-0.18 0.17,-0.28 c 0.78,-1.27 1.79,-2.09 2.38,-2.56 l 0.38,-0.35 c 0.65,-0.72 2.18,-2.42 4.61,-2.78 l 0.46,-0.07 0.34,-0.31 c 0.73,-0.67 1.63,-1.3 2.67,-1.88 l 0.17,-0.11 c 0.37,-0.24 0.98,-0.64 1.79,-0.94 l 0.32,-0.12 0.24,-0.25 c 0.71,-0.74 1.57,-1.37 2.55,-1.88 l 0.26,-0.13 0.19,-0.22 c 0.19,-0.22 0.36,-0.41 0.51,-0.57 l 0.2,-0.22 c 0.36,-0.45 0.77,-0.88 1.26,-1.29 l 0.26,-0.22 0.14,-0.31 c 0.65,-1.42 1.67,-2.67 3.05,-3.73 l 1.48,-1.14 1.87,0.03 c 1.47,0.02 3.54,0.55 5.09,2.9 l 0.16,0.2 c 1.12,1.2 1.62,2.65 1.86,3.35 l 0.14,0.41 0.33,0.27 c 0.41,0.33 0.98,0.72 1.69,1.16 l 2.01,1.23 3.25,1.82 3.29,1.97 c 0.3,0.18 0.6,0.38 0.87,0.59 l 0.18,0.14 0.22,0.08 c 1.63,0.6 2.99,1.71 3.93,3.2 l 0.13,0.21 0.2,0.16 c 0.42,0.33 0.79,0.69 1.12,1.07 l 0.15,0.17 0.2,0.12 c 0.24,0.15 0.49,0.31 0.73,0.5 1.53,1.2 2.76,2.87 3.45,4.71 l 0.42,1.09 1.16,-0.13 c 1.86,-0.22 3.89,-0.2 6.5,0.04 1.39,0.12 2.58,0.53 3.55,1.21 l 0.28,0.2 0.34,0.06 c 2.1,0.34 3.92,1.24 5.28,2.59 l 0.29,0.29 0.39,0.1 c 1.35,0.35 2.58,1.06 3.55,2.06 l 0.24,0.25 0.32,0.12 c 0.98,0.35 1.84,0.78 2.6,1.16 0.67,0.33 1.17,0.58 1.51,0.68 l 10.98,1.96 0.41,4.02 c 0.23,2.25 -0.39,4.3 -1.85,6.08 l -0.19,0.24 -0.08,0.29 c -0.98,3.34 -0.84,7.47 -0.71,11.5 0.18,5.48 0.35,10.65 -2.31,14.6 l -1.36,2.02 c -0.25,0.37 -0.52,0.74 -0.8,1.08 l -0.85,1.04 0.94,0.96 c 0.85,0.87 1.5,1.9 1.92,3.06 l 0.49,1.37 0.14,0.18 c 0.89,1.18 1.42,2.49 1.58,3.9 l 0.75,6.64 -0.06,0.57 c -0.42,4.17 -0.82,8.96 -0.24,13.11 l 0.07,0.48 0.33,0.35 c 1.19,1.26 1.97,2.91 2.14,4.54 0.32,3.1 -1.59,5.8 -4.54,6.42 z"
       id="path1" />
    <path
       d="m 175.02,902.5 -0.08,-0.25 c -0.46,-1.32 -0.61,-2.48 -0.72,-3.34 v -0.11 c -0.03,-0.11 -0.04,-0.22 -0.06,-0.32 l -4.12,-11.79 -2.74,-4.93 -6.98,-8.67 -4.39,-3.58 h -0.51 c -2.6,-0.07 -4.98,-1.14 -6.7,-3.02 l -0.4,-0.44 -0.6,-0.04 c -1.51,-0.11 -2.98,-0.62 -4.25,-1.48 l -0.25,-0.17 -0.3,-0.06 c -2.03,-0.39 -3.95,-1.29 -5.54,-2.6 l -0.53,-0.44 -0.68,0.12 c -1.34,0.23 -2.78,0.14 -4.09,-0.27 l -0.27,-0.08 -0.29,0.02 c -3.35,0.26 -10.42,0.53 -13.75,0.53 -1.58,0 -2.94,0 -4.31,-0.42 l -0.42,-0.13 -0.42,0.12 c -0.26,0.07 -0.52,0.14 -0.77,0.2 l -0.52,0.13 -0.32,0.43 c -1.75,2.37 -4.52,3.78 -7.42,3.78 -0.3,0 -0.59,-0.01 -0.89,-0.04 l -0.51,-0.05 -0.43,0.27 c -0.74,0.47 -1.43,0.82 -2,1.12 -0.3,0.16 -0.67,0.35 -0.85,0.47 l -2.15,1.49 -1.41,1.27 -8.2,8.51 -1.92,2.75 -2.22,3.9 -3.91,7.8 -0.03,0.28 c -0.18,1.96 -0.78,3.55 -1.21,4.71 l -0.77,1.9 v 3.7 c 0,0 0.56,10.74 0.56,10.74 l 0.43,2.88 2.55,9.24 0.22,0.25 c 1.66,1.95 2.88,4.14 3.51,6.34 l 0.12,0.42 0.33,0.29 c 0.73,0.64 1.43,1.41 2.08,2.27 l 4.47,5.91 3.62,3.43 0.68,0.45 2.96,2.24 0.45,0.03 c 2.49,0.17 4.78,1.4 6.27,3.36 l 0.16,0.21 0.22,0.14 c 0.41,0.27 0.82,0.57 1.22,0.89 l 0.26,0.21 0.32,0.08 c 0.28,0.07 0.56,0.15 0.84,0.23 l 3.37,1.01 9.53,2.35 h 0.19 c 4.17,-0.05 10.42,-0.27 16.47,-1.63 l 0.12,-0.03 c 1.12,-0.25 1.95,-0.45 2.43,-0.63 l 6.57,-2.72 1.64,-0.87 0.21,-0.38 c 0.44,-0.77 0.97,-1.47 1.59,-2.1 1.66,-1.69 3.79,-2.74 6.18,-3.04 l 0.39,-0.05 0.32,-0.24 c 2.86,-2.13 5.4,-4.67 7.54,-7.55 l 2.32,-3.13 3.27,-5.68 1.3,-2.67 0.84,-2.8 0.82,-3.14 1.7,-9.69 -0.13,-7.38 v -0.54 z m -4.49,16.91 -0.79,3.03 -0.71,2.4 -1.18,2.42 -3.1,5.41 -2.27,3.06 c -1.89,2.54 -4.11,4.79 -6.61,6.7 -2.9,0.45 -5.5,1.78 -7.55,3.86 -0.69,0.71 -1.31,1.49 -1.83,2.34 l -0.69,0.37 -6.45,2.67 c -0.22,0.08 -0.89,0.25 -2.01,0.5 l -0.11,0.02 c -5.68,1.28 -11.62,1.5 -15.66,1.55 l -9.09,-2.24 -3.3,-0.99 c -0.22,-0.06 -0.43,-0.13 -0.65,-0.18 -0.33,-0.26 -0.67,-0.5 -1.01,-0.73 -1.92,-2.41 -4.74,-3.95 -7.83,-4.28 l -2.32,-1.76 -0.5,-0.31 -3.24,-3.05 -4.39,-5.81 c -0.68,-0.9 -1.41,-1.71 -2.17,-2.42 -0.75,-2.37 -2.04,-4.7 -3.77,-6.78 l -2.31,-8.34 -0.39,-2.57 -0.56,-10.58 v -3.02 c 0,0 0.6,-1.47 0.6,-1.47 0.44,-1.19 1.1,-2.97 1.35,-5.19 l 3.62,-7.24 2.08,-3.67 1.66,-2.4 8.05,-8.35 1.11,-1.01 2.01,-1.39 c 0.11,-0.07 0.37,-0.2 0.65,-0.35 0.43,-0.22 1.04,-0.54 1.72,-0.94 3.84,0.21 7.68,-1.49 10.14,-4.52 1.62,0.41 3.19,0.41 4.7,0.41 3.3,0 10.2,-0.26 13.71,-0.52 1.46,0.41 3.01,0.54 4.53,0.37 1.79,1.35 3.87,2.29 6.06,2.76 1.48,0.94 3.15,1.55 4.87,1.76 2.12,2.1 4.89,3.34 7.91,3.53 l 3.26,2.63 6.66,8.23 2.51,4.47 3.96,11.28 0.03,0.23 c 0.12,0.87 0.29,2.17 0.78,3.67 v 0.08 c 0,0 0.12,7.12 0.12,7.12 l -1.61,9.23 z"
       id="path2" />
    <path
       d="m 150.29,901.78 -0.07,-0.3 c -0.39,-2 -1.36,-3.37 -2,-4.28 -0.11,-0.15 -0.22,-0.31 -0.33,-0.48 l -0.09,-0.14 c -0.58,-0.95 -2.36,-3.84 -5.98,-3.84 -1.03,0 -2.57,0.26 -4.09,1.5 l -0.78,0.63 -0.5,0.87 c -1.95,3.42 0.12,6.48 0.81,7.49 v 0.02 c 0.23,0.62 0.44,1.87 0.43,3.13 l -0.68,2.38 c -0.61,0.8 -0.97,1.62 -1.2,2.26 -0.03,0.04 -0.06,0.07 -0.09,0.11 l -0.29,0.36 c -0.71,0.88 -1.06,1.29 -1.46,1.53 -0.3,0.18 -0.58,0.38 -0.83,0.61 -0.47,0.19 -0.91,0.42 -1.32,0.69 l -1.85,1.24 c -0.51,0.02 -0.98,0.07 -1.41,0.11 -0.39,0.04 -0.75,0.08 -1.06,0.08 h -0.34 c 0,0 -0.34,0.04 -0.34,0.04 -0.36,0.04 -0.71,0.08 -1.07,0.12 -0.1,-0.03 -0.2,-0.05 -0.3,-0.07 l -0.38,-0.08 -0.7,-0.04 h -0.64 c -0.09,0 -0.17,0 -0.22,0 l -0.13,-0.04 c -0.52,-0.18 -1.22,-0.42 -2.06,-0.57 l -1.27,-0.66 -1.79,-1.1 c -0.61,-0.37 -1.37,-1.4 -2.11,-2.4 -0.19,-0.25 -0.37,-0.5 -0.56,-0.75 -0.1,-0.22 -0.23,-0.58 -0.32,-0.8 l -0.14,-0.36 c -0.77,-1.97 -0.64,-4.14 -0.39,-5.61 0.01,-0.06 0.09,-0.41 0.77,-1.37 l 1.86,-2.63 -1.44,-2.88 c -0.75,-1.49 -1.81,-2.6 -3.34,-3.48 l -4.75,-2.74 -3.66,6.67 -1.2,1.93 -0.84,1.43 -0.17,0.36 c -2.65,5.98 -2.75,12.71 -0.26,18.49 0.05,0.19 0.11,0.37 0.18,0.55 V 920 c 0,0 0.6,1.21 0.6,1.21 0.87,1.72 1.89,3.53 3.51,5.12 0.12,0.11 0.27,0.3 0.44,0.49 0.44,0.5 1.02,1.16 1.77,1.77 0.84,1.28 1.98,1.98 2.55,2.31 1.84,1.64 4.1,2.67 6.07,3.47 2.87,1.16 5.89,1.74 9,1.74 2.01,0 4.05,-0.25 6.05,-0.75 2.98,-0.73 5.55,-2.04 7.88,-3.35 l 1.25,-0.7 c 1.86,-1.04 3.58,-2.67 4.74,-4.48 l 0.88,-0.88 1.67,-2.3 1.52,-2.9 1.26,-3.13 c 1.25,-3.14 1.16,-7.36 1.1,-8.57 -0.15,-3.14 -0.77,-5.51 -1.91,-7.26 z m -1.98,14.72 -1.17,2.93 -1.32,2.56 -1.37,1.92 -0.91,0.91 -0.22,0.27 c -0.9,1.46 -2.27,2.77 -3.75,3.59 l -1.25,0.7 c -2.15,1.2 -4.51,2.41 -7.14,3.06 -4.47,1.1 -9.05,0.8 -13.2,-0.87 -1.77,-0.71 -3.79,-1.63 -5.3,-3.02 l -0.29,-0.21 c -0.36,-0.2 -1.21,-0.67 -1.72,-1.53 l -0.15,-0.25 -0.23,-0.18 c -0.63,-0.49 -1.16,-1.08 -1.58,-1.56 -0.22,-0.25 -0.44,-0.49 -0.59,-0.64 -1.31,-1.29 -2.18,-2.84 -2.94,-4.33 l -0.27,-0.53 v -0.11 c 0,0 -0.12,-0.3 -0.12,-0.3 -0.08,-0.19 -0.14,-0.38 -0.2,-0.59 l -0.08,-0.22 c -2.2,-5.03 -2.12,-10.92 0.21,-16.17 l 2.05,-3.41 2.22,-4.06 2.1,1.21 c 1.02,0.59 1.67,1.25 2.15,2.22 l 0.63,1.27 -0.82,1.16 c -0.77,1.08 -1.16,1.89 -1.28,2.61 -0.31,1.84 -0.46,4.58 0.55,7.19 l 0.14,0.36 c 0.22,0.58 0.38,0.97 0.52,1.23 l 0.12,0.19 c 0.21,0.28 0.42,0.56 0.63,0.85 0.95,1.28 1.84,2.5 2.95,3.18 l 1.84,1.12 1.83,0.96 0.24,0.04 c 0.69,0.11 1.28,0.31 1.87,0.51 l 0.28,0.09 0.28,0.06 c 0.08,0.01 0.27,0.03 0.7,0.03 h 0.63 c 0,0 0.47,0.05 0.47,0.05 0.11,0.02 0.22,0.05 0.33,0.09 l 0.3,0.1 0.32,-0.04 c 0.46,-0.05 0.92,-0.1 1.38,-0.16 l 0.15,-0.02 h 0.16 c 0.41,0 0.87,-0.04 1.37,-0.09 0.51,-0.05 1.04,-0.1 1.61,-0.11 h 0.45 c 0,0 2.58,-1.74 2.58,-1.74 0.28,-0.19 0.6,-0.35 0.95,-0.47 l 0.32,-0.11 0.24,-0.24 c 0.16,-0.15 0.33,-0.29 0.52,-0.4 0.85,-0.51 1.41,-1.17 2.25,-2.21 l 0.29,-0.35 c 0.06,-0.07 0.12,-0.14 0.18,-0.2 l 0.22,-0.24 0.1,-0.31 c 0.16,-0.49 0.44,-1.22 0.96,-1.84 l 0.21,-0.25 0.91,-3.17 0.06,-0.39 c 0.03,-1.43 -0.18,-3.43 -0.7,-4.66 l -0.25,-0.42 c -0.84,-1.25 -1.59,-2.74 -0.68,-4.32 l 0.22,-0.38 0.34,-0.28 c 0.84,-0.68 1.65,-0.83 2.19,-0.83 1.71,0 2.69,1.22 3.46,2.46 l 0.1,0.16 c 0.13,0.2 0.26,0.39 0.4,0.58 0.55,0.78 1.24,1.75 1.5,3.11 0.02,0.1 0.04,0.19 0.09,0.36 l 0.14,0.6 0.17,0.24 c 0.89,1.27 1.41,3.26 1.53,5.92 0.1,2.1 -0.08,5.27 -0.89,7.32 z"
       id="path3" />
  </g>
</svg>
