<?xml version="1.0" encoding="UTF-8" standalone="no"?>
<svg
   viewBox="-0.22 0.00 146.90 146.90"
   version="1.1"
   id="svg3"
   width="146.90"
   height="146.90"
   xmlns="http://www.w3.org/2000/svg"
   xmlns:svg="http://www.w3.org/2000/svg">
  <defs
     id="defs3" />
  <g
     fill="#b5953b"
     id="g3"
     transform="translate(-52.959446,-661.86)">
    <path
       d="m 198.33,746.74 c -0.65,-1.52 -1.68,-2.82 -3.02,-3.81 -0.22,-0.64 -0.42,-1.31 -0.63,-1.98 -0.58,-1.89 -1.28,-4.19 -2.55,-6.41 0.97,-1.56 1.65,-3.25 2.02,-5.05 l 0.68,-3.28 c 0.1,-0.14 0.21,-0.29 0.3,-0.41 0.17,-0.23 0.33,-0.45 0.48,-0.66 l 0.15,-0.22 c 0,0 0.08,-0.12 0.14,-0.23 2.73,-2.9 3.79,-6.39 3.06,-10.11 l -1.3,-6.63 -6.78,-0.1 -4.18,-3.66 c -0.76,-0.67 -1.93,-1.58 -3.42,-2.4 0,-2.22 -0.4,-4.22 -0.72,-5.87 -0.51,-2.56 -0.77,-4.09 -0.24,-5.74 l 2.73,-8.6 -8.79,-2.05 c -1.26,-0.29 -2.57,-0.44 -3.87,-0.44 -1.47,0 -2.74,0.18 -3.9,0.39 -2.93,-1.1 -5.62,-1.68 -8.2,-1.76 l -7.38,-7.38 -0.6,-1.66 c -2.24,-6.15 -7.03,-6.81 -8.99,-6.81 -1.15,0 -2.27,0.2 -3.45,0.61 -1.56,0.55 -2.95,1.46 -4.15,2.72 l -3.07,0.96 c -1.89,0.59 -4.2,1.3 -6.44,2.51 -2.94,-1.74 -6.05,-2.46 -8.16,-2.96 -0.42,-0.1 -0.93,-0.22 -1.36,-0.33 -2.17,-2.34 -4.72,-3.52 -7.58,-3.52 -2.06,0 -4.07,0.66 -5.81,1.91 -2.83,2.03 -3.78,4.98 -4.24,6.48 -0.42,0.6 -1.23,1.41 -2.02,2.19 -1.29,1.29 -3.01,3.01 -4.37,5.26 -2.28,0.05 -4.31,0.54 -6.12,0.98 -1.44,0.35 -2.81,0.68 -3.97,0.68 -0.47,0 -0.9,-0.05 -1.33,-0.16 -0.74,-0.18 -1.51,-0.28 -2.31,-0.28 -2.98,0 -5.71,1.25 -7.47,3.44 -1.68,2.07 -2.31,4.76 -1.75,7.38 l 0.53,2.45 c -0.06,0.52 -0.35,1.75 -0.46,2.25 -0.45,1.96 -1.05,4.58 -1,7.48 -1.79,1.02 -3.4,2.35 -4.81,3.97 -0.64,0.73 -1.62,1.49 -2.85,2.2 l -0.86,0.2 c -3.19,0.74 -5.67,3.04 -6.65,6.14 -1,3.18 -0.18,6.76 2.14,9.33 l 1.04,1.15 c 0.17,0.45 0.37,0.88 0.6,1.3 0.21,2.01 0.83,4.08 1.84,6.16 0.21,0.44 0.57,1.18 1.1,2.05 -1.57,2.56 -2.65,5.54 -3.02,8.36 l -0.18,0.3 c -3.88,3.2 -5.18,7.75 -3.39,11.94 l 1.59,3.73 3.92,1.06 c 1.82,0.49 3.05,1.64 4.76,3.23 1.27,1.19 2.82,2.63 4.79,3.81 -0.02,2.59 0.52,4.85 0.96,6.71 0.25,1.06 0.47,1.99 0.54,2.77 -0.76,1.69 -1,3.45 -0.73,5.23 0.75,4.88 4.58,8.15 9.53,8.15 1.47,0 2.76,-0.29 3.95,-0.56 l 0.18,-0.04 c 0.58,0.16 1.2,0.27 1.83,0.34 2.46,1.05 5.17,1.6 7.86,1.56 0.19,0.33 0.4,0.66 0.61,0.97 1.41,2.1 3.3,4.12 5.63,6.01 0.27,0.56 0.62,1.53 0.87,2.2 0.18,0.49 0.36,0.98 0.55,1.47 l 2.75,7.1 7.32,-2.09 c 3.36,-0.96 5.39,-2.84 6.5,-3.97 0.24,-0.06 0.53,-0.11 0.83,-0.18 1.86,-0.38 4.62,-0.94 7.83,-2.86 2.46,1.48 5.46,2.46 8.95,2.93 l 0.2,0.06 c 3.01,3.41 6.51,3.94 8.36,3.94 0.45,0 0.91,-0.03 1.37,-0.09 2.31,-0.3 6.38,-1.69 8.05,-7.62 l 2.13,-2.82 c 1.74,-1.45 3.17,-3.13 4.27,-4.98 2.61,0.07 5.27,-0.43 7.67,-1.45 0.92,-0.39 1.62,-0.54 2.52,-0.54 0.9,0 2,0.15 3.54,0.46 l 14.36,2.92 -4.82,-13.84 c -0.49,-1.4 -0.3,-2.66 0.28,-5.39 0.38,-1.79 0.84,-3.96 0.85,-6.38 2.49,-1.43 4.18,-3.21 5.36,-4.45 0.24,-0.25 0.71,-0.75 0.89,-0.91 l 0.18,-0.11 c 0.51,-0.32 0.88,-0.55 1.1,-0.64 3.15,-0.47 5.87,-2.37 7.29,-5.12 1.42,-2.74 1.41,-5.97 -0.05,-8.86 z m -2.62,7.48 c -1,1.93 -2.94,3.26 -5.2,3.55 l -0.27,0.06 c -0.54,0.17 -1.04,0.48 -1.86,0.99 l -0.34,0.22 c -0.26,0.19 -0.6,0.53 -1.35,1.32 -1.14,1.2 -2.86,3.01 -5.35,4.26 l -0.88,0.44 0.05,0.98 c 0.12,2.42 -0.35,4.62 -0.77,6.57 -0.61,2.89 -0.95,4.78 -0.18,7 l 3.09,8.86 -9.2,-1.87 c -3.85,-0.78 -5.48,-0.74 -7.83,0.26 -2.25,0.96 -4.81,1.37 -7.22,1.17 l -0.99,-0.08 -0.46,0.88 c -0.99,1.89 -2.38,3.58 -4.13,5.02 l -2.83,3.69 -0.08,0.29 c -0.89,3.41 -2.78,5.33 -5.61,5.69 -0.33,0.04 -0.66,0.06 -0.99,0.06 -1.69,0 -4.17,-0.55 -6.34,-3.19 l -0.28,-0.34 -1.16,-0.37 -0.26,-0.06 c -3.49,-0.45 -6.39,-1.46 -8.62,-2.98 l -0.82,-0.56 -1.01,0.65 c -3.01,1.94 -5.69,2.49 -7.49,2.85 -0.53,0.11 -1.04,0.21 -1.42,0.33 l -0.42,0.17 -0.27,0.28 c -0.94,0.97 -2.52,2.6 -5.41,3.42 l -4.69,1.34 -1.76,-4.55 v 0 c -0.18,-0.48 -0.36,-0.95 -0.53,-1.43 -0.36,-0.97 -0.8,-2.18 -1.2,-2.88 l -0.14,-0.25 -0.23,-0.18 c -2.2,-1.75 -3.97,-3.62 -5.26,-5.54 -0.33,-0.49 -0.63,-1 -0.89,-1.52 l -0.45,-0.88 -0.99,0.06 c -2.58,0.16 -5.27,-0.32 -7.65,-1.37 l -0.23,-0.1 -0.25,-0.02 c -0.65,-0.06 -1.27,-0.17 -1.83,-0.35 l -0.38,-0.12 -1.02,0.22 c -1.08,0.24 -2.1,0.47 -3.24,0.47 -3.47,0 -6.04,-2.2 -6.57,-5.61 -0.2,-1.29 0.02,-2.57 0.63,-3.82 l 0.17,-0.34 v -0.38 c -0.06,-1.13 -0.34,-2.32 -0.66,-3.69 -0.45,-1.89 -1,-4.23 -0.85,-6.79 l 0.06,-0.96 -0.85,-0.45 c -2.01,-1.06 -3.58,-2.53 -4.97,-3.82 -1.87,-1.74 -3.48,-3.24 -6.02,-3.93 l -2.51,-0.68 -1.02,-2.39 c -1.26,-2.97 -0.22,-6.25 2.71,-8.58 l 0.21,-0.16 0.81,-1.31 0.04,-0.34 c 0.31,-2.76 1.44,-5.75 3.1,-8.18 l 0.58,-0.84 -0.58,-0.85 c -0.72,-1.05 -1.16,-1.97 -1.43,-2.52 -0.9,-1.86 -1.43,-3.68 -1.58,-5.43 l -0.03,-0.34 -0.17,-0.29 c -0.25,-0.42 -0.46,-0.88 -0.63,-1.36 l -0.1,-0.28 -1.43,-1.59 c -1.61,-1.79 -2.19,-4.25 -1.5,-6.42 0.65,-2.08 2.32,-3.62 4.47,-4.12 l 1.28,-0.3 0.18,-0.1 c 1.63,-0.91 2.92,-1.9 3.83,-2.95 1.38,-1.58 2.98,-2.83 4.76,-3.72 l 0.9,-0.45 -0.07,-1 c -0.2,-2.85 0.43,-5.58 0.89,-7.58 0.29,-1.26 0.54,-2.36 0.55,-2.99 v -0.18 c 0,0 -0.61,-2.84 -0.61,-2.84 -0.37,-1.72 0.05,-3.49 1.15,-4.86 1.19,-1.48 3.06,-2.32 5.13,-2.32 0.55,0 1.08,0.06 1.58,0.19 2.11,0.52 4.35,0.06 6.74,-0.52 1.86,-0.45 4.03,-0.97 6.22,-0.89 l 0.94,0.03 0.44,-0.83 c 1.2,-2.26 2.91,-3.97 4.29,-5.35 1.01,-1.01 1.97,-1.97 2.54,-2.87 l 0.1,-0.16 0.1,-0.32 c 0.41,-1.32 1.09,-3.52 3.14,-5 1.23,-0.88 2.63,-1.35 4.06,-1.35 2.12,0 3.96,0.93 5.63,2.84 l 0.29,0.33 0.42,0.12 c 0.52,0.15 1.31,0.34 1.93,0.49 2.22,0.52 5.26,1.23 7.98,3.03 l 0.79,0.52 0.81,-0.49 c 2.17,-1.31 4.62,-2.07 6.59,-2.68 l 3.86,-1.2 0.28,-0.31 c 0.92,-1.04 1.99,-1.78 3.19,-2.19 0.85,-0.3 1.65,-0.44 2.45,-0.44 2.01,0 4.72,0.84 6.17,4.84 l 0.83,2.28 6.75,6.75 -0.04,0.78 0.77,1.27 0.9,-0.05 c 2.79,-0.16 5.74,0.39 9.1,1.69 l 0.4,0.16 0.42,-0.08 c 1.05,-0.2 2.29,-0.42 3.76,-0.42 1.08,0 2.15,0.12 3.19,0.37 l 5.63,1.31 -1.75,5.51 c -0.73,2.29 -0.43,4.26 0.16,7.23 0.34,1.72 0.76,3.86 0.64,6.1 l -0.05,1 0.9,0.43 c 1.61,0.78 2.85,1.74 3.62,2.41 l 4.49,3.94 0.75,0.46 5.22,0.08 0.84,4.25 c 0.55,2.81 -0.25,5.35 -2.39,7.57 l -0.46,0.66 c -0.14,0.2 -0.3,0.41 -0.46,0.62 -0.16,0.22 -0.38,0.52 -0.53,0.74 l -0.17,0.25 -0.8,3.88 c -0.35,1.71 -1.05,3.31 -2.09,4.74 l -0.6,0.84 0.56,0.86 c 1.39,2.12 2.13,4.55 2.72,6.51 0.25,0.81 0.53,1.73 0.83,2.56 l 0.17,0.47 0.42,0.27 c 1.06,0.69 1.87,1.67 2.35,2.81 l 0.05,0.1 c 1.03,2.03 1.06,4.28 0.08,6.17 z"
       id="path1" />
    <path
       d="m 166.84,705.05 c -2.96,-4.28 -6.8,-8.19 -11.42,-11.62 l -0.39,-0.29 h -0.48 c -2.72,-0.05 -5.25,-1.53 -6.6,-3.87 l -0.29,-0.41 -0.49,-0.26 c -0.64,-0.34 -0.96,-0.51 -1.18,-0.6 l -8,-3.18 -9.02,-0.82 -8.94,0.1 -1.36,0.14 -11.87,3.28 -0.29,0.11 c -0.24,0.12 -0.65,0.36 -1.03,0.59 -0.92,0.54 -2.06,1.22 -3.4,1.74 l -0.33,0.13 -0.24,0.26 c -0.93,1.01 -2.08,1.77 -3.51,2.33 l -0.19,0.07 -2.95,2.18 c -2.87,2.12 -5.45,5.11 -7.39,7.49 l -2.94,3.73 -3.2,6.12 -3.99,9.65 c -1.35,3.28 -1.51,7.6 -1.49,10.99 l 0.03,6.09 c 0,1.42 0.01,2.22 0.13,2.71 l 1.41,6.13 5.7,12.89 c 1.63,3.67 4.81,7.49 9.44,11.37 l 4.48,3.76 3.13,1.58 2.64,1.56 0.09,0.05 c 7.27,3.67 15.39,5.61 23.48,5.61 8.66,0 17.17,-2.21 24.6,-6.4 8.73,-4.92 15.99,-12.55 20.44,-21.5 4.15,-8.33 5.74,-17.57 4.74,-27.47 -0.83,-8.23 -4.06,-16.61 -9.33,-24.23 z m 1.91,50.36 c -4.18,8.41 -11.01,15.59 -19.23,20.22 -6.98,3.93 -14.98,6.01 -23.13,6.01 -7.61,0 -15.25,-1.82 -22.09,-5.27 l -2.65,-1.57 -2.82,-1.38 -4.34,-3.64 c -4.28,-3.58 -7.18,-7.04 -8.62,-10.28 l -5.55,-12.48 -1.37,-5.98 c -0.06,-0.31 -0.05,-1.57 -0.05,-2.05 l -0.03,-6.11 c -0.02,-3.11 0.11,-7.04 1.26,-9.83 l 3.91,-9.47 2.96,-5.69 2.83,-3.6 c 1.82,-2.23 4.23,-5.04 6.83,-6.95 l 2.63,-1.94 c 1.65,-0.66 3.06,-1.59 4.21,-2.77 1.42,-0.58 2.63,-1.3 3.59,-1.86 0.22,-0.13 0.49,-0.29 0.69,-0.4 l 11.35,-3.15 1.02,-0.11 8.72,-0.1 8.44,0.77 7.6,3.02 c 0.14,0.06 0.42,0.21 0.69,0.36 1.83,2.89 4.99,4.75 8.42,4.97 4.19,3.17 7.68,6.75 10.38,10.65 4.99,7.21 8.03,15.1 8.82,22.83 0.94,9.32 -0.55,18.01 -4.44,25.83 z"
       id="path2" />
    <path
       d="m 150.55,712.49 -15.41,-0.04 h -5.06 c 0,0 -34.11,-0.05 -34.11,-0.05 l -0.77,5.27 c -0.52,3.6 1.2,6.09 1.93,7.15 l 0.06,0.09 c 0.04,0.06 0.08,0.11 0.11,0.16 l 3.82,6.45 5.63,9.33 c 0.09,0.15 0.18,0.31 0.28,0.48 0.52,0.9 1.22,2.11 2.34,3.22 l 0.37,1.35 1.52,2.41 5.58,9.47 2.16,3.98 0.42,0.43 c 0.56,1.63 1.62,2.95 3.06,3.83 1.02,0.62 2.2,0.95 3.41,0.95 3.44,0 6.03,-2.56 7.03,-5 0.64,-0.9 1.08,-1.78 1.41,-2.44 0.15,-0.29 0.33,-0.66 0.42,-0.79 l 1.38,-2.05 5.8,-9.78 2.28,-3.96 c 0.04,-0.07 0.14,-0.21 0.22,-0.32 0.46,-0.67 1.14,-1.64 1.58,-2.96 0.55,-0.58 1.05,-1.28 1.5,-2.14 l 6.91,-11.89 0.12,-0.16 c 0.38,-0.49 1,-1.3 1.47,-2.43 1.35,-2.04 1.47,-4.78 0.31,-6.99 -1.14,-2.17 -3.36,-3.53 -5.78,-3.55 z m -40.91,27.32 c -0.1,-0.18 -0.21,-0.36 -0.31,-0.53 l -1.46,-2.4 -2.39,-4.08 -1.79,-2.85 -3.8,-6.42 c -0.07,-0.12 -0.16,-0.24 -0.29,-0.43 -0.62,-0.9 -1.78,-2.57 -1.43,-5.01 l 0.39,-2.7 24.21,0.05 -3.2,1.17 c -3.17,1.16 -6.2,3.38 -9.81,7.21 l -0.15,0.16 -1,1.98 -1.03,3.91 v 0.21 c 0.03,1.03 0,1.98 -0.04,2.82 -0.02,0.54 -0.05,1.25 -0.04,1.66 v 0.23 c 0,0 1.1,3.21 1.1,3.21 l 0.34,0.27 c 0.94,0.75 1.72,1.66 2.3,2.71 0.34,0.61 0.6,1.26 0.8,1.93 l -0.31,-0.28 c -0.96,-0.88 -1.59,-1.96 -2.09,-2.82 z m 15.68,-22.1 c 1.13,0.17 3.49,1.08 4.81,1.59 3.21,1.24 8.84,4.19 10.5,10 l 0.05,0.17 c 0.1,0.37 0.26,0.92 0.49,1.56 v 3.28 c -2.28,2.12 -3.87,4.97 -4.53,8.11 -0.06,0.27 -0.1,0.54 -0.14,0.81 -0.64,0.53 -1.23,1.12 -1.76,1.78 -2.69,1.84 -5.25,2.74 -7.83,2.74 -1.99,0 -4.2,-0.54 -6.57,-1.59 l -3.79,-2.41 -1.59,-1.61 c -0.26,-0.91 -0.63,-1.79 -1.1,-2.62 -0.7,-1.26 -1.61,-2.37 -2.7,-3.3 l -0.66,-1.94 c 0,-0.37 0.02,-0.86 0.04,-1.25 0.03,-0.83 0.07,-1.77 0.05,-2.81 l 0.78,-3.05 0.73,-1.45 c 3.21,-3.37 5.83,-5.32 8.5,-6.29 z m 28.2,3.67 -0.22,0.4 c -0.32,0.82 -0.78,1.42 -1.15,1.9 -0.07,0.09 -0.14,0.18 -0.25,0.36 l -6.97,11.98 -0.1,0.18 c -0.33,0.63 -0.72,1.16 -1.16,1.57 l -0.3,0.28 -0.11,0.39 c -0.3,1.04 -0.85,1.83 -1.29,2.46 -0.12,0.17 -0.28,0.42 -0.34,0.51 l -2.28,3.97 -4.23,7.16 -1.51,2.52 -1.34,1.99 c -0.2,0.29 -0.4,0.69 -0.62,1.13 -0.32,0.63 -0.71,1.41 -1.26,2.16 l -0.12,0.17 -0.07,0.19 c -0.6,1.58 -2.31,3.26 -4.3,3.26 -0.66,0 -1.29,-0.18 -1.85,-0.52 -0.92,-0.56 -1.54,-1.39 -1.86,-2.48 l -0.1,-0.35 -0.63,-0.66 -1.99,-3.67 -5.63,-9.56 -1.31,-2.08 -0.45,-1.63 c 0.02,0.09 0.06,0.17 0.08,0.25 l 0.1,0.39 2.27,2.3 4.28,2.77 0.19,0.1 c 2.79,1.26 5.45,1.9 7.9,1.9 3.27,0 6.45,-1.11 9.72,-3.4 l 0.18,-0.13 0.14,-0.18 c 0.54,-0.69 1.16,-1.3 1.84,-1.81 l 0.52,-0.39 0.07,-0.65 c 0.04,-0.39 0.11,-0.78 0.19,-1.17 0.57,-2.76 1.97,-5.15 4.04,-6.9 l 0.53,-0.45 0.02,-5.19 -0.1,-0.26 c -0.24,-0.63 -0.39,-1.17 -0.5,-1.58 l -0.04,-0.16 c -2.01,-7.07 -8.57,-10.54 -12.31,-11.99 -1,-0.39 -1.95,-0.75 -2.82,-1.05 h 1.69 c 0,0 5.07,0 5.07,0 h 11.66 c 0,0 3.71,0.04 3.71,0.04 1.32,0.02 2.53,0.76 3.16,1.95 0.66,1.26 0.6,2.8 -0.16,3.94 z"
       id="path3" />
  </g>
</svg>
