<?xml version="1.0" encoding="UTF-8" standalone="no"?>
<svg
   viewBox="0 0 158.58001 154.36001"
   version="1.1"
   id="svg3"
   width="158.58"
   height="154.36"
   xmlns="http://www.w3.org/2000/svg"
   xmlns:svg="http://www.w3.org/2000/svg">
  <defs
     id="defs3" />
  <g
     fill="#7c8a57"
     id="g3"
     transform="translate(-44.87,-482.28)">
    <path
       d="m 200.77,572.04 c -0.82,-2.66 -2.24,-4.87 -4.34,-6.73 -0.27,-1 -0.64,-1.92 -1.1,-2.74 -0.52,-2.16 -1.42,-4.12 -2.69,-5.86 0.96,-1.48 1.75,-3.13 2.34,-4.93 1.03,-3.13 1.62,-4.42 2.89,-5.45 l 3.35,-2.74 -0.31,-4.32 c -0.27,-3.81 -2.91,-8.26 -9.5,-9.51 -0.29,-0.25 -0.71,-0.66 -0.88,-0.83 -0.79,-0.77 -1.7,-1.4 -2.71,-1.87 -0.81,-0.85 -1.74,-1.56 -2.78,-2.1 -0.33,-0.24 -0.68,-0.46 -1.03,-0.67 0.33,-3.38 -0.11,-6.07 -0.45,-8.1 -0.05,-0.32 -0.18,-1.1 -0.22,-1.45 0.01,-0.05 0.02,-0.09 0.04,-0.14 0.38,-1.61 1.17,-4.96 -0.71,-9.08 l -3.18,-6.97 -7.21,2.57 c -1.52,0.54 -3.27,0.22 -5.87,-0.48 -0.62,-0.2 -1.78,-0.58 -3.26,-0.62 -0.95,-0.07 -1.9,-0.07 -2.84,-0.02 -0.77,-1.61 -1.93,-3.1 -3.44,-4.43 l -3.04,-3.38 -0.55,-1.12 c -0.45,-3.64 -2.8,-7.7 -8.14,-8.46 -0.44,-0.06 -0.9,-0.09 -1.35,-0.09 -3.11,0 -6.16,1.48 -8.43,4.08 l -1.91,0.72 c -2.85,0.58 -5.42,1.6 -7.64,3.06 -1.89,-1.23 -4.04,-2.22 -6.43,-2.94 l -3.34,-1.01 c 0,0 -0.08,-0.08 -0.12,-0.11 -2.37,-3.27 -5.35,-4 -7.46,-4.04 h -0.14 c -1.79,0 -6.22,0.58 -8.64,5.93 l -1.5,3.17 -4.03,4.54 c -1.16,1.31 -2.09,2.72 -2.79,4.21 -0.33,-0.02 -0.67,-0.03 -1,-0.03 -2.54,0 -4.52,0.63 -6.11,1.14 -0.52,0.17 -1.05,0.34 -1.62,0.49 -0.42,-0.07 -1.19,-0.25 -1.59,-0.35 -0.97,-0.23 -2.08,-0.49 -3.31,-0.66 l -5.19,-0.72 -2.9,4.37 c -0.82,1.24 -1.75,3.24 -1.6,5.83 l -0.54,2.86 1.02,1.99 c -0.02,0.11 -0.04,0.25 -0.08,0.43 l -0.73,3.38 c -0.41,1.89 -0.49,3.84 -0.23,5.8 -1.12,0.61 -2.12,1.29 -2.99,2.05 l -1.73,1.01 -0.92,1.07 c -0.39,0.46 -1.12,1.3 -4.3,1.97 l -12.67,2.65 11.24,15.36 1.54,3.88 1,2.26 c 0.31,0.7 0.67,1.38 1.08,2.03 l -0.38,0.56 c -1.07,1.56 -2.57,4.02 -3.24,7.32 l -0.12,0.21 c -0.17,0.22 -0.58,0.78 -0.77,0.99 l -9.01,4.73 6.76,7.94 c 1.96,2.31 3.93,3.22 4.87,3.66 l 3.03,1.42 2.88,2.52 c 1.08,0.94 2.5,2.09 4.35,2.99 -0.27,3.07 0,6.17 0.79,9.05 -0.01,0.25 -0.14,0.86 -0.21,1.17 -0.2,0.92 -0.47,2.18 -0.41,3.63 0.1,2.29 1,4.41 2.53,6 1.76,2.2 4.42,3.42 7.51,3.42 0.87,0 1.68,-0.09 2.4,-0.17 1.12,-0.13 2.14,-0.21 2.83,0 2.95,0.87 5.88,1.19 8.69,0.94 0.39,0.62 0.82,1.2 1.3,1.75 l 5.19,5.96 7.05,15.61 9.27,-8.83 c 0.79,-0.76 1.97,-1.9 2.31,-2.07 1.21,-0.37 2.25,-0.77 3.19,-1.23 1.99,-0.51 3.83,-1.3 5.5,-2.34 0.71,0.41 1.43,0.74 2.16,1.01 l 6.66,2.38 0.62,0.43 0.12,0.18 c 1.79,2.63 4.78,4.19 8,4.19 2.35,0 4.59,-0.84 6.33,-2.37 1.67,-1.48 2.75,-3.45 3.14,-5.72 l 2.84,-4.42 c 0.06,-0.04 0.13,-0.09 0.19,-0.14 1.54,-1.14 2.8,-2.6 3.76,-4.36 2.34,0.12 4.79,-0.15 6.96,-0.77 1.26,-0.36 2.38,-0.53 3.63,-0.53 1.08,0 2.32,0.11 4.15,0.37 l 12.85,1.83 -3.66,-12.45 c -0.68,-2.31 -0.49,-4.24 0.07,-6.79 l 0.19,-0.88 v -4.73 c 1.72,-0.97 3.41,-2.27 4.99,-3.84 1.76,-1.62 3.25,-2.41 5.51,-2.89 l 8.9,-1.92 -2.69,-8.7 z m -6.85,7.69 c -2.77,0.6 -4.77,1.65 -6.95,3.66 -1.65,1.63 -3.36,2.9 -5.09,3.76 l -0.83,0.41 v 6.23 c 0,0 -0.12,0.57 -0.12,0.57 -0.63,2.87 -0.87,5.38 -0.02,8.28 l 2.35,7.97 -8.23,-1.17 c -1.98,-0.28 -3.35,-0.4 -4.58,-0.4 -1.55,0 -2.92,0.2 -4.46,0.64 -2.13,0.61 -4.61,0.82 -6.86,0.59 l -1.07,-0.11 -0.45,0.97 c -0.79,1.72 -1.9,3.11 -3.3,4.15 -0.11,0.08 -0.22,0.16 -0.33,0.23 l -0.27,0.17 -3.53,5.49 -0.04,0.33 c -0.23,1.72 -0.97,3.13 -2.2,4.22 -1.18,1.04 -2.73,1.62 -4.34,1.62 -2.23,0 -4.29,-1.08 -5.52,-2.88 l -0.44,-0.64 -1.41,-0.97 -7.03,-2.51 c -0.8,-0.29 -1.6,-0.69 -2.37,-1.21 l -0.86,-0.58 -0.84,0.6 c -1.62,1.14 -3.46,1.98 -5.49,2.48 l -0.32,0.12 c -0.82,0.42 -1.76,0.78 -2.86,1.12 -0.88,0.27 -1.86,1.18 -3.51,2.77 l -6.2,5.91 -5.49,-12.16 -5.48,-6.3 c -0.55,-0.63 -1.04,-1.33 -1.44,-2.08 l -0.49,-0.92 -1.03,0.14 c -2.68,0.36 -5.55,0.11 -8.45,-0.74 -1.16,-0.34 -2.56,-0.26 -4.02,-0.1 -0.66,0.08 -1.35,0.15 -2.05,0.15 -2.79,0 -4.36,-1.27 -5.2,-2.33 l -0.11,-0.13 c -1.05,-1.06 -1.66,-2.52 -1.73,-4.09 -0.05,-1.07 0.16,-2.03 0.34,-2.87 0.24,-1.09 0.38,-1.85 0.19,-2.5 -0.79,-2.83 -1.01,-6.05 -0.61,-9.08 l 0.15,-1.16 -1.09,-0.43 c -1.94,-0.77 -3.44,-1.97 -4.53,-2.93 l -3.2,-2.8 -3.42,-1.61 c -0.87,-0.4 -2.32,-1.08 -3.86,-2.88 l -4.33,-5.09 5.86,-3.08 0.23,-0.15 c 0.34,-0.27 0.73,-0.75 1.36,-1.59 l 0.53,-0.7 0.14,-0.74 c 0.56,-2.74 1.85,-4.85 2.77,-6.2 l 1.55,-2.26 -0.61,-0.85 c -0.53,-0.74 -0.99,-1.55 -1.36,-2.39 l -0.98,-2.21 -1.59,-4.01 -8.79,-12.09 8.11,-1.7 c 3.68,-0.77 5.04,-1.88 5.96,-2.95 l 0.59,-0.68 1.42,-0.83 0.24,-0.18 c 0.92,-0.83 2.06,-1.56 3.4,-2.19 l 1.06,-0.5 -0.23,-1.15 c -0.38,-1.91 -0.37,-3.89 0.03,-5.71 l 0.73,-3.4 c 0.12,-0.56 0.17,-1.02 0.17,-1.38 v -0.35 c 0,0 -0.91,-1.77 -0.91,-1.77 l 0.42,-2.24 -0.02,-0.2 c -0.12,-1.48 0.25,-2.87 1.1,-4.15 l 1.86,-2.8 3.32,0.46 c 1.09,0.15 2.12,0.4 3.03,0.61 0.98,0.23 1.77,0.41 2.29,0.45 l 0.23,0.02 0.22,-0.05 c 0.76,-0.19 1.43,-0.4 2.08,-0.61 1.53,-0.49 3.12,-1 5.19,-1 0.58,0 1.15,0.04 1.74,0.12 l 1.18,0.17 0.43,-1.12 c 0.59,-1.55 1.49,-3.01 2.68,-4.35 l 4.32,-4.87 1.69,-3.58 c 1.65,-3.65 4.42,-4.19 5.91,-4.19 h 0.12 c 2.07,0.04 3.8,1.01 5.13,2.89 l 0.18,0.21 c 0.13,0.13 0.28,0.27 0.44,0.43 l 0.27,0.27 4.07,1.23 c 2.45,0.74 4.61,1.79 6.42,3.11 l 0.89,0.65 0.89,-0.65 c 2.1,-1.54 4.6,-2.61 7.46,-3.17 l 3,-1.11 0.25,-0.31 c 1.72,-2.09 4.05,-3.3 6.38,-3.3 0.31,0 0.63,0.02 0.93,0.06 4.72,0.67 5.48,4.81 5.6,6.06 l 0.03,0.27 0.97,1.97 3.38,3.75 0.13,0.13 c 1.49,1.3 2.54,2.76 3.11,4.33 l 0.4,1.11 1.17,-0.13 c 1.12,-0.13 2.17,-0.16 3.48,-0.06 1.11,0.03 1.96,0.31 2.48,0.48 l 0.17,0.05 c 3.15,0.84 5.46,1.18 7.63,0.4 l 4.62,-1.65 2.04,4.46 c 1.46,3.19 0.87,5.67 0.52,7.14 -0.03,0.14 -0.07,0.27 -0.1,0.42 l -0.03,0.31 c 0,0.4 0.09,1.01 0.27,2.08 0.33,2.03 0.79,4.8 0.31,8.22 l -0.15,1.08 0.99,0.48 c 0.57,0.28 1.12,0.61 1.64,0.98 l 0.2,0.12 c 0.84,0.43 1.59,1 2.23,1.72 l 0.22,0.25 0.3,0.13 c 0.79,0.34 1.5,0.81 2.11,1.41 0.55,0.54 1.08,1.04 1.47,1.31 l 0.28,0.19 0.33,0.06 c 6.49,1.08 7.3,5.5 7.39,6.83 l 0.2,2.76 -2.15,1.75 c -1.86,1.52 -2.69,3.34 -3.84,6.84 -0.62,1.89 -1.48,3.58 -2.56,5.03 l -0.71,0.96 0.77,0.91 c 1.39,1.64 2.34,3.56 2.83,5.72 l 0.05,0.23 0.12,0.2 c 0.44,0.74 0.78,1.6 1,2.58 l 0.11,0.49 0.38,0.32 c 1.18,0.99 2.85,2.64 3.77,5.64 l 1.72,5.57 -5.7,1.23 z"
       id="path1" />
    <path
       d="m 176.65,553.57 c -1.2,-1.57 -1.98,-3.53 -2.3,-5.83 l -0.08,-0.33 c -0.79,-2.06 -1.21,-4.04 -1.27,-5.89 v -0.43 c 0,0 -0.25,-0.36 -0.25,-0.36 -0.66,-1 -1.2,-2.13 -1.59,-3.35 -0.18,-0.55 -0.33,-1.11 -0.44,-1.66 l -0.08,-0.39 -0.26,-0.3 c -1.13,-1.29 -2.09,-2.86 -2.76,-4.54 -0.59,-1.47 -0.93,-2.94 -1,-4.35 l -0.02,-0.45 -3.87,-4.84 -0.72,0.39 -14.82,-9.52 -0.28,-0.06 c -4.31,-0.88 -9.79,-2.84 -11.64,-5.06 l -0.45,-0.55 -1.19,-0.28 -5.58,-0.57 -0.47,0.35 c -1.74,1.29 -3.96,2.01 -6.25,2.01 -1.6,0 -3.11,-0.33 -4.5,-0.97 l -0.43,-0.2 -0.47,0.09 c -4.77,0.9 -9.68,2.79 -15.45,5.95 l -0.2,0.11 -0.16,0.16 c -0.76,0.79 -1.63,1.39 -2.6,1.79 l -0.43,0.26 0.88,1.21 -0.97,-1.15 c -0.1,0.07 -0.2,0.14 -0.31,0.24 l -6.53,5.45 -4.42,5.3 -2.58,3.9 -2.78,4.61 -3.4,9.27 -1.41,5.06 -0.05,0.34 c -0.01,0.29 0,0.79 0,1.15 0,0.31 0,0.6 0,0.85 l -0.26,10.02 1.69,9.91 0.65,1.88 0.38,0.27 c 2.12,1.52 3.97,4.06 5.09,6.97 0.15,0.38 0.28,0.77 0.39,1.14 l 0.06,0.19 1.53,2.49 c 2.5,4.06 6.05,7.88 10.84,11.66 l 1.89,1.5 0.21,0.79 0.94,0.18 c 3.28,0.61 6.54,2.53 8.5,5.01 0.12,0.15 0.23,0.3 0.34,0.46 l 0.24,0.27 c 0.29,0.25 0.56,0.52 0.81,0.81 l 0.35,0.4 11.86,2.2 c 1.37,0.26 2.92,0.39 4.62,0.39 0.87,0 1.79,-0.03 2.73,-0.1 l 0.62,-0.04 1.52,-1.75 9.12,-1.86 0.32,-0.1 c 1.87,-0.84 3.74,-1.39 5.56,-1.64 l 0.47,-0.06 0.35,-0.33 c 2.46,-2.3 6.01,-3.97 9.27,-4.36 l 1.07,-0.13 0.48,-2.31 1.88,-1.6 c 4.29,-3.65 7.59,-7.57 9.8,-11.67 l 0.84,-1.55 0.14,-0.36 c 0.66,-2.71 2.26,-5.23 4.37,-6.92 l 0.37,-0.3 2.23,-7.77 v -0.2 c 0,-0.13 0,-0.53 0,-0.53 l 0.2,-9.93 -0.32,-0.42 z m -2.88,10.32 v 0.32 c 0,0 -1.85,6.47 -1.85,6.47 -2.38,2.05 -4.18,4.95 -4.98,8.05 l -0.75,1.39 c -2.04,3.77 -5.11,7.41 -9.11,10.82 l -2.66,2.26 -0.26,1.24 c -3.43,0.63 -6.9,2.32 -9.54,4.66 -1.91,0.31 -3.84,0.89 -5.77,1.74 l -9.95,2.03 -1.38,1.58 c -2.29,0.13 -4.31,0.03 -5.97,-0.28 l -10.31,-1.93 -0.57,-0.1 c -0.19,-0.2 -0.39,-0.39 -0.6,-0.58 -0.11,-0.15 -0.22,-0.3 -0.33,-0.44 -2.21,-2.8 -5.77,-5.01 -9.43,-5.91 l -2.6,-2.06 c -4.51,-3.56 -7.83,-7.12 -10.14,-10.88 l -1.33,-2.16 c -0.12,-0.38 -0.25,-0.77 -0.4,-1.16 -0.75,-1.95 -2.47,-5.53 -5.76,-8.06 l -0.22,-0.63 -1.62,-9.49 0.25,-9.76 c 0,-0.3 0,-0.62 0,-0.94 0,-0.24 0,-0.57 0,-0.82 l 1.31,-4.71 3.21,-8.81 2.67,-4.44 2.41,-3.65 4.09,-4.94 6.41,-5.35 c 0.06,-0.05 0.12,-0.09 0.18,-0.13 l 0.08,-0.06 c 1.21,-0.53 2.3,-1.28 3.26,-2.24 5.22,-2.84 9.66,-4.57 13.92,-5.44 4.09,1.71 9.21,1.24 12.86,-1.21 l 4.15,0.42 0.12,0.03 c 3.2,3.52 10.75,5.34 12.88,5.8 l 15.84,10.18 0.1,-0.05 1.69,2.07 c 0.13,1.6 0.53,3.24 1.18,4.87 0.75,1.86 1.79,3.62 3.03,5.1 0.12,0.54 0.27,1.07 0.44,1.6 0.43,1.33 1.01,2.58 1.71,3.71 0.11,2.01 0.58,4.13 1.39,6.29 0.38,2.55 1.23,4.78 2.54,6.64 l -0.18,8.93 z"
       id="path2" />
    <path
       d="m 152.05,549.61 c 0.63,-0.78 2.54,-3.14 1.85,-6.69 l -0.89,-4.53 -15.42,0.07 c -0.49,-0.92 -1.04,-1.94 -1.8,-2.97 l -0.03,-0.23 -2.86,-4.73 c -0.39,-0.99 -1.41,-3.6 -4.31,-4.64 -0.71,-0.25 -1.43,-0.38 -2.17,-0.38 -1.25,0 -4.33,0.42 -5.98,4.28 l -1.44,2.55 c 0,0 -2.65,4.41 -3.72,6.19 l -8.3,-0.02 -9.69,0.29 1.38,6.54 c 0.39,1.87 1.32,3.1 1.81,3.77 l 0.1,0.13 c 0.06,0.12 0.13,0.25 0.19,0.38 0.43,0.87 1.01,2.03 1.93,3.15 0.16,0.35 0.32,0.64 0.46,0.86 0.18,0.54 0.58,1.56 1.42,2.53 0.06,0.14 0.12,0.28 0.19,0.43 l -2.57,4.57 -2.4,0.03 0.92,2.53 -0.62,1.07 c -1.22,1.83 -1.56,3.77 -0.96,5.62 0.57,1.77 1.92,3.15 3.7,3.8 1.05,0.38 2.2,0.57 3.51,0.57 0.6,0 1.15,-0.04 1.64,-0.07 0.27,-0.02 0.53,-0.04 0.7,-0.04 h 6.5 c 0,0 0.22,0.03 0.22,0.03 0.02,0 0.04,0 0.06,0 l 5.48,9.49 c 1.28,2.21 3.3,3.48 5.55,3.48 h 0.34 c 1.62,-0.11 3.86,-0.87 5.35,-3.97 l 2.68,-4.44 2.61,-4.57 h 5.61 c 0.38,-0.01 0.8,0 1.28,0.03 0.57,0.03 1.16,0.05 1.79,0.05 1.46,0 2.71,-0.15 3.94,-0.46 l 7.12,-1.8 -9.17,-16.03 4,-6.86 z m 0.61,20.95 -3.3,0.83 c -0.99,0.25 -2.01,0.37 -3.21,0.37 -0.59,0 -1.13,-0.03 -1.68,-0.05 -0.49,-0.02 -0.96,-0.05 -1.39,-0.05 l -7.35,0.02 -3.45,6.04 -2.7,4.47 -0.08,0.16 c -0.92,1.97 -2.06,2.25 -2.83,2.3 h -0.17 c -1.15,0 -2.22,-0.72 -2.95,-1.98 l -6.29,-10.88 -0.82,-0.04 c -0.27,-0.01 -0.52,-0.04 -0.8,-0.06 -0.12,-0.01 -0.23,-0.02 -0.39,-0.03 h -6.55 c -0.23,-0.01 -0.56,0 -0.92,0.03 -0.42,0.03 -0.91,0.06 -1.43,0.06 -0.95,0 -1.77,-0.13 -2.48,-0.39 -0.91,-0.33 -1.59,-1.02 -1.87,-1.9 -0.31,-0.98 -0.11,-1.98 0.62,-3.06 l 5.06,-8.87 0.55,-0.92 -0.44,-0.76 c -0.21,-0.37 -0.38,-0.71 -0.5,-1.05 l -0.11,-0.29 -0.21,-0.22 c -0.63,-0.65 -0.88,-1.42 -1,-1.79 l -0.16,-0.34 c -0.12,-0.19 -0.28,-0.45 -0.42,-0.78 l -0.09,-0.22 -0.16,-0.18 c -0.76,-0.88 -1.27,-1.89 -1.67,-2.7 -0.09,-0.18 -0.18,-0.35 -0.27,-0.53 l -0.07,-0.13 c -0.06,-0.09 -0.12,-0.17 -0.23,-0.32 -0.41,-0.55 -1.02,-1.37 -1.28,-2.59 l -0.64,-3.03 6.05,-0.18 9.95,0.02 4.62,-7.68 1.51,-2.67 0.08,-0.16 c 0.69,-1.67 1.78,-2.52 3.24,-2.52 0.38,0 0.77,0.07 1.15,0.21 1.63,0.59 2.22,2.11 2.58,3.01 l 2.73,4.57 0.06,0.41 0.25,0.32 c 0.75,0.96 1.29,1.97 1.81,2.96 0.13,0.25 0.26,0.49 0.38,0.72 l 0.43,0.78 14.74,-0.07 0.41,2.1 c 0.43,2.18 -0.74,3.61 -1.28,4.28 l -5.1,8.68 8.08,14.1 z"
       id="path3" />
  </g>
</svg>
