<?xml version="1.0" encoding="UTF-8" standalone="no"?>
<svg style="opacity:.3"
   viewBox="0.00 -1.44 149.72 149.72"
   version="1.1"
   id="svg4"
   width="149.72"
   height="149.72"
   xmlns="http://www.w3.org/2000/svg"
   xmlns:svg="http://www.w3.org/2000/svg"><defs><filter id="thin" x="-20%" y="-20%" width="140%" height="140%"><feMorphology operator="erode" radius="0.7"/></filter></defs>
  <defs
     id="defs4" />
  <g filter="url(#thin)"
     fill="#5f808c"
     id="g4"
     transform="translate(-52.62997,-317)">
    <path
       d="m 192.01,401.72 c 0.44,-0.57 0.78,-1.07 1.09,-1.56 1.51,-0.86 2.94,-1.97 4.35,-3.38 l 4.9,-4.88 -3.89,-5.72 c -0.74,-1.09 -2.37,-3.08 -5.05,-4.37 l -2.07,-2.68 c -0.4,-0.52 -0.79,-0.99 -1.19,-1.44 0.43,-1.19 0.69,-2.42 0.77,-3.67 0.26,-0.51 0.48,-1.04 0.67,-1.59 2.26,-2.54 3.92,-6.67 2.04,-10.97 -0.91,-2.07 -3.31,-5.59 -9.16,-5.97 l -0.25,-0.08 -0.73,-0.91 -3.39,-1.17 c -0.06,-1.33 -0.31,-2.64 -0.76,-3.85 0,-0.29 0,-0.73 0.01,-1 1.38,-3.99 0.43,-6.87 -0.63,-8.59 -1.73,-2.83 -4.87,-4.45 -8.59,-4.45 -0.76,0 -1.51,0.07 -2.23,0.21 l -6.19,-0.13 c -0.07,0 -0.13,0 -0.2,0 -0.44,-0.94 -0.95,-1.78 -1.52,-2.55 0.23,-1.37 0.13,-2.79 -0.29,-4.15 -0.89,-2.87 -3.11,-5.21 -5.94,-6.28 -1.17,-0.44 -2.38,-0.66 -3.62,-0.66 -2.81,0 -5.59,1.2 -7.68,3.3 -0.05,0.02 -0.11,0.05 -0.16,0.07 -1.22,0.13 -2.44,0.42 -3.64,0.85 -0.76,-0.8 -1.74,-1.67 -3.03,-2.39 -0.08,-0.14 -0.17,-0.28 -0.25,-0.42 -0.37,-0.62 -0.79,-1.33 -1.34,-2.1 -2.29,-3.19 -5.26,-4.03 -7.35,-4.17 -0.22,-0.02 -0.44,-0.02 -0.65,-0.02 -2.44,0 -4.61,0.88 -6.41,2.56 -1.09,0.92 -1.98,2.07 -2.64,3.44 l -3.71,3.34 c 0,0 -0.03,0 -0.05,-0.01 -0.18,-0.05 -0.36,-0.11 -0.54,-0.17 l -2.89,-0.94 c -2.23,-2.56 -5.51,-3.48 -7.92,-3.48 -4.52,0 -8.28,3.02 -9.14,7.33 l -0.82,4.11 -0.61,1.22 c -0.18,0.35 -0.37,0.73 -0.57,1.14 -0.77,0.03 -1.51,0.1 -2.23,0.16 -0.82,0.07 -1.59,0.14 -2.24,0.14 -0.3,0 -0.55,-0.01 -0.69,-0.03 -0.79,-0.31 -2.29,-0.85 -4.22,-0.85 -1.82,0 -3.63,0.5 -5.22,1.43 l -5.08,2.98 1.11,5.78 c 0.12,0.62 0.24,1.21 0.37,1.82 0.15,0.73 0.32,1.55 0.4,2.11 -0.4,1.32 -0.64,2.68 -0.72,4.06 l -4,2.21 -1.99,0.71 c -5.03,0.57 -7.01,4.02 -7.64,5.49 -1.5,3.55 -0.81,7.49 1.85,10.54 0.12,0.13 0.24,0.26 0.36,0.4 0.35,1.54 0.8,3.39 1.61,5.21 -0.04,0.06 -0.07,0.11 -0.11,0.17 -1.34,1.17 -2.16,2.45 -2.62,3.19 -0.1,0.09 -0.22,0.2 -0.34,0.31 -4.22,1.99 -6.72,5.52 -6.71,9.49 v 0.79 c 0,0 0.22,1.11 0.22,1.11 0.75,3.18 2.84,5.6 6.2,7.2 l 1.37,1.4 1.05,1.48 c 0.22,0.3 0.46,0.6 0.71,0.88 -0.3,0.92 -0.49,1.86 -0.57,2.79 -0.37,0.64 -0.69,1.32 -0.97,2.02 -2.74,2.67 -3.25,6.54 -2.84,9.12 0.56,3.48 2.92,6.25 6.16,7.22 l 4.65,1.4 3.43,1.74 0.06,0.03 c 0.06,0.9 0.17,1.84 0.34,2.79 0.08,0.47 0.18,0.94 0.27,1.39 0.02,0.11 0.05,0.22 0.07,0.34 -2.66,6.54 1.36,10.36 2.67,11.39 2.81,2.2 6.44,2.76 9.86,1.47 0.63,-0.02 1.4,0 2.21,0.02 0.98,0.02 1.92,0.04 2.98,0.02 0.42,0.88 0.92,1.73 1.49,2.55 0.2,0.73 0.19,0.97 0.19,0.98 -0.18,3.6 1.3,5.95 2.57,7.28 1.76,1.85 4.2,2.88 6.87,2.88 0.64,0 1.28,-0.06 1.97,-0.17 2.18,-0.37 4.13,-1.32 5.66,-2.75 l 4.21,-1.26 c 0,0 0.08,-0.02 0.12,-0.04 1.04,1.07 2.11,1.99 2.99,2.76 l 0.69,0.6 0.75,1.15 c 1.82,2.8 4.66,4.36 8,4.41 h 0.15 c 3.72,0 5.94,-1.98 6.67,-2.63 1.06,-0.94 1.91,-2.09 2.53,-3.42 0.35,-0.31 0.67,-0.63 0.97,-0.98 0.96,-0.52 1.84,-1.15 2.63,-1.88 0.99,0.46 2.11,0.81 3.34,1.04 0.41,0.27 0.82,0.51 1.24,0.71 0.72,0.7 1.52,1.34 2.37,1.91 l 4.91,3.23 4.7,-3.53 c 4.11,-3.09 4.47,-7.45 4.59,-8.86 l 0.8,-2.7 0.43,-0.66 c 0.13,-0.2 0.25,-0.4 0.37,-0.6 0.66,0 1.34,-0.02 2.02,-0.03 h 0.12 c 0.47,-0.02 0.96,-0.03 1.44,-0.03 1.16,0 1.93,0.09 2.59,0.29 0.89,0.27 1.81,0.41 2.75,0.41 2.81,0 5.55,-1.25 7.53,-3.44 2.26,-2.5 2.98,-5.81 1.91,-8.85 -0.2,-0.56 -0.45,-1.1 -0.76,-1.61 0.47,-1.32 0.74,-2.69 0.82,-4.09 1.09,-0.46 2.07,-0.97 2.95,-1.43 1.27,-0.66 2.36,-1.22 3.19,-1.35 3.76,-0.56 5.81,-2.57 6.86,-4.16 1.05,-1.58 2.11,-4.23 1.18,-7.86 -0.55,-2.14 -1.64,-3.91 -3.25,-5.26 l -0.35,-1.27 c -0.21,-0.78 -0.44,-1.63 -0.74,-2.53 0.77,-0.81 1.34,-1.58 1.75,-2.13 l 0.29,-0.38 z m -1.07,-3.79 -0.21,0.36 c -0.3,0.51 -0.64,1.01 -1.12,1.63 l -0.3,0.4 c -0.49,0.66 -1.16,1.56 -2.09,2.42 l -0.74,0.68 0.35,0.94 c 0.41,1.11 0.71,2.22 0.98,3.21 l 0.62,2.23 0.41,0.31 c 1.3,0.98 2.14,2.27 2.57,3.94 0.66,2.56 -0.06,4.38 -0.77,5.46 -0.72,1.08 -2.14,2.45 -4.8,2.85 -1.33,0.2 -2.62,0.87 -4.13,1.65 -1.06,0.55 -2.26,1.17 -3.57,1.66 l -0.99,0.37 v 1.05 c 0.03,1.6 -0.27,3.16 -0.87,4.64 l -0.11,0.27 v 0.29 c 0,0.09 0,0.17 0,0.25 l 0.03,0.44 0.26,0.36 c 0.32,0.44 0.58,0.93 0.77,1.46 0.7,1.99 0.21,4.17 -1.3,5.84 -1.87,2.06 -4.71,2.93 -7.18,2.17 -0.96,-0.29 -1.99,-0.42 -3.47,-0.42 -0.52,0 -1.02,0.01 -1.52,0.03 h -0.12 c -0.93,0.03 -1.81,0.05 -2.78,0.02 l -0.97,-0.03 -0.43,0.87 c -0.19,0.38 -0.41,0.76 -0.65,1.13 l -0.67,1.03 -0.96,3.21 -0.07,0.49 c -0.11,1.33 -0.37,4.45 -3.41,6.73 l -3.01,2.26 -3.14,-2.07 c -0.77,-0.5 -1.45,-1.06 -2.08,-1.7 l -0.19,-0.19 -0.25,-0.11 c -0.44,-0.2 -0.87,-0.45 -1.3,-0.76 l -0.28,-0.2 -0.34,-0.06 c -1.44,-0.24 -2.68,-0.67 -3.67,-1.26 l -1.06,-0.64 -0.83,0.92 c -0.82,0.91 -1.78,1.65 -2.87,2.2 l -0.28,0.14 -0.2,0.25 c -0.3,0.38 -0.65,0.72 -1.03,1.04 l -0.28,0.23 -0.14,0.33 c -0.46,1.06 -1.1,1.97 -1.92,2.7 -0.57,0.51 -2.1,1.87 -4.67,1.87 h -0.12 c -2.34,-0.04 -4.25,-1.09 -5.52,-3.05 l -0.97,-1.49 -1.01,-0.88 c -1.07,-0.93 -2.28,-1.97 -3.41,-3.23 l -0.69,-0.76 -0.96,0.36 c -0.29,0.11 -0.58,0.21 -0.88,0.3 l -4.93,1.48 -0.27,0.27 c -1.12,1.14 -2.62,1.89 -4.32,2.18 -0.52,0.09 -1,0.13 -1.47,0.13 -1.84,0 -3.51,-0.69 -4.7,-1.94 -0.87,-0.91 -1.87,-2.53 -1.74,-5.07 0.03,-0.52 -0.09,-1.22 -0.37,-2.19 l -0.07,-0.25 -0.15,-0.21 c -0.71,-1 -1.29,-2.06 -1.75,-3.15 l -0.41,-0.99 -1.07,0.06 c -1.4,0.08 -2.5,0.05 -3.83,0.02 -0.9,-0.02 -1.86,-0.04 -2.59,0 h -0.26 c 0,0 -0.24,0.11 -0.24,0.11 -2.52,1.02 -5.1,0.65 -7.14,-0.95 -1.43,-1.12 -3.54,-3.65 -1.67,-8.05 l 0.28,-0.62 -0.08,-0.46 c -0.05,-0.27 -0.11,-0.58 -0.17,-0.84 -0.09,-0.42 -0.17,-0.85 -0.25,-1.3 -0.2,-1.15 -0.31,-2.26 -0.34,-3.32 l -0.02,-1.03 -0.97,-0.35 c -0.23,-0.08 -0.46,-0.18 -0.67,-0.29 l -3.55,-1.8 -5.02,-1.53 c -2.13,-0.64 -3.69,-2.49 -4.06,-4.82 -0.33,-2.07 0.21,-4.93 2.16,-6.67 l 0.28,-0.25 0.13,-0.35 c 0.28,-0.77 0.63,-1.49 1.03,-2.16 l 0.2,-0.33 0.02,-0.38 c 0.05,-1.04 0.29,-2.09 0.72,-3.11 l 0.33,-0.79 -0.52,-0.69 -0.28,-0.33 c -0.35,-0.32 -0.65,-0.65 -0.92,-1.02 l -1.12,-1.57 -1.98,-2.06 -0.26,-0.12 c -2.66,-1.21 -4.23,-2.94 -4.78,-5.28 l -0.14,-0.6 v -0.61 c -0.02,-4.19 3.97,-6.31 5.19,-6.86 l 0.25,-0.11 0.2,-0.2 c 0.21,-0.21 0.4,-0.38 0.55,-0.52 l 0.22,-0.23 0.12,-0.2 c 0.42,-0.67 1.11,-1.78 2.25,-2.73 l 0.19,-0.16 0.13,-0.21 c 0.17,-0.29 0.37,-0.57 0.58,-0.83 l 0.62,-0.77 -0.46,-0.88 c -0.09,-0.18 -0.18,-0.35 -0.27,-0.54 -0.81,-1.76 -1.22,-3.58 -1.58,-5.19 l -0.1,-0.43 -0.31,-0.31 c -0.18,-0.18 -0.36,-0.37 -0.53,-0.56 -1.89,-2.16 -2.39,-4.92 -1.35,-7.39 0.52,-1.24 1.91,-3.36 5.35,-3.69 l 2.63,-0.89 4.01,-2.19 1.83,-0.48 v -1.16 c -0.01,-1.57 0.22,-3.12 0.7,-4.6 l 0.09,-0.28 -0.02,-0.3 c -0.06,-0.72 -0.27,-1.75 -0.49,-2.79 -0.12,-0.55 -0.24,-1.13 -0.35,-1.73 l -0.71,-3.7 3.25,-1.91 c 1.14,-0.67 2.42,-1.02 3.71,-1.02 1.48,0 2.59,0.44 3.26,0.7 l 0.28,0.08 c 0.94,0.18 2.37,0.09 3.87,-0.04 0.95,-0.08 1.93,-0.17 2.95,-0.17 h 0.97 c 0,0 0.39,-0.89 0.39,-0.89 0.31,-0.69 0.62,-1.31 0.92,-1.91 l 0.78,-1.55 0.9,-4.51 c 0.57,-2.9 3.12,-4.92 6.19,-4.92 1.73,0 4.3,0.71 5.86,2.7 l 0.28,0.36 3.74,1.22 c 0.2,0.06 0.4,0.12 0.64,0.2 0.24,0.07 0.5,0.15 0.79,0.24 l 0.85,0.28 0.65,-0.62 c 0.14,-0.13 0.29,-0.27 0.43,-0.4 l 4.32,-3.9 0.13,-0.29 c 0.49,-1.09 1.14,-1.97 2.04,-2.72 1.3,-1.21 2.75,-1.8 4.42,-1.8 0.14,0 0.29,0 0.45,0.01 1.45,0.1 3.51,0.68 5.12,2.93 0.47,0.66 0.86,1.31 1.21,1.9 0.16,0.26 0.35,0.58 0.5,0.82 l 0.22,0.34 0.36,0.18 c 1.47,0.75 2.44,1.77 3.2,2.67 l 0.72,0.86 1.03,-0.45 c 1.32,-0.58 2.66,-0.93 4,-1.05 l 0.29,-0.02 0.26,-0.13 c 0.17,-0.08 0.34,-0.16 0.52,-0.24 l 0.3,-0.12 0.22,-0.24 c 2.19,-2.33 5.48,-3.17 8.28,-2.12 1.97,0.74 3.51,2.37 4.13,4.36 0.33,1.08 0.37,2.2 0.09,3.25 l -0.2,0.75 0.49,0.59 c 0.77,0.92 1.39,2 1.92,3.28 l 0.39,0.96 1.04,-0.03 c 0.38,-0.01 0.72,0 1.09,0 l 6.51,0.13 0.17,-0.04 c 0.57,-0.12 1.17,-0.18 1.79,-0.18 2.66,0 4.86,1.1 6.04,3.02 1.07,1.73 1.16,3.83 0.28,6.23 l -0.08,0.23 v 0.24 c -0.01,0.16 -0.03,1.57 -0.03,1.57 v 0.3 c 0,0 0.11,0.28 0.11,0.28 0.5,1.25 0.72,2.64 0.66,4.03 l -0.05,1.12 4.64,1.59 0.75,0.94 1.29,0.41 0.38,0.07 c 3.35,0.18 5.62,1.59 6.77,4.19 1.36,3.11 0.01,6.15 -1.7,7.96 l -0.24,0.25 -0.1,0.33 c -0.18,0.59 -0.42,1.16 -0.71,1.68 l -0.17,0.31 v 0.35 c -0.06,1.32 -0.37,2.62 -0.93,3.86 l -0.42,0.95 0.73,0.73 c 0.56,0.55 1.09,1.16 1.62,1.86 l 2.02,2.63 0.64,0.7 0.28,0.13 c 1.59,0.72 3.08,1.98 4.09,3.46 l 2.49,3.66 -3.14,3.13 c -1.31,1.31 -2.63,2.31 -4.02,3.07 l -0.37,0.2 z"
       id="path1" />
    <path
       d="m 172.78,381 v -0.23 c 0,0 -2.29,-6.72 -2.29,-6.72 -0.28,-0.88 -0.76,-2 -1.14,-2.65 l -5.32,-9.17 -3.05,-3.97 -0.16,-0.12 c -0.65,-0.49 -1.22,-1.08 -1.71,-1.75 l -0.2,-0.27 -0.3,-0.16 c -1.57,-0.84 -2.65,-1.97 -3.3,-2.65 l -3.69,-2.74 -2.22,-1.38 -4.1,-2.28 -0.09,-0.05 c -0.11,-0.05 -0.23,-0.1 -0.43,-0.19 -0.75,-0.32 -1.89,-0.8 -3.06,-1.67 l -0.33,-0.24 -2.72,-0.3 -5.47,-1.06 -4.8,-0.3 -0.39,0.23 c -1.75,1.03 -3.79,1.57 -5.89,1.57 -0.71,0 -1.41,-0.06 -2.09,-0.19 l -0.49,-0.09 -0.44,0.22 c -3.32,1.63 -7.36,2.53 -10.65,2.35 l -0.7,-0.02 -0.48,0.48 c -1.28,1.3 -2.98,2.07 -4.79,2.15 h -0.31 c 0,0 -0.28,0.15 -0.28,0.15 -0.34,0.16 -0.68,0.31 -1.03,0.43 l -0.29,0.1 -0.22,0.21 c -0.91,0.84 -1.8,1.37 -2.4,1.73 l -5.38,4.46 -0.16,0.15 c -0.35,0.39 -0.75,0.77 -1.2,1.13 l -0.21,0.17 -0.14,0.24 c -0.97,1.64 -2.37,3.58 -4.29,5.92 l -0.15,0.18 -0.09,0.22 c -0.33,0.84 -0.82,1.95 -1.68,3.07 l -0.17,0.22 -0.08,0.26 c -0.39,1.29 -1.03,2.46 -1.89,3.46 l -0.2,0.23 -2.06,6.57 -0.21,1.06 v 0.17 c 0.04,0.98 -0.13,1.98 -0.5,2.89 l -0.1,0.25 v 0.27 c -0.03,1.05 -0.13,2.65 -0.71,4.36 l -0.08,0.23 -0.04,5.64 c -0.02,2.87 0.08,5.83 0.93,8.05 l 2.82,7.34 c 2.36,6.16 6.32,11.92 11.46,16.64 l 0.37,0.34 0.51,0.05 c 2.11,0.19 4.1,1.17 5.61,2.74 l 0.16,0.17 1.23,0.66 c 4.77,2.58 9.93,5.12 15.38,6.31 l 2.2,0.48 1.01,1.16 0.98,-0.38 c 2.52,-0.98 5.71,-0.94 8.34,0.05 l 0.72,0.27 0.64,-0.43 c 2.08,-1.39 4.8,-1.85 7.28,-1.22 l 0.89,0.22 0.6,-0.69 c 1.17,-1.33 2.72,-2.25 4.48,-2.66 l 0.34,-0.08 0.27,-0.22 c 1.41,-1.16 3.09,-2.04 4.87,-2.54 l 0.38,-0.11 0.28,-0.28 c 2.11,-2.14 5.01,-3.6 7.77,-3.91 l 0.48,-0.05 0.36,-0.33 c 1.37,-1.25 2.79,-2.77 4.1,-4.41 2.36,-2.94 4.16,-6.67 6.07,-10.63 l 0.08,-0.17 c 0.28,-0.58 0.56,-1.16 0.84,-1.74 2.95,-6.02 3.5,-12.98 3.82,-19.6 v -0.23 c 0,0 -0.05,-0.22 -0.05,-0.22 -0.73,-2.8 -1.07,-5.02 -1.12,-7.19 z m -5.34,25.91 c -0.29,0.58 -0.57,1.17 -0.85,1.76 l -0.09,0.18 c -1.83,3.79 -3.56,7.37 -5.7,10.05 -1.11,1.38 -2.29,2.67 -3.44,3.75 -3.14,0.48 -6.37,2.11 -8.79,4.45 -1.92,0.59 -3.75,1.55 -5.31,2.78 -1.94,0.51 -3.68,1.49 -5.09,2.86 -2.81,-0.49 -5.74,0.02 -8.16,1.42 -1.49,-0.48 -3.06,-0.72 -4.68,-0.72 -1.43,0 -2.8,0.19 -4.09,0.58 l -0.31,-0.36 -3.17,-0.69 c -5.09,-1.1 -10.02,-3.54 -14.59,-6.01 l -0.82,-0.44 c -1.87,-1.87 -4.26,-3.07 -6.81,-3.42 -4.63,-4.35 -8.2,-9.59 -10.34,-15.18 l -2.82,-7.34 c -0.67,-1.76 -0.75,-4.38 -0.73,-6.96 l 0.03,-5.16 c 0.47,-1.45 0.72,-2.97 0.78,-4.75 0.43,-1.17 0.65,-2.44 0.62,-3.69 l 1.94,-6.39 c 0.98,-1.2 1.72,-2.56 2.2,-4.04 0.92,-1.25 1.48,-2.47 1.84,-3.36 1.88,-2.31 3.25,-4.19 4.27,-5.88 0.47,-0.39 0.89,-0.8 1.28,-1.22 l 4.84,-4.07 0.15,-0.09 c 0.54,-0.33 1.52,-0.92 2.57,-1.84 0.26,-0.1 0.51,-0.2 0.77,-0.32 2.23,-0.17 4.33,-1.07 6.02,-2.57 3.48,0.07 7.58,-0.85 11.04,-2.46 3.12,0.45 6.42,-0.12 9.14,-1.6 l 3.6,0.22 5.46,1.06 2.09,0.23 c 1.33,0.93 2.57,1.45 3.34,1.78 l 0.1,0.04 c 0.06,0.03 0.12,0.05 0.18,0.08 l 3.99,2.22 2.08,1.29 3.05,2.17 0.14,0.14 c 0.68,0.71 1.92,2.01 3.75,3.05 0.57,0.73 1.22,1.39 1.95,1.96 l 2.65,3.42 5.27,9.08 c 0.27,0.47 0.66,1.39 0.88,2.09 l 2.14,6.31 c 0.07,2.27 0.43,4.58 1.16,7.42 -0.31,6.23 -0.85,12.75 -3.51,18.2 z"
       id="path2" />
    <path
       d="m 152.07,367.61 -29.2,-0.12 H 93.91 c 0,0 -0.77,5.59 -0.77,5.59 -0.39,2.85 0.52,5.48 2.7,7.8 0.79,2.17 2,3.96 2.99,5.42 l 0.09,0.14 c 0.21,0.31 0.42,0.63 0.62,0.94 l 1.84,2.87 3.25,5.64 3.31,5.29 c 0.04,0.07 0.11,0.2 0.16,0.31 0.28,0.56 0.74,1.46 1.5,2.39 0.6,1.79 1.71,3.63 3.38,5.61 l 3.18,5.9 2.47,4.29 0.38,0.79 c 1.96,4.04 5.42,4.62 6.82,4.67 h 0.3 c 1.15,0 5.02,-0.35 6.91,-4.86 l 3.92,-6.28 1.09,-2.08 4.49,-7.92 c 0.17,-0.31 0.47,-0.72 0.78,-1.16 0.53,-0.75 1.19,-1.67 1.82,-2.82 l 1.55,-2.81 2.03,-2.96 1.28,-2.41 c 0.16,-0.31 0.45,-0.84 0.7,-1.54 0.97,-1.06 1.59,-2.14 1.97,-2.8 l 2.86,-4.96 c 0.69,-0.81 1.22,-1.71 1.58,-2.71 1.34,-1.68 2.02,-3.97 1.77,-6.07 -0.42,-3.55 -3.28,-6.14 -6.82,-6.15 z m 2.58,10.5 -0.2,0.23 -0.09,0.29 c -0.25,0.76 -0.64,1.45 -1.18,2.05 l -3.11,5.33 c -0.39,0.67 -0.92,1.59 -1.76,2.46 l -0.25,0.25 -0.11,0.34 c -0.19,0.6 -0.44,1.07 -0.6,1.38 l -1.15,2.19 -2.03,2.95 -1.66,3.01 c -0.55,1 -1.15,1.85 -1.64,2.53 -0.35,0.5 -0.69,0.97 -0.94,1.41 l -4.52,7.96 -1.03,1.97 -3.96,6.34 -0.12,0.23 c -1.09,2.71 -3.09,3.11 -4.18,3.11 h -0.18 c -1.06,-0.05 -3.03,-0.49 -4.24,-2.99 l -0.41,-0.84 -2.53,-4.39 -3.23,-6 -0.18,-0.26 c -1.53,-1.79 -2.54,-3.46 -3,-4.97 l -0.09,-0.31 -0.21,-0.24 c -0.64,-0.73 -1.03,-1.5 -1.29,-2.02 -0.09,-0.18 -0.22,-0.42 -0.27,-0.52 l -3.3,-5.28 -3.26,-5.65 -1.87,-2.93 c -0.21,-0.33 -0.43,-0.66 -0.66,-1 l -0.09,-0.14 c -0.98,-1.45 -2.09,-3.1 -2.75,-5.03 l -0.11,-0.33 -0.24,-0.25 c -1.08,-1.09 -2.47,-2.85 -2.1,-5.52 l 0.41,-2.99 h 26.34 c 0,0 29.19,0.11 29.19,0.11 1.99,0 3.61,1.48 3.85,3.5 0.16,1.37 -0.33,2.93 -1.25,3.99 z"
       id="path3" />
    <path
       d="m 142.14,381.54 -0.52,-1.28 -0.12,-0.16 c -0.49,-0.63 -0.95,-1.3 -1.43,-2.03 l -0.13,-0.19 -0.18,-0.15 c -0.79,-0.65 -1.5,-1.4 -2.09,-2.24 l -0.51,-0.71 -0.87,0.09 c -0.35,0.04 -0.65,0.05 -0.88,0.05 -2.67,0 -5.23,-1.15 -7.03,-3.15 -0.1,-0.11 -0.2,-0.22 -0.29,-0.34 l -0.43,-0.52 -0.67,-0.03 c -2.48,-0.1 -5.08,0.4 -7.66,1.49 -3.32,1.4 -6.59,4.34 -9.21,8.28 -0.84,1.27 -1.37,3.53 -1.81,7.81 l -0.02,0.19 0.43,2.91 0.37,0.36 c 1.52,1.45 2.79,3.36 3.77,5.67 l 0.08,0.19 0.13,0.16 c 1.31,1.63 2.3,3.35 2.92,5.12 l 0.14,0.39 0.58,0.49 0.22,0.09 c 0.87,0.37 1.73,0.85 2.61,1.47 l 0.25,0.18 3.39,0.72 6.87,-0.1 0.31,-0.16 c 0.79,-0.4 2,-0.97 3.41,-1.39 l 0.25,-0.07 0.21,-0.15 c 0.85,-0.62 1.72,-1.19 2.6,-1.69 l 0.66,-0.37 0.09,-0.75 c 0.12,-1.02 0.36,-2.03 0.72,-3.02 0.96,-2.7 2.63,-5.01 4.81,-6.68 l 0.56,-0.43 0.21,-4.89 -0.04,-0.19 c -0.33,-1.5 -1.01,-3.18 -1.73,-4.96 z m -1.37,8.53 c -2.37,1.98 -4.18,4.6 -5.26,7.61 -0.34,0.96 -0.6,1.94 -0.76,2.93 -0.69,0.42 -1.38,0.87 -2.05,1.35 -1.36,0.42 -2.52,0.95 -3.35,1.36 l -5.84,0.08 -2.47,-0.53 c -0.8,-0.55 -1.59,-1 -2.4,-1.38 -0.72,-1.83 -1.75,-3.6 -3.08,-5.28 -1.05,-2.42 -2.4,-4.46 -4.01,-6.1 l -0.23,-1.53 c 0.36,-3.4 0.79,-5.5 1.3,-6.27 2.3,-3.45 5.09,-6 7.88,-7.18 1.95,-0.82 3.88,-1.25 5.74,-1.27 2.37,2.57 5.7,4.04 9.17,4.04 0.1,0 0.21,0 0.32,0 0.58,0.72 1.23,1.39 1.94,1.98 0.44,0.66 0.87,1.27 1.31,1.86 l 0.37,0.91 c 0.64,1.58 1.24,3.08 1.54,4.3 l -0.13,3.1 z"
       id="path4" />
  </g>
</svg>
