<?xml version="1.0" encoding="UTF-8" standalone="no"?>
<svg style="opacity:.2"
   viewBox="0 0 165.84479 103.1"
   version="1.1"
   id="svg2"
   width="165.84479"
   height="103.1"
   xmlns="http://www.w3.org/2000/svg"
   xmlns:svg="http://www.w3.org/2000/svg">
  <defs
     id="defs2" />
  <g
     fill="#6a6386"
     id="g2"
     transform="translate(-43.612544,-199.26)">
    <path
       d="m 209.03,247.99 c -0.65,-2.03 -1.99,-3.75 -3.78,-4.86 -1.51,-1.27 -3.1,-1.99 -4.41,-2.46 -0.38,-0.64 -0.84,-1.34 -1.45,-2.07 l -2.32,-2.81 -2.66,-4.68 -2.17,-4.5 c -0.75,-1.54 -1.67,-2.87 -2.77,-3.94 -1.2,-3.46 -3.39,-5.31 -5.16,-6.28 l -2.46,-3.03 c -2.04,-2.52 -4.27,-3.69 -5.89,-4.55 l -2.98,-1.58 c -3.5,-1.86 -7.36,-2.8 -11.45,-2.8 -4.09,0 -7.51,0.9 -10.04,1.55 l -0.11,0.03 c -0.09,0.02 -0.19,0.05 -0.29,0.07 -1.93,-1.24 -3.95,-2.23 -5.99,-3.05 -0.66,-0.32 -1.41,-0.73 -2.17,-1.29 l -0.33,-0.24 -2.88,-0.32 c -0.76,-0.23 -1.51,-0.45 -2.26,-0.66 -1.24,-0.35 -2.54,-0.52 -3.74,-0.5 h -0.07 c -1.89,-0.67 -3.9,-0.76 -5.8,-0.76 -3.02,0 -7.63,0.37 -11.58,1.42 -5.04,0.65 -8.9,2.57 -12,4.11 -0.51,0.25 -1.22,0.61 -1.87,0.91 -1.59,-0.7 -3.33,-1.04 -5.05,-0.97 -1.09,-0.39 -2.26,-0.58 -3.51,-0.58 -1.35,0 -2.65,0.21 -4.17,0.46 -0.77,0.13 -1.64,0.27 -2.58,0.39 -5.85,0.76 -10.2,3.85 -13.38,6.11 -1.24,0.88 -2.14,1.77 -2.86,2.49 -0.27,0.27 -0.5,0.5 -0.7,0.67 -4.65,4.04 -7.26,9.07 -9.57,13.51 l -0.66,1.28 c -1.82,3.47 -4.02,6.91 -6.72,10.51 -1.45,1.18 -3.14,2.32 -4.77,3.23 -3.11,1.72 -4.95,4.99 -4.81,8.54 0.14,3.57 2.27,6.8 5.43,8.24 l 2.12,0.97 1.41,0.9 c 0.39,0.25 1.38,1.53 1.92,2.24 l 1.96,2.63 3.82,6.97 2.2,3.89 1.87,2.9 c 1.23,1.93 2.62,4.11 4.57,6.16 0.05,0.05 0.09,0.11 0.14,0.17 l 0.09,0.11 c 0.83,1.02 2.51,3.09 5.33,4.17 1.13,1.45 2.67,2.66 4.58,3.6 2.33,1.15 4.97,1.78 7.54,2.39 l 0.27,0.06 c 1.67,0.4 3.9,0.85 6.35,0.85 1.83,0 3.59,-0.26 5.23,-0.76 l 0.79,-0.09 2.65,-0.72 c 0.55,0.31 1.06,0.58 1.54,0.82 l 0.6,0.31 c 1.43,0.76 2.98,1.44 4.62,2.02 l 4.6,1.62 c 1.34,0.47 2.69,0.7 4.04,0.66 1.39,0.58 2.95,0.88 4.65,0.88 0.27,0 0.54,0 0.87,-0.02 l 5.11,-0.03 c 0.26,0 0.53,0.01 0.8,0.03 h 0.11 c 0.56,0.03 1.12,0.05 1.67,0.05 1.21,0 3.04,-0.08 5.05,-0.79 2.26,-0.14 4.02,-0.83 5.22,-1.3 0.25,-0.1 0.49,-0.2 0.65,-0.24 l 2.87,-0.88 3.84,-1.56 c 0.61,-0.25 1.77,-0.72 3.06,-1.57 l 0.4,0.16 2.51,0.58 0.59,0.04 c 1.47,0.52 3.08,0.79 4.79,0.79 1.71,0 3.04,-0.23 4.18,-0.41 l 0.64,-0.1 c 2.72,-0.42 5.81,-0.9 9.08,-2.51 l 0.45,-0.22 c 1.6,-0.78 3.99,-1.95 6.02,-4.08 2.18,-1.2 4.02,-2.91 5.33,-4.96 1.86,-1.43 2.85,-3.13 3.42,-4.11 l 2.5,-4.08 c 0.51,-0.83 0.92,-1.74 1.23,-2.7 0.86,-1.16 1.28,-2.31 1.48,-3.08 0.01,-0.05 0.03,-0.1 0.04,-0.15 0.56,-0.8 0.95,-1.54 1.22,-2.04 l 0.06,-0.12 c 0.03,-0.05 0.05,-0.1 0.08,-0.15 l 0.1,-0.14 c 0.6,-0.58 1.11,-1.24 1.52,-1.97 0.1,-0.17 0.34,-0.48 0.58,-0.8 0.64,-0.85 1.5,-1.99 2.2,-3.44 l 3.5,-2.56 1.95,-1.25 c 3.61,-2.31 5.24,-6.72 3.97,-10.72 z m -110.27,45.78 -0.82,0.1 -0.28,0.06 c -1.39,0.44 -2.89,0.67 -4.46,0.67 -2.15,0 -4.15,-0.41 -5.66,-0.77 l -0.28,-0.07 c -2.4,-0.57 -4.87,-1.16 -6.9,-2.16 -1.63,-0.8 -2.89,-1.82 -3.75,-3.04 l -0.29,-0.4 -0.47,-0.16 c -2.27,-0.75 -3.66,-2.46 -4.41,-3.39 l -0.08,-0.09 c -0.08,-0.11 -0.17,-0.21 -0.28,-0.33 -1.77,-1.87 -3.08,-3.92 -4.24,-5.74 l -1.83,-2.83 -2.15,-3.8 -3.85,-7.04 -1.86,-2.54 -0.32,-0.41 c -1.11,-1.44 -1.9,-2.42 -2.67,-2.92 l -1.5,-0.96 -2.41,-1.11 c -2.14,-0.97 -3.58,-3.18 -3.67,-5.63 -0.09,-2.41 1.16,-4.63 3.27,-5.8 1.85,-1.02 3.75,-2.32 5.37,-3.65 l 0.24,-0.25 c 2.85,-3.79 5.17,-7.4 7.09,-11.07 l 0.67,-1.28 c 2.18,-4.2 4.65,-8.97 8.87,-12.63 0.24,-0.21 0.52,-0.48 0.84,-0.8 0.64,-0.64 1.45,-1.43 2.49,-2.17 2.92,-2.08 6.92,-4.92 12.02,-5.58 0.98,-0.13 1.89,-0.28 2.7,-0.41 1.38,-0.23 2.56,-0.42 3.67,-0.42 0.99,0 1.9,0.17 2.72,0.49 l 0.32,0.13 0.34,-0.02 c 0.4,-0.03 0.81,-0.03 1.21,0 l -0.15,0.13 c -1,0.91 -1.96,1.49 -2.6,1.88 l -5.82,4.82 -0.16,0.15 c -0.38,0.43 -0.83,0.85 -1.32,1.24 l -0.21,0.17 -0.14,0.24 c -1.05,1.77 -2.57,3.88 -4.66,6.42 l -0.15,0.18 -0.09,0.22 c -0.36,0.92 -0.9,2.13 -1.83,3.35 l -0.17,0.22 -0.08,0.26 c -0.43,1.42 -1.12,2.69 -2.07,3.79 l -0.2,0.23 -2.22,7.08 -0.22,1.13 v 0.17 c 0.05,1.08 -0.14,2.17 -0.55,3.17 l -0.1,0.25 v 0.27 c -0.03,1.15 -0.14,2.9 -0.78,4.76 l -0.08,0.23 -0.04,6.08 c -0.02,3.09 0.09,6.29 1,8.67 l 3.05,7.95 c 2.55,6.65 6.83,12.87 12.38,17.97 l 0.37,0.34 0.51,0.05 c 2.31,0.21 4.5,1.28 6.15,3.01 l 0.16,0.17 1.31,0.71 c 0.17,0.09 0.33,0.18 0.5,0.27 l -1.5,0.42 z m 51.7,-3.18 c -2.09,0.64 -4.07,1.68 -5.76,3.02 -2.11,0.55 -4,1.62 -5.53,3.12 -3.05,-0.55 -6.24,0 -8.86,1.53 -1.61,-0.52 -3.32,-0.79 -5.08,-0.79 -1.56,0 -3.06,0.22 -4.46,0.64 l -0.37,-0.42 -3.39,-0.73 c -5.52,-1.2 -10.87,-3.84 -15.83,-6.52 l -0.9,-0.49 c -2.01,-2.02 -4.6,-3.32 -7.36,-3.69 -5.04,-4.73 -8.92,-10.43 -11.25,-16.5 l -3.05,-7.95 c -0.74,-1.92 -0.82,-4.78 -0.8,-7.58 l 0.03,-5.6 c 0.65,-2.01 0.8,-3.85 0.84,-5.15 0.47,-1.27 0.7,-2.63 0.67,-3.98 l 0.09,-0.47 2.03,-6.49 c 1.06,-1.29 1.86,-2.76 2.38,-4.38 1,-1.36 1.61,-2.69 1.99,-3.64 2.05,-2.51 3.53,-4.56 4.63,-6.39 0.51,-0.42 0.97,-0.87 1.39,-1.33 l 5.25,-4.42 0.18,-0.11 c 0.59,-0.36 1.65,-1 2.78,-1.99 0.29,-0.11 0.58,-0.23 0.86,-0.36 2.43,-0.18 4.71,-1.16 6.5,-2.79 3.78,0.08 8.22,-0.92 11.98,-2.67 0.76,0.11 1.55,0.17 2.33,0.17 2.68,0 5.28,-0.65 7.56,-1.9 l 3.69,0.22 0.18,0.07 h 0.27 c 0,0 5.55,1.06 5.55,1.06 1.63,0.49 3.27,1.04 4.88,1.69 0.46,0.22 0.86,0.39 1.19,0.53 l 0.12,0.05 c 0.08,0.03 0.15,0.06 0.14,0.05 l 4.38,2.44 2.26,1.4 3.31,2.36 0.15,0.16 c 0.74,0.77 2.08,2.17 4.05,3.29 0.62,0.8 1.33,1.51 2.11,2.13 l 2.88,3.72 5.71,9.84 c 0.3,0.52 0.73,1.53 0.97,2.28 l 2.33,6.85 c 0.08,2.47 0.47,4.97 1.25,8.04 -0.33,6.77 -0.92,13.85 -3.81,19.76 -0.28,0.57 -0.55,1.13 -0.83,1.71 l -0.18,0.38 c -1.98,4.11 -3.86,7.99 -6.19,10.91 -1.21,1.51 -2.5,2.92 -3.77,4.1 -3.4,0.51 -6.9,2.27 -9.51,4.81 z m 52.97,-34.4 -2.03,1.3 -4.21,3.08 -0.16,0.36 c -0.59,1.32 -1.39,2.38 -2.05,3.26 -0.37,0.49 -0.63,0.84 -0.77,1.1 -0.28,0.5 -0.64,0.96 -1.07,1.35 l -0.5,0.64 c -0.07,0.12 -0.14,0.24 -0.2,0.37 l -0.05,0.09 c -0.27,0.5 -0.63,1.2 -1.16,1.92 l -0.19,0.26 -0.07,0.32 c -0.02,0.11 -0.05,0.22 -0.08,0.33 -0.14,0.55 -0.45,1.38 -1.1,2.2 l -0.18,0.23 -0.08,0.28 c -0.24,0.81 -0.58,1.57 -1,2.26 l -2.38,3.88 -0.18,0.31 c -0.49,0.84 -1.3,2.24 -2.8,3.32 l -0.24,0.18 -0.16,0.26 c -1.08,1.76 -2.64,3.22 -4.56,4.25 l -0.23,0.12 -0.18,0.19 c -1.69,1.83 -3.78,2.85 -5.31,3.6 l -0.46,0.22 c -2.85,1.41 -5.7,1.85 -8.21,2.24 l -0.65,0.1 c -1.04,0.17 -2.33,0.37 -3.71,0.37 -1.38,0 -2.78,-0.23 -3.98,-0.69 l -0.25,-0.09 h -0.66 c 0,0 -2,-0.45 -2,-0.45 l -0.46,-0.18 0.18,-0.19 c 2.3,-2.34 5.47,-3.94 8.49,-4.27 l 0.48,-0.05 0.36,-0.33 c 1.48,-1.35 3.02,-3 4.43,-4.76 2.55,-3.18 4.5,-7.21 6.56,-11.48 l 0.18,-0.38 c 0.27,-0.57 0.55,-1.13 0.82,-1.69 3.18,-6.5 3.78,-14.02 4.13,-21.16 v -0.23 c 0,0 -0.05,-0.22 -0.05,-0.22 -0.79,-3.04 -1.17,-5.45 -1.22,-7.81 v -0.23 c 0,0 -2.47,-7.25 -2.47,-7.25 -0.3,-0.94 -0.81,-2.14 -1.22,-2.85 l -5.76,-9.93 -3.29,-4.27 -0.16,-0.12 c -0.71,-0.54 -1.34,-1.19 -1.88,-1.92 l -0.2,-0.27 -0.3,-0.16 c -1.72,-0.92 -2.9,-2.15 -3.6,-2.89 l -0.27,-0.28 -2.9,-2.09 c 2.03,-0.47 4.45,-0.9 7.07,-0.9 3.6,0 6.98,0.83 10.05,2.45 l 2.98,1.58 c 1.55,0.82 3.3,1.75 4.96,3.79 l 2.86,3.52 0.28,0.14 c 1.35,0.69 3.16,2.12 4.07,5.03 l 0.12,0.38 0.3,0.27 c 0.94,0.86 1.74,1.97 2.39,3.31 l 2.2,4.55 2.8,4.93 2.56,3.13 c 0.62,0.75 1.08,1.5 1.45,2.15 l 0.28,0.49 0.53,0.18 c 1.25,0.42 2.7,1 4.04,2.16 l 0.21,0.15 c 1.22,0.73 2.14,1.89 2.58,3.27 0.86,2.71 -0.27,5.71 -2.73,7.29 z"
       id="path1" />
    <path
       d="m 100.17,231.88 3.07,4.92 c 0.8,1.28 1.38,2.71 1.76,4.35 l 0.08,0.35 0.23,0.28 c 1.22,1.45 2.13,2.91 2.78,4.02 l 6.61,11.29 c 1.17,2 2.42,4.17 3.67,6.58 0.11,0.19 0.31,0.48 0.7,1.02 0.95,1.32 2.24,3.12 3.03,5.65 l 0.05,0.14 c 0.19,0.45 0.36,0.9 0.49,1.33 l 0.09,0.28 0.19,0.23 c 0.44,0.54 0.85,1.12 1.2,1.72 l 0.12,0.21 0.19,0.16 c 0.21,0.18 0.42,0.38 0.62,0.59 l 1.56,1.65 0.91,-2.08 c 0.61,-1.41 1.35,-2.47 1.79,-3.1 l 0.08,-0.11 c 0.12,-0.17 0.24,-0.34 0.35,-0.53 l 13.68,-23.13 c 0.12,-0.21 0.33,-0.62 0.52,-1.02 0.39,-0.81 0.93,-1.93 1.75,-3.14 0.08,-0.14 0.33,-0.62 0.55,-1.08 0.61,-1.26 1.45,-2.98 2.87,-4.61 l 0.2,-0.22 0.09,-0.28 c 0.35,-1.05 0.92,-2.08 1.67,-3.07 l 1.84,-2.41 -44.08,-0.06 z m 47.02,2.98 c -0.2,0.41 -0.38,0.82 -0.53,1.24 -1.56,1.85 -2.49,3.77 -3.15,5.11 -0.14,0.28 -0.31,0.63 -0.34,0.7 -0.9,1.34 -1.52,2.61 -1.93,3.46 -0.15,0.31 -0.3,0.63 -0.4,0.8 l -13.68,23.13 c -0.07,0.11 -0.15,0.23 -0.23,0.34 l -0.09,0.13 c -0.24,0.35 -0.59,0.85 -0.96,1.48 -0.15,-0.2 -0.3,-0.41 -0.45,-0.6 -0.14,-0.42 -0.3,-0.85 -0.48,-1.28 -0.94,-2.95 -2.44,-5.04 -3.43,-6.43 -0.19,-0.26 -0.44,-0.61 -0.5,-0.7 -1.25,-2.42 -2.53,-4.63 -3.72,-6.67 l -6.61,-11.29 c -0.67,-1.15 -1.59,-2.64 -2.85,-4.17 -0.45,-1.8 -1.14,-3.45 -2.05,-4.91 l -0.23,-0.37 3.28,-0.03 38.35,0.05 z"
       id="path2" />
  </g>
</svg>
