<?xml version="1.0" encoding="UTF-8" standalone="no"?>
<svg
   viewBox="0 0 140.82082 137.94001"
   version="1.1"
   id="svg3"
   width="140.82082"
   height="137.94"
   xmlns="http://www.w3.org/2000/svg"
   xmlns:svg="http://www.w3.org/2000/svg">
  <defs
     id="defs3" />
  <g
     fill="#82627e"
     id="g3"
     transform="translate(-55.769183,-44.61)">
    <path
       d="m 164.28,107.45 -0.3,-0.83 c -0.6,-1.63 -1.43,-3.87 -1.82,-6.48 L 162.12,99.88 162,99.65 c -0.81,-1.52 -1.36,-2.95 -1.8,-4.11 l -1.4,0.53 1.35,-0.67 -0.09,-0.25 -0.17,-0.2 c -1.53,-1.78 -2.42,-3.53 -3.01,-4.69 l -0.29,-0.57 -0.61,-0.19 c -3.45,-1.04 -6.3,-3.51 -7.81,-6.78 L 148,82.34 147.66,82.11 c -0.7,-0.48 -1.32,-0.94 -1.92,-1.38 -0.85,-0.63 -1.37,-1.01 -1.68,-1.18 -4.53,-2.52 -8.13,-3.88 -11,-4.17 l -3.1,-0.31 -12.42,0.03 c -0.33,0 -1.59,0.07 -4.19,0.91 -0.75,0.25 -1.88,0.72 -3.03,1.22 l -0.92,0.39 c -0.43,0.18 -1.26,0.53 -1.94,0.84 l -0.31,0.19 c -2,1.55 -4.1,2.67 -6.26,3.31 l -0.54,0.16 -0.3,0.47 c -1.38,2.16 -3,3.89 -4.96,5.27 l -0.92,0.64 c -0.27,0.19 -0.63,0.43 -0.97,0.67 l -0.4,0.29 -0.15,0.47 c -0.47,1.43 -1.02,2.98 -1.9,4.65 l -0.24,0.46 0.09,0.51 c 0.41,2.27 0.35,4.59 -0.19,6.9 -0.3,1.3 -0.76,2.56 -1.35,3.74 l -0.17,0.33 v 0.54 c 0.08,2.16 -0.19,4.45 -0.75,6.64 l -0.1,0.38 0.1,0.38 c 1.12,4.15 1.72,9.39 1.55,13.66 l -0.03,0.82 0.68,0.47 c 2.79,1.94 5.04,4.74 6.68,8.32 l 0.17,0.37 0.34,0.23 c 1.65,1.15 3.03,2.56 4.08,4.2 0.48,0.75 0.9,1.55 1.23,2.38 l 0.14,0.34 0.28,0.24 c 0.73,0.62 1.39,1.28 1.97,1.96 l 0.23,0.28 5.87,2.43 0.26,0.08 c 0.31,0.07 0.93,0.16 1.4,0.24 1.74,0.27 3.91,0.61 6.28,1.54 l 0.25,0.1 h 0.53 c 0.76,0 1.55,-0.03 2.35,-0.07 h 0.24 c 1.17,-0.07 2.5,-0.14 3.89,-0.14 1.17,0 2.17,0.04 3.16,0.13 l 0.73,0.07 0.5,-0.53 c 2.28,-2.42 5.5,-3.81 8.85,-3.81 1.11,0 2.23,0.15 3.31,0.44 l 0.78,0.21 0.6,-0.53 c 1.53,-1.34 3.02,-2.16 3.9,-2.65 l 2.73,-2.25 0.13,-0.4 c 0.1,-0.31 0.21,-0.57 0.29,-0.77 1.11,-2.59 3.12,-4.71 5.67,-5.96 l 0.34,-0.17 2.4,-3.4 c 1,-1.42 1.85,-3.1 2.27,-4.5 l 0.86,-2.84 c 1.27,-4.19 1.74,-8.75 1.45,-13.93 l -0.2,-3.55 z m -4.11,16.61 -0.86,2.84 c -0.33,1.09 -1.04,2.49 -1.85,3.64 l -1.96,2.78 c -3.03,1.59 -5.42,4.17 -6.76,7.3 -0.07,0.17 -0.15,0.36 -0.23,0.58 l -1.73,1.45 c -0.84,0.46 -2.22,1.24 -3.7,2.44 -1.09,-0.24 -2.2,-0.36 -3.32,-0.36 -3.92,0 -7.71,1.53 -10.52,4.23 -0.86,-0.06 -1.74,-0.09 -2.72,-0.09 -1.47,0 -2.83,0.07 -4.06,0.13 h -0.23 c -0.73,0.05 -1.45,0.09 -2.15,0.09 -2.58,-0.97 -4.92,-1.34 -6.66,-1.61 -0.35,-0.06 -0.81,-0.13 -1.11,-0.18 l -5.07,-2.1 c -0.54,-0.62 -1.15,-1.21 -1.79,-1.78 -0.38,-0.88 -0.83,-1.73 -1.35,-2.53 -1.2,-1.86 -2.73,-3.47 -4.56,-4.8 -1.72,-3.62 -4.03,-6.53 -6.86,-8.68 0.08,-4.26 -0.51,-9.27 -1.57,-13.37 0.55,-2.27 0.82,-4.63 0.77,-6.86 0.62,-1.29 1.1,-2.66 1.43,-4.07 0.59,-2.54 0.69,-5.1 0.3,-7.61 0.75,-1.5 1.26,-2.89 1.7,-4.17 0.19,-0.13 0.39,-0.27 0.57,-0.39 l 0.91,-0.63 c 2.15,-1.51 3.94,-3.36 5.47,-5.65 2.28,-0.75 4.48,-1.94 6.57,-3.54 0.63,-0.28 1.35,-0.58 1.8,-0.77 l 0.93,-0.4 c 0.97,-0.42 2.08,-0.89 2.71,-1.09 2.27,-0.74 3.26,-0.76 3.26,-0.76 l 12.27,-0.03 2.95,0.29 c 2.46,0.25 5.68,1.49 9.84,3.8 0.21,0.12 1.07,0.76 1.41,1 0.49,0.36 1.03,0.76 1.63,1.18 1.81,3.66 5,6.47 8.87,7.81 0.61,1.17 1.53,2.83 2.94,4.52 0.44,1.16 0.98,2.57 1.8,4.13 0.45,2.8 1.31,5.11 1.94,6.82 l 0.15,0.4 0.18,3.1 c 0.28,4.83 -0.16,9.04 -1.32,12.89 z"
       id="path1" />
    <path
       d="m 193.53,108.57 c -1.12,-1.52 -2.35,-2.75 -3.75,-3.75 -0.18,-0.45 -0.38,-0.88 -0.61,-1.29 0.23,-0.98 0.33,-1.82 0.4,-2.42 l 0.02,-0.15 c 0.02,-0.15 0.03,-0.29 0.06,-0.43 l 0.22,-1.22 c 2.54,-4.68 0.57,-8.52 -0.41,-9.97 -1.83,-2.71 -4.51,-3.75 -5.84,-4.17 -0.47,-0.55 -1.01,-1.05 -1.59,-1.47 -0.19,-0.69 -0.39,-1.31 -0.54,-1.81 -0.07,-0.21 -0.14,-0.45 -0.21,-0.68 l 1.27,-4 -0.5,-2.2 c -0.74,-3.3 -3.57,-6.87 -9.26,-7.13 -0.36,-0.13 -0.72,-0.25 -1.07,-0.34 -0.12,-0.05 -0.3,-0.13 -0.49,-0.21 -1.1,-0.5 -2.85,-1.29 -5.12,-1.49 l -2.24,-4.94 c -0.27,-1.05 -0.72,-2.4 -1.79,-3.86 -2.56,-4.15 -6.19,-4.77 -8.14,-4.77 -0.88,0 -1.75,0.12 -2.61,0.37 -1.6,0.45 -2.78,1.26 -3.57,1.89 l -0.75,0.31 c -0.08,0 -0.15,0 -0.23,0 -0.29,0 -0.57,-0.01 -0.86,-0.01 -0.42,0 -1,0 -1.68,0.07 -1.22,-0.92 -2.66,-1.51 -4.19,-1.7 -0.61,-0.08 -1.24,-0.09 -1.87,-0.04 -0.65,-0.46 -1.35,-0.88 -2.13,-1.29 -0.45,-0.51 -0.96,-0.97 -1.51,-1.37 -0.61,-1.33 -1.45,-2.47 -2.49,-3.4 -1.82,-1.61 -4.14,-2.49 -6.55,-2.49 -3.81,0 -7.26,2.25 -8.78,5.72 -0.04,0.08 -0.07,0.17 -0.11,0.26 l -0.64,0.67 c -0.7,0.18 -1.37,0.43 -2.01,0.73 l -0.59,-0.58 -3.98,3.08 c -0.3,-0.04 -0.61,-0.08 -0.94,-0.1 -2.17,-0.88 -4.37,-1.11 -6.5,-0.69 l -0.12,-0.05 c -0.99,-0.44 -2.82,-1.27 -5.17,-1.27 -2.56,0 -4.98,0.98 -6.83,2.77 -2.15,2.08 -3.24,4.79 -3.24,8.07 -0.31,0.51 -0.7,1.18 -1.06,1.99 -0.6,0.06 -1.2,0.16 -1.8,0.3 l -1.05,-2.13 -7.67,4.23 c -4.13,2.28 -6.17,6.51 -5.46,11.31 l 0.21,1.01 c 0.05,0.2 0.1,0.4 0.15,0.59 -0.52,1.23 -0.86,2.56 -0.98,3.89 -0.13,0.08 -0.26,0.16 -0.38,0.24 l -2.46,-0.91 -3.77,4.59 c -2.22,2.7 -3.03,6.41 -2.16,9.91 0.25,1 0.62,1.96 1.11,2.84 0.07,0.91 0.23,1.79 0.48,2.62 -0.14,0.3 -0.27,0.6 -0.39,0.91 l -0.04,0.04 c -2.4,1.26 -4.22,3.33 -5.03,5.7 -1.21,3.55 -0.58,8.48 4.78,11.68 l 0.12,0.07 c 0.17,0.3 0.35,0.6 0.53,0.88 -0.17,0.59 -0.3,1.21 -0.39,1.87 -0.25,0.48 -0.56,1.14 -0.83,1.93 -1.71,2.22 -2.29,5.01 -1.59,7.7 1.33,5.15 6.35,6.96 9.03,7.83 0.27,0.24 0.55,0.49 0.87,0.75 l 0.74,2.91 0.02,0.77 c -0.22,0.72 -0.36,1.38 -0.47,1.88 l -1.2,5.01 3.29,3.31 c 2.79,2.8 6.27,3.47 8.77,3.69 l 0.59,0.34 c 1.61,0.92 3.39,1.48 5.4,1.69 0.18,0.28 0.34,0.51 0.45,0.67 0.1,0.15 0.18,0.27 0.23,0.36 v 0.88 c -0.02,2.98 0.98,5.53 2.97,7.58 1.71,1.76 3.98,2.73 6.39,2.73 1.45,0 2.86,-0.35 4.19,-1.04 0.36,-0.11 0.69,-0.22 1.01,-0.34 0.33,0.46 0.69,0.88 1.07,1.27 2.1,2.11 4.97,3.14 7.85,2.82 1.9,-0.22 3.76,-0.77 5.43,-1.61 l 1.23,0.69 c 1.69,3.23 4.12,5.15 7.21,5.72 0.57,0.1 1.15,0.16 1.73,0.16 1.86,0 6.36,-0.6 8.86,-6.03 0.61,-0.18 1.36,-0.42 2.17,-0.79 0.97,0.56 2.13,1.1 3.55,1.39 0.71,0.14 1.43,0.21 2.13,0.21 2.29,0 5.42,-0.72 7.87,-3.93 0.57,0.27 1.16,0.49 1.77,0.65 0.95,0.25 1.9,0.38 2.84,0.38 3.46,0 6.56,-1.73 8.29,-4.63 l 0.68,-1.14 1.21,-5.36 0.02,-0.03 c 0.17,-0.32 0.41,-0.78 0.65,-1.36 1.23,-0.22 2.21,-0.52 3.01,-0.77 l 0.31,-0.1 c 0.24,-0.07 0.91,-0.28 1.21,-0.35 0.31,0.01 0.63,0.02 0.96,0.02 6.62,0 9.14,-4.33 9.91,-6.2 1.2,-2.89 0.76,-5.57 0.19,-7.5 0.62,-1.16 1.02,-2.44 1.21,-3.87 l 0.12,-0.09 c 0.41,-0.33 0.84,-0.67 1.15,-0.87 l 0.31,-0.2 c 4.23,-0.84 6.48,-4.02 7.19,-6.76 1.09,-4.23 -0.52,-7.62 -1.21,-9.07 L 189,123.3 c 0.08,-0.15 0.17,-0.31 0.24,-0.47 2.08,-1.35 3.78,-3.22 4.94,-5.44 l 2.41,-4.61 -3.08,-4.19 z m -1.99,7.41 c -0.98,1.87 -2.44,3.43 -4.23,4.5 l -0.41,0.24 -0.19,0.43 c -0.18,0.41 -0.39,0.8 -0.62,1.15 l -0.41,0.64 1.54,4.05 c 0.04,0.08 0.08,0.18 0.14,0.3 l 0.06,0.12 c 0.64,1.35 1.83,3.86 1.01,7.04 -0.49,1.9 -2.08,4.11 -5.1,4.61 l -0.31,0.05 -0.83,0.55 c -0.42,0.27 -0.9,0.66 -1.38,1.05 l -1.09,0.85 -0.06,0.65 c -0.13,1.48 -0.52,2.73 -1.2,3.81 l -0.38,0.6 0.22,0.67 c 0.54,1.62 1.04,3.78 0.09,6.05 -0.67,1.62 -2.5,4.35 -7.14,4.35 -0.3,0 -0.59,-0.01 -0.87,-0.02 h -0.27 c 0,0 -0.13,0 -0.13,0 -0.38,0.05 -0.92,0.21 -1.79,0.47 l -0.31,0.09 c -0.78,0.24 -1.75,0.54 -2.93,0.73 -0.08,0.01 -0.17,0.03 -0.34,0.07 l -1.09,0.21 -0.28,0.82 c -0.26,0.76 -0.58,1.37 -0.83,1.85 l -0.16,0.3 -1.2,5.28 -0.44,0.73 c -1.52,2.54 -4.65,3.72 -7.79,2.89 -0.74,-0.2 -1.42,-0.5 -2.07,-0.93 l -0.31,-0.2 -1.46,-0.14 -0.49,0.81 c -1.45,2.41 -3.5,3.63 -6.08,3.63 -0.5,0 -1.02,-0.05 -1.54,-0.16 -1.31,-0.26 -2.34,-0.84 -3.26,-1.42 l -0.74,-0.47 -0.77,0.41 c -1.09,0.58 -2.12,0.87 -2.96,1.11 l -0.4,0.11 -0.6,0.62 -0.11,0.27 c -1.6,3.91 -4.33,4.73 -6.33,4.73 -0.39,0 -0.79,-0.04 -1.19,-0.11 -2.98,-0.54 -4.4,-2.77 -5.22,-4.41 l -0.1,-0.2 -0.15,-0.16 c -0.07,-0.08 -0.33,-0.35 -0.69,-0.57 l -2.83,-1.57 -0.74,0.43 c -1.49,0.87 -3.23,1.44 -5.02,1.64 -1.96,0.22 -3.93,-0.49 -5.38,-1.95 -0.41,-0.41 -0.78,-0.89 -1.11,-1.43 l -0.27,-0.44 -1.64,-0.62 -0.57,0.26 c -0.64,0.29 -1.22,0.47 -1.6,0.58 l -0.3,0.12 c -2.42,1.31 -5.29,0.85 -7.15,-1.06 -1.42,-1.47 -2.14,-3.31 -2.13,-5.47 v -1.49 c 0,0 -0.08,-0.25 -0.08,-0.25 -0.09,-0.24 -0.28,-0.65 -0.67,-1.22 -0.18,-0.26 -0.44,-0.64 -0.73,-1.14 l -0.4,-0.7 -0.81,-0.05 c -1.88,-0.12 -3.49,-0.57 -4.9,-1.37 l -1.17,-0.67 -0.34,-0.03 c -2.21,-0.17 -5.02,-0.64 -7.21,-2.84 l -2.11,-2.12 0.71,-2.91 c 0.03,-0.14 0.07,-0.28 0.1,-0.43 l 0.03,-0.12 c 0.11,-0.51 0.25,-1.15 0.46,-1.83 l 0.08,-0.24 -0.03,-1.46 -0.74,-2.92 v -0.47 c 0,0 -0.21,-0.96 -0.21,-0.96 l -0.46,-0.32 c -0.57,-0.39 -1.02,-0.8 -1.4,-1.16 l -0.25,-0.23 -0.32,-0.1 c -3.09,-1 -6.47,-2.36 -7.37,-5.83 -0.48,-1.85 -0.04,-3.77 1.19,-5.28 l 0.18,-0.22 0.09,-0.28 c 0.26,-0.82 0.6,-1.5 0.83,-1.93 l 0.13,-0.25 0.03,-0.28 c 0.09,-0.82 0.26,-1.55 0.51,-2.23 l 0.28,-0.76 -0.48,-0.65 c -0.34,-0.46 -0.66,-0.97 -0.95,-1.53 l -0.21,-0.39 -0.81,-0.46 c -4.68,-2.79 -3.99,-6.62 -3.48,-8.14 0.58,-1.7 1.94,-3.19 3.74,-4.09 l 0.21,-0.1 0.17,-0.16 c 0.13,-0.12 0.26,-0.25 0.39,-0.36 l 0.3,-0.26 0.13,-0.37 c 0.17,-0.49 0.38,-0.97 0.63,-1.41 l 0.33,-0.6 -0.23,-0.64 c -0.31,-0.84 -0.49,-1.77 -0.54,-2.76 l -0.02,-0.38 -0.19,-0.32 c -0.43,-0.72 -0.75,-1.5 -0.96,-2.34 -0.64,-2.59 -0.05,-5.32 1.57,-7.29 l 2.42,-2.94 1.96,0.72 0.65,-0.49 c 0.44,-0.33 0.92,-0.63 1.41,-0.89 l 0.76,-0.4 0.07,-1.19 c 0.07,-1.28 0.4,-2.57 0.96,-3.74 l 0.23,-0.48 -0.12,-0.51 c -0.08,-0.36 -0.19,-0.75 -0.3,-1.17 l -0.14,-0.66 c -0.52,-3.52 0.96,-6.6 3.95,-8.25 l 4.91,-2.71 0.8,1.63 1.25,-0.43 c 1.07,-0.37 2.1,-0.56 3.16,-0.57 h 1.04 c 0,0 0.35,-1 0.35,-1 0.42,-1.18 1,-2.11 1.38,-2.72 l 0.24,-0.39 v -0.46 c -0.1,-2.64 0.66,-4.7 2.3,-6.28 1.28,-1.24 2.97,-1.92 4.74,-1.92 1.77,0 3.05,0.6 3.98,1.02 l 1.04,0.44 0.48,-0.12 c 1.71,-0.42 3.52,-0.26 5.34,0.52 l 0.24,0.1 0.26,0.02 c 0.52,0.03 1,0.09 1.46,0.19 l 0.68,0.14 2.99,-2.31 0.36,0.35 1,-0.62 c 0.77,-0.47 1.61,-0.82 2.52,-1.02 l 0.29,-0.1 0.39,-0.2 1.49,-1.54 0.11,-0.28 c 0.06,-0.14 0.11,-0.28 0.17,-0.42 1.05,-2.39 3.42,-3.94 6.04,-3.94 1.67,0 3.29,0.62 4.56,1.74 0.82,0.73 1.44,1.62 1.89,2.71 l 0.18,0.43 0.39,0.25 c 0.48,0.31 0.91,0.68 1.29,1.12 l 0.33,0.4 0.27,0.14 c 0.93,0.47 1.73,0.96 2.44,1.5 l 0.5,0.38 0.62,-0.09 c 0.57,-0.08 1.13,-0.09 1.68,-0.02 1.16,0.15 2.24,0.64 3.12,1.42 l 0.52,0.46 0.68,-0.1 c 0.77,-0.11 1.46,-0.12 1.92,-0.12 0.26,0 0.53,0 0.79,0.01 0.19,0 0.39,0 0.59,0 h 0.3 l 1.71,-0.71 0.17,-0.14 c 0.63,-0.51 1.5,-1.13 2.67,-1.47 0.59,-0.17 1.19,-0.25 1.79,-0.25 1.62,0 3.9,0.59 5.61,3.39 l 0.08,0.11 c 0.94,1.26 1.23,2.43 1.37,2.99 l 3.16,7.02 h 0.96 c 2.11,0.03 3.72,0.76 4.94,1.31 0.25,0.11 0.56,0.25 0.71,0.3 l 0.14,0.04 c 0.34,0.08 0.68,0.2 1.03,0.34 l 0.25,0.1 h 0.27 c 5.23,0.15 6.44,3.72 6.68,4.81 l 0.32,1.41 -1.29,4.07 0.11,0.42 c 0.09,0.34 0.24,0.83 0.38,1.26 0.19,0.6 0.43,1.34 0.63,2.16 l 0.15,0.59 0.52,0.32 c 0.62,0.39 1.17,0.89 1.63,1.48 l 0.3,0.39 0.47,0.14 c 1.36,0.4 3.33,1.16 4.65,3.11 0.85,1.25 1.99,3.83 0.16,7.03 l -0.12,0.22 -0.31,1.7 c -0.04,0.22 -0.07,0.44 -0.09,0.67 l -0.02,0.14 c -0.08,0.67 -0.18,1.58 -0.47,2.59 l -0.19,0.66 0.37,0.57 c 0.31,0.48 0.57,1 0.8,1.65 l 0.16,0.5 0.44,0.29 c 1.28,0.85 2.4,1.93 3.41,3.31 l 1.97,2.69 -1.54,2.95 z"
       id="path2" />
    <path
       d="m 131.39,103.92 c -1.87,-1.22 -4.07,-1.86 -6.36,-1.86 -2.66,0 -5.17,0.89 -7.09,2.51 -2.11,1.54 -3.54,3.69 -4.15,6.22 -0.75,3.12 -0.15,6.43 1.71,9.33 l 0.25,0.39 c 2.06,3.23 5.79,5.23 9.73,5.23 2.21,0 4.34,-0.63 6.16,-1.81 l 0.16,-0.1 c 0.82,-0.53 2.35,-1.51 3.67,-3.38 2.87,-4.04 2.83,-9.07 -0.1,-12.82 -1.08,-1.68 -2.41,-2.93 -3.97,-3.72 z m 1.63,14.81 c -0.99,1.4 -2.11,2.11 -2.85,2.59 l -0.17,0.11 c -1.34,0.87 -2.91,1.33 -4.53,1.33 -2.92,0 -5.68,-1.47 -7.2,-3.85 l -0.25,-0.39 c -1.41,-2.21 -1.88,-4.7 -1.32,-7.02 0.45,-1.84 1.5,-3.41 3.04,-4.53 l 0.09,-0.07 c 1.38,-1.18 3.22,-1.83 5.19,-1.83 1.73,0 3.38,0.49 4.78,1.41 l 0.17,0.1 c 1.12,0.55 2.09,1.47 2.89,2.74 l 0.09,0.13 c 2.16,2.73 2.18,6.29 0.06,9.28 z"
       id="path3" />
  </g>
</svg>
