<svg viewBox="0 0 40 40" xmlns="http://www.w3.org/2000/svg">
  <g fill="none" stroke="#9C5542" stroke-width="1" stroke-linejoin="round" stroke-linecap="round"><path d="M 20.58 9.02 C 20.24 4.75 29.17 5.55 33.79 6.21 C 34.45 10.83 35.25 19.76 30.98 19.42"/><path d="M 30.98 20.58 C 35.25 20.24 34.45 29.17 33.79 33.79 C 29.17 34.45 20.24 35.25 20.58 30.98"/><path d="M 19.42 30.98 C 19.76 35.25 10.83 34.45 6.21 33.79 C 5.55 29.17 4.75 20.24 9.02 20.58"/><path d="M 9.02 19.42 C 4.75 19.76 5.55 10.83 6.21 6.21 C 10.83 5.55 19.76 4.75 19.42 9.02"/><circle cx="20" cy="20" r="11"/><rect x="13" y="13" width="14" height="14"/><path d="M 15 17 L 25 17 L 20 25.5 Z"/></g>
</svg>
