<svg viewBox="0 0 40 40" xmlns="http://www.w3.org/2000/svg">
  <g fill="none" stroke="#BA7A3F" stroke-width="1" stroke-linejoin="round" stroke-linecap="round"><path d="M 15.32 9.49 C 13.8 6.07 17.88 3.23 20.0 1.0 C 22.12 3.23 26.2 6.07 24.68 9.49"/><path d="M 26.76 10.7 C 28.96 7.66 33.46 9.78 36.45 10.5 C 35.58 13.45 35.17 18.41 31.44 18.8"/><path d="M 31.44 21.2 C 35.17 21.59 35.58 26.55 36.45 29.5 C 33.46 30.22 28.96 32.34 26.76 29.3"/><path d="M 24.68 30.51 C 26.2 33.93 22.12 36.77 20.0 39.0 C 17.88 36.77 13.8 33.93 15.32 30.51"/><path d="M 13.24 29.3 C 11.04 32.34 6.54 30.22 3.55 29.5 C 4.42 26.55 4.83 21.59 8.56 21.2"/><path d="M 8.56 18.8 C 4.83 18.41 4.42 13.45 3.55 10.5 C 6.54 9.78 11.04 7.66 13.24 10.7"/><circle cx="20" cy="20" r="11.5"/><path d="M 13.6 15.2 A 7.6 7.6 0 1 0 26.4 15.2 A 6.1 6.1 0 1 1 13.6 15.2"/></g>
</svg>
