<svg viewBox="0 0 40 40" xmlns="http://www.w3.org/2000/svg">
  <g fill="none" stroke="#BA7A3F" stroke-width="1" stroke-linejoin="round" stroke-linecap="round"><path d="M 15.56 10.48 C 12.35 7.39 17.83 3.52 20.0 1.0 C 22.17 3.52 27.65 7.39 24.44 10.48"/><path d="M 26.02 11.4 C 27.09 7.07 33.19 9.88 36.45 10.5 C 35.35 13.64 34.75 20.32 30.46 19.08"/><path d="M 30.46 20.92 C 34.75 19.68 35.35 26.36 36.45 29.5 C 33.19 30.12 27.09 32.93 26.02 28.6"/><path d="M 24.44 29.52 C 27.65 32.61 22.17 36.48 20.0 39.0 C 17.83 36.48 12.35 32.61 15.56 29.52"/><path d="M 13.98 28.6 C 12.91 32.93 6.81 30.12 3.55 29.5 C 4.65 26.36 5.25 19.68 9.54 20.92"/><path d="M 9.54 19.08 C 5.25 20.32 4.65 13.64 3.55 10.5 C 6.81 9.88 12.91 7.07 13.98 11.4"/><circle cx="20" cy="20" r="11.5"/><path d="M 13.6 15.2 A 7.6 7.6 0 1 0 26.4 15.2 A 6.1 6.1 0 1 1 13.6 15.2"/></g>
</svg>
