<svg viewBox="0 0 40 40" xmlns="http://www.w3.org/2000/svg">
  <g fill="none" stroke="currentColor" stroke-width="1" stroke-linejoin="round" stroke-linecap="round"><path d="M 17.15 9.37 C 15.37 6.36 18.75 4.15 20.0 2.2 C 21.25 4.15 24.63 6.36 22.85 9.37"/><path d="M 23.94 9.73 C 24.27 6.25 28.31 6.45 30.46 5.6 C 30.32 7.91 31.76 11.69 28.55 13.08"/><path d="M 29.23 14.01 C 31.54 11.38 34.69 13.92 36.93 14.5 C 35.46 16.29 34.4 20.19 30.98 19.42"/><path d="M 30.98 20.58 C 34.4 19.81 35.46 23.71 36.93 25.5 C 34.69 26.08 31.54 28.62 29.23 25.99"/><path d="M 28.55 26.92 C 31.76 28.31 30.32 32.09 30.46 34.4 C 28.31 33.55 24.27 33.75 23.94 30.27"/><path d="M 22.85 30.63 C 24.63 33.64 21.25 35.85 20.0 37.8 C 18.75 35.85 15.37 33.64 17.15 30.63"/><path d="M 16.06 30.27 C 15.73 33.75 11.69 33.55 9.54 34.4 C 9.68 32.09 8.24 28.31 11.45 26.92"/><path d="M 10.77 25.99 C 8.46 28.62 5.31 26.08 3.07 25.5 C 4.54 23.71 5.6 19.81 9.02 20.58"/><path d="M 9.02 19.42 C 5.6 20.19 4.54 16.29 3.07 14.5 C 5.31 13.92 8.46 11.38 10.77 14.01"/><path d="M 11.45 13.08 C 8.24 11.69 9.68 7.91 9.54 5.6 C 11.69 6.45 15.73 6.25 16.06 9.73"/><circle cx="20" cy="20" r="11"/><path d="M 12.7 15.2 L 27.3 15.2 L 20 27.8 Z"/><circle cx="20" cy="15.2" r="3.2"/></g>
</svg>
