<svg viewBox="0 0 40 40" xmlns="http://www.w3.org/2000/svg">
  <g fill="none" stroke="currentColor" stroke-width="1" stroke-linejoin="round" stroke-linecap="round"><path d="M 17.53 9.28 C 16.01 6.32 18.93 4.36 20.0 2.5 C 21.07 4.36 23.99 6.32 22.47 9.28"/><path d="M 23.22 9.48 C 23.39 6.16 26.9 5.92 28.75 4.84 C 28.75 6.99 30.29 10.15 27.5 11.96"/><path d="M 28.04 12.5 C 29.85 9.71 33.01 11.25 35.16 11.25 C 34.08 13.1 33.84 16.61 30.52 16.78"/><path d="M 30.72 17.53 C 33.68 16.01 35.64 18.93 37.5 20.0 C 35.64 21.07 33.68 23.99 30.72 22.47"/><path d="M 30.52 23.22 C 33.84 23.39 34.08 26.9 35.16 28.75 C 33.01 28.75 29.85 30.29 28.04 27.5"/><path d="M 27.5 28.04 C 30.29 29.85 28.75 33.01 28.75 35.16 C 26.9 34.08 23.39 33.84 23.22 30.52"/><path d="M 22.47 30.72 C 23.99 33.68 21.07 35.64 20.0 37.5 C 18.93 35.64 16.01 33.68 17.53 30.72"/><path d="M 16.78 30.52 C 16.61 33.84 13.1 34.08 11.25 35.16 C 11.25 33.01 9.71 29.85 12.5 28.04"/><path d="M 11.96 27.5 C 10.15 30.29 6.99 28.75 4.84 28.75 C 5.92 26.9 6.16 23.39 9.48 23.22"/><path d="M 9.28 22.47 C 6.32 23.99 4.36 21.07 2.5 20.0 C 4.36 18.93 6.32 16.01 9.28 17.53"/><path d="M 9.48 16.78 C 6.16 16.61 5.92 13.1 4.84 11.25 C 6.99 11.25 10.15 9.71 11.96 12.5"/><path d="M 12.5 11.96 C 9.71 10.15 11.25 6.99 11.25 4.84 C 13.1 5.92 16.61 6.16 16.78 9.48"/><circle cx="20" cy="20" r="11"/><path d="M 20 11.4 L 27.45 24.3 L 12.55 24.3 Z"/><path d="M 20 28.6 L 12.55 15.7 L 27.45 15.7 Z"/></g>
</svg>
