<svg viewBox="0 0 40 40" xmlns="http://www.w3.org/2000/svg">
  <g fill="none" stroke="currentColor" stroke-width="1" stroke-linejoin="round" stroke-linecap="round"><path d="M 18.18 9.15 C 17.1 6.2 19.23 4.56 20.0 2.8 C 20.77 4.56 22.9 6.2 21.82 9.15"/><path d="M 22.47 9.28 C 22.6 6.14 25.2 5.44 26.58 4.11 C 26.62 6.03 27.96 8.36 25.83 10.67"/><path d="M 26.39 11.04 C 27.71 8.19 30.38 8.54 32.16 7.84 C 31.46 9.62 31.81 12.29 28.96 13.61"/><path d="M 29.33 14.17 C 31.64 12.04 33.97 13.38 35.89 13.42 C 34.56 14.8 33.86 17.4 30.72 17.53"/><path d="M 30.85 18.18 C 33.8 17.1 35.44 19.23 37.2 20.0 C 35.44 20.77 33.8 22.9 30.85 21.82"/><path d="M 30.72 22.47 C 33.86 22.6 34.56 25.2 35.89 26.58 C 33.97 26.62 31.64 27.96 29.33 25.83"/><path d="M 28.96 26.39 C 31.81 27.71 31.46 30.38 32.16 32.16 C 30.38 31.46 27.71 31.81 26.39 28.96"/><path d="M 25.83 29.33 C 27.96 31.64 26.62 33.97 26.58 35.89 C 25.2 34.56 22.6 33.86 22.47 30.72"/><path d="M 21.82 30.85 C 22.9 33.8 20.77 35.44 20.0 37.2 C 19.23 35.44 17.1 33.8 18.18 30.85"/><path d="M 17.53 30.72 C 17.4 33.86 14.8 34.56 13.42 35.89 C 13.38 33.97 12.04 31.64 14.17 29.33"/><path d="M 13.61 28.96 C 12.29 31.81 9.62 31.46 7.84 32.16 C 8.54 30.38 8.19 27.71 11.04 26.39"/><path d="M 10.67 25.83 C 8.36 27.96 6.03 26.62 4.11 26.58 C 5.44 25.2 6.14 22.6 9.28 22.47"/><path d="M 9.15 21.82 C 6.2 22.9 4.56 20.77 2.8 20.0 C 4.56 19.23 6.2 17.1 9.15 18.18"/><path d="M 9.28 17.53 C 6.14 17.4 5.44 14.8 4.11 13.42 C 6.03 13.38 8.36 12.04 10.67 14.17"/><path d="M 11.04 13.61 C 8.19 12.29 8.54 9.62 7.84 7.84 C 9.62 8.54 12.29 8.19 13.61 11.04"/><path d="M 14.17 10.67 C 12.04 8.36 13.38 6.03 13.42 4.11 C 14.8 5.44 17.4 6.14 17.53 9.28"/><circle cx="20" cy="20" r="11"/><path d="M 12.7 15 L 27.3 15 L 20 27.5 Z"/><circle cx="20" cy="18.6" r="3.5"/></g>
</svg>
