<svg viewBox="0 0 40 40" xmlns="http://www.w3.org/2000/svg">
  <g fill="none" stroke="#82627E" stroke-width="1" stroke-linejoin="round" stroke-linecap="round"><path d="M 19.82 6.5 C 18.94 3.78 22.32 2.7 23.71 1.37 C 24.47 3.12 27.19 5.43 25.33 7.6"/><path d="M 25.0 7.46 C 25.22 4.61 28.77 4.9 30.56 4.2 C 30.59 6.12 32.22 9.29 29.67 10.58"/><path d="M 29.42 10.33 C 30.71 7.78 33.88 9.41 35.8 9.44 C 35.1 11.23 35.39 14.78 32.54 15.0"/><path d="M 32.4 14.67 C 34.57 12.81 36.88 15.53 38.63 16.29 C 37.3 17.68 36.22 21.06 33.5 20.18"/><path d="M 33.5 19.82 C 36.22 18.94 37.3 22.32 38.63 23.71 C 36.88 24.47 34.57 27.19 32.4 25.33"/><path d="M 32.54 25.0 C 35.39 25.22 35.1 28.77 35.8 30.56 C 33.88 30.59 30.71 32.22 29.42 29.67"/><path d="M 29.67 29.42 C 32.22 30.71 30.59 33.88 30.56 35.8 C 28.77 35.1 25.22 35.39 25.0 32.54"/><path d="M 25.33 32.4 C 27.19 34.57 24.47 36.88 23.71 38.63 C 22.32 37.3 18.94 36.22 19.82 33.5"/><path d="M 20.18 33.5 C 21.06 36.22 17.68 37.3 16.29 38.63 C 15.53 36.88 12.81 34.57 14.67 32.4"/><path d="M 15.0 32.54 C 14.78 35.39 11.23 35.1 9.44 35.8 C 9.41 33.88 7.78 30.71 10.33 29.42"/><path d="M 10.58 29.67 C 9.29 32.22 6.12 30.59 4.2 30.56 C 4.9 28.77 4.61 25.22 7.46 25.0"/><path d="M 7.6 25.33 C 5.43 27.19 3.12 24.47 1.37 23.71 C 2.7 22.32 3.78 18.94 6.5 19.82"/><path d="M 6.5 20.18 C 3.78 21.06 2.7 17.68 1.37 16.29 C 3.12 15.53 5.43 12.81 7.6 14.67"/><path d="M 7.46 15.0 C 4.61 14.78 4.9 11.23 4.2 9.44 C 6.12 9.41 9.29 7.78 10.58 10.33"/><path d="M 10.33 10.58 C 7.78 9.29 9.41 6.12 9.44 4.2 C 11.23 4.9 14.78 4.61 15.0 7.46"/><path d="M 14.67 7.6 C 12.81 5.43 15.53 3.12 16.29 1.37 C 17.68 2.7 21.06 3.78 20.18 6.5"/><path d="M 17.43 9.3 C 16.05 6.99 18.96 5.29 20.0 3.8 C 21.04 5.29 23.95 6.99 22.57 9.3"/><path d="M 22.33 9.25 C 22.09 6.56 25.44 6.3 27.03 5.4 C 27.32 7.2 29.2 9.99 26.95 11.48"/><path d="M 26.76 11.32 C 27.71 8.8 30.85 10.02 32.67 9.9 C 32.15 11.64 32.64 14.97 29.96 15.34"/><path d="M 29.86 15.12 C 31.81 13.26 34.11 15.71 35.79 16.4 C 34.57 17.74 33.57 20.95 31.0 20.12"/><path d="M 31.0 19.88 C 33.57 19.05 34.57 22.26 35.79 23.6 C 34.11 24.29 31.81 26.74 29.86 24.88"/><path d="M 29.96 24.66 C 32.64 25.03 32.15 28.36 32.67 30.1 C 30.85 29.98 27.71 31.2 26.76 28.68"/><path d="M 26.95 28.52 C 29.2 30.01 27.32 32.8 27.03 34.6 C 25.44 33.7 22.09 33.44 22.33 30.75"/><path d="M 22.57 30.7 C 23.95 33.01 21.04 34.71 20.0 36.2 C 18.96 34.71 16.05 33.01 17.43 30.7"/><path d="M 17.67 30.75 C 17.91 33.44 14.56 33.7 12.97 34.6 C 12.68 32.8 10.8 30.01 13.05 28.52"/><path d="M 13.24 28.68 C 12.29 31.2 9.15 29.98 7.33 30.1 C 7.85 28.36 7.36 25.03 10.04 24.66"/><path d="M 10.14 24.88 C 8.19 26.74 5.89 24.29 4.21 23.6 C 5.43 22.26 6.43 19.05 9.0 19.88"/><path d="M 9.0 20.12 C 6.43 20.95 5.43 17.74 4.21 16.4 C 5.89 15.71 8.19 13.26 10.14 15.12"/><path d="M 10.04 15.34 C 7.36 14.97 7.85 11.64 7.33 9.9 C 9.15 10.02 12.29 8.8 13.24 11.32"/><path d="M 13.05 11.48 C 10.8 9.99 12.68 7.2 12.97 5.4 C 14.56 6.3 17.91 6.56 17.67 9.25"/><path d="M 20.0 11.8 C 19.31 9.42 22.12 8.54 23.36 7.44 C 23.89 9.01 25.89 11.19 24.1 12.9"/><path d="M 24.1 12.9 C 24.69 10.49 27.57 11.14 29.19 10.81 C 28.86 12.43 29.51 15.31 27.1 15.9"/><path d="M 27.1 15.9 C 28.81 14.11 30.99 16.11 32.56 16.64 C 31.46 17.88 30.58 20.69 28.2 20.0"/><path d="M 28.2 20.0 C 30.58 19.31 31.46 22.12 32.56 23.36 C 30.99 23.89 28.81 25.89 27.1 24.1"/><path d="M 27.1 24.1 C 29.51 24.69 28.86 27.57 29.19 29.19 C 27.57 28.86 24.69 29.51 24.1 27.1"/><path d="M 24.1 27.1 C 25.89 28.81 23.89 30.99 23.36 32.56 C 22.12 31.46 19.31 30.58 20.0 28.2"/><path d="M 20.0 28.2 C 20.69 30.58 17.88 31.46 16.64 32.56 C 16.11 30.99 14.11 28.81 15.9 27.1"/><path d="M 15.9 27.1 C 15.31 29.51 12.43 28.86 10.81 29.19 C 11.14 27.57 10.49 24.69 12.9 24.1"/><path d="M 12.9 24.1 C 11.19 25.89 9.01 23.89 7.44 23.36 C 8.54 22.12 9.42 19.31 11.8 20.0"/><path d="M 11.8 20.0 C 9.42 20.69 8.54 17.88 7.44 16.64 C 9.01 16.11 11.19 14.11 12.9 15.9"/><path d="M 12.9 15.9 C 10.49 15.31 11.14 12.43 10.81 10.81 C 12.43 11.14 15.31 10.49 15.9 12.9"/><path d="M 15.9 12.9 C 14.11 11.19 16.11 9.01 16.64 7.44 C 17.88 8.54 20.69 9.42 20.0 11.8"/><circle cx="20" cy="20" r="8"/><circle cx="20" cy="20" r="1.4"/></g>
</svg>
