<svg viewBox="0 0 40 40" xmlns="http://www.w3.org/2000/svg">
  <g fill="none" stroke="#82627E" stroke-width="1" stroke-linejoin="round" stroke-linecap="round"><path d="M 20.03 12.0 C 20.05 9.5 21.6 8.51 22.54 7.25 C 22.91 8.77 23.98 10.28 23.03 12.6"/><path d="M 23.09 12.62 C 24.06 10.32 25.88 10.0 27.22 9.19 C 26.99 10.74 27.39 12.54 25.63 14.32"/><path d="M 25.68 14.37 C 27.46 12.61 29.26 13.01 30.81 12.78 C 30.0 14.12 29.68 15.94 27.38 16.91"/><path d="M 27.4 16.97 C 29.72 16.02 31.23 17.09 32.75 17.46 C 31.49 18.4 30.5 19.95 28.0 19.97"/><path d="M 28.0 20.03 C 30.5 20.05 31.49 21.6 32.75 22.54 C 31.23 22.91 29.72 23.98 27.4 23.03"/><path d="M 27.38 23.09 C 29.68 24.06 30.0 25.88 30.81 27.22 C 29.26 26.99 27.46 27.39 25.68 25.63"/><path d="M 25.63 25.68 C 27.39 27.46 26.99 29.26 27.22 30.81 C 25.88 30.0 24.06 29.68 23.09 27.38"/><path d="M 23.03 27.4 C 23.98 29.72 22.91 31.23 22.54 32.75 C 21.6 31.49 20.05 30.5 20.03 28.0"/><path d="M 19.97 28.0 C 19.95 30.5 18.4 31.49 17.46 32.75 C 17.09 31.23 16.02 29.72 16.97 27.4"/><path d="M 16.91 27.38 C 15.94 29.68 14.12 30.0 12.78 30.81 C 13.01 29.26 12.61 27.46 14.37 25.68"/><path d="M 14.32 25.63 C 12.54 27.39 10.74 26.99 9.19 27.22 C 10.0 25.88 10.32 24.06 12.62 23.09"/><path d="M 12.6 23.03 C 10.28 23.98 8.77 22.91 7.25 22.54 C 8.51 21.6 9.5 20.05 12.0 20.03"/><path d="M 12.0 19.97 C 9.5 19.95 8.51 18.4 7.25 17.46 C 8.77 17.09 10.28 16.02 12.6 16.97"/><path d="M 12.62 16.91 C 10.32 15.94 10.0 14.12 9.19 12.78 C 10.74 13.01 12.54 12.61 14.32 14.37"/><path d="M 14.37 14.32 C 12.61 12.54 13.01 10.74 12.78 9.19 C 14.12 10.0 15.94 10.32 16.91 12.62"/><path d="M 16.97 12.6 C 16.02 10.28 17.09 8.77 17.46 7.25 C 18.4 8.51 19.95 9.5 19.97 12.0"/><path d="M 17.85 8.4 C 17.42 6.09 19.17 4.84 20.0 3.5 C 20.83 4.84 22.58 6.09 22.15 8.4"/><path d="M 22.45 8.46 C 22.94 6.16 25.03 5.67 26.31 4.76 C 26.57 6.31 27.71 8.13 26.43 10.1"/><path d="M 26.68 10.28 C 28.01 8.34 30.13 8.69 31.67 8.33 C 31.31 9.87 31.66 11.99 29.72 13.32"/><path d="M 29.9 13.57 C 31.87 12.29 33.69 13.43 35.24 13.69 C 34.33 14.97 33.84 17.06 31.54 17.55"/><path d="M 31.6 17.85 C 33.91 17.42 35.16 19.17 36.5 20.0 C 35.16 20.83 33.91 22.58 31.6 22.15"/><path d="M 31.54 22.45 C 33.84 22.94 34.33 25.03 35.24 26.31 C 33.69 26.57 31.87 27.71 29.9 26.43"/><path d="M 29.72 26.68 C 31.66 28.01 31.31 30.13 31.67 31.67 C 30.13 31.31 28.01 31.66 26.68 29.72"/><path d="M 26.43 29.9 C 27.71 31.87 26.57 33.69 26.31 35.24 C 25.03 34.33 22.94 33.84 22.45 31.54"/><path d="M 22.15 31.6 C 22.58 33.91 20.83 35.16 20.0 36.5 C 19.17 35.16 17.42 33.91 17.85 31.6"/><path d="M 17.55 31.54 C 17.06 33.84 14.97 34.33 13.69 35.24 C 13.43 33.69 12.29 31.87 13.57 29.9"/><path d="M 13.32 29.72 C 11.99 31.66 9.87 31.31 8.33 31.67 C 8.69 30.13 8.34 28.01 10.28 26.68"/><path d="M 10.1 26.43 C 8.13 27.71 6.31 26.57 4.76 26.31 C 5.67 25.03 6.16 22.94 8.46 22.45"/><path d="M 8.4 22.15 C 6.09 22.58 4.84 20.83 3.5 20.0 C 4.84 19.17 6.09 17.42 8.4 17.85"/><path d="M 8.46 17.55 C 6.16 17.06 5.67 14.97 4.76 13.69 C 6.31 13.43 8.13 12.29 10.1 13.57"/><path d="M 10.28 13.32 C 8.34 11.99 8.69 9.87 8.33 8.33 C 9.87 8.69 11.99 8.34 13.32 10.28"/><path d="M 13.57 10.1 C 12.29 8.13 13.43 6.31 13.69 4.76 C 14.97 5.67 17.06 6.16 17.55 8.46"/><path d="M 20.33 5.0 C 20.38 2.75 22.62 1.95 23.8 0.87 C 24.49 2.32 26.25 3.92 25.44 6.02"/><path d="M 26.04 6.27 C 26.95 4.21 29.33 4.32 30.83 3.79 C 30.91 5.39 31.93 7.54 30.37 9.16"/><path d="M 30.84 9.63 C 32.46 8.07 34.61 9.09 36.21 9.17 C 35.68 10.67 35.79 13.05 33.73 13.96"/><path d="M 33.98 14.56 C 36.08 13.75 37.68 15.51 39.13 16.2 C 38.05 17.38 37.25 19.62 35.0 19.67"/><path d="M 35.0 20.33 C 37.25 20.38 38.05 22.62 39.13 23.8 C 37.68 24.49 36.08 26.25 33.98 25.44"/><path d="M 33.73 26.04 C 35.79 26.95 35.68 29.33 36.21 30.83 C 34.61 30.91 32.46 31.93 30.84 30.37"/><path d="M 30.37 30.84 C 31.93 32.46 30.91 34.61 30.83 36.21 C 29.33 35.68 26.95 35.79 26.04 33.73"/><path d="M 25.44 33.98 C 26.25 36.08 24.49 37.68 23.8 39.13 C 22.62 38.05 20.38 37.25 20.33 35.0"/><path d="M 19.67 35.0 C 19.62 37.25 17.38 38.05 16.2 39.13 C 15.51 37.68 13.75 36.08 14.56 33.98"/><path d="M 13.96 33.73 C 13.05 35.79 10.67 35.68 9.17 36.21 C 9.09 34.61 8.07 32.46 9.63 30.84"/><path d="M 9.16 30.37 C 7.54 31.93 5.39 30.91 3.79 30.83 C 4.32 29.33 4.21 26.95 6.27 26.04"/><path d="M 6.02 25.44 C 3.92 26.25 2.32 24.49 0.87 23.8 C 1.95 22.62 2.75 20.38 5.0 20.33"/><path d="M 5.0 19.67 C 2.75 19.62 1.95 17.38 0.87 16.2 C 2.32 15.51 3.92 13.75 6.02 14.56"/><path d="M 6.27 13.96 C 4.21 13.05 4.32 10.67 3.79 9.17 C 5.39 9.09 7.54 8.07 9.16 9.63"/><path d="M 9.63 9.16 C 8.07 7.54 9.09 5.39 9.17 3.79 C 10.67 4.32 13.05 4.21 13.96 6.27"/><path d="M 14.56 6.02 C 13.75 3.92 15.51 2.32 16.2 0.87 C 17.38 1.95 19.62 2.75 19.67 5.0"/><circle cx="20" cy="20" r="8"/><circle cx="20" cy="20" r="1.4"/></g>
</svg>
