<?xml version="1.0" encoding="UTF-8"?>
<svg id="Layer_1" data-name="Layer 1" xmlns="http://www.w3.org/2000/svg" viewBox="0 0 273.21 1179.32">
  <defs>
    <style>
      .cls-1 {
        fill: #216eb7;
      }

      .cls-2 {
        fill: #cf5a27;
      }

      .cls-3 {
        fill: #e7b222;
      }

      .cls-4 {
        fill: #0f1136;
      }

      .cls-5 {
        fill: #80145b;
      }

      .cls-6 {
        fill: #1d9847;
      }

      .cls-7 {
        fill: #a11d21;
      }
    </style>
  </defs>
  <g>
    <path class="cls-6" d="M200.77,572.04c-.82-2.66-2.24-4.87-4.34-6.73-.27-1-.64-1.92-1.1-2.74-.52-2.16-1.42-4.12-2.69-5.86.96-1.48,1.75-3.13,2.34-4.93,1.03-3.13,1.62-4.42,2.89-5.45l3.35-2.74-.31-4.32c-.27-3.81-2.91-8.26-9.5-9.51-.29-.25-.71-.66-.88-.83-.79-.77-1.7-1.4-2.71-1.87-.81-.85-1.74-1.56-2.78-2.1-.33-.24-.68-.46-1.03-.67.33-3.38-.11-6.07-.45-8.1-.05-.32-.18-1.1-.22-1.45.01-.05.02-.09.04-.14.38-1.61,1.17-4.96-.71-9.08l-3.18-6.97-7.21,2.57c-1.52.54-3.27.22-5.87-.48-.62-.2-1.78-.58-3.26-.62-.95-.07-1.9-.07-2.84-.02-.77-1.61-1.93-3.1-3.44-4.43l-3.04-3.38-.55-1.12c-.45-3.64-2.8-7.7-8.14-8.46-.44-.06-.9-.09-1.35-.09-3.11,0-6.16,1.48-8.43,4.08l-1.91.72c-2.85.58-5.42,1.6-7.64,3.06-1.89-1.23-4.04-2.22-6.43-2.94l-3.34-1.01s-.08-.08-.12-.11c-2.37-3.27-5.35-4-7.46-4.04h-.14c-1.79,0-6.22.58-8.64,5.93l-1.5,3.17-4.03,4.54c-1.16,1.31-2.09,2.72-2.79,4.21-.33-.02-.67-.03-1-.03-2.54,0-4.52.63-6.11,1.14-.52.17-1.05.34-1.62.49-.42-.07-1.19-.25-1.59-.35-.97-.23-2.08-.49-3.31-.66l-5.19-.72-2.9,4.37c-.82,1.24-1.75,3.24-1.6,5.83l-.54,2.86,1.02,1.99c-.02.11-.04.25-.08.43l-.73,3.38c-.41,1.89-.49,3.84-.23,5.8-1.12.61-2.12,1.29-2.99,2.05l-1.73,1.01-.92,1.07c-.39.46-1.12,1.3-4.3,1.97l-12.67,2.65,11.24,15.36,1.54,3.88,1,2.26c.31.7.67,1.38,1.08,2.03l-.38.56c-1.07,1.56-2.57,4.02-3.24,7.32l-.12.21c-.17.22-.58.78-.77.99l-9.01,4.73,6.76,7.94c1.96,2.31,3.93,3.22,4.87,3.66l3.03,1.42,2.88,2.52c1.08.94,2.5,2.09,4.35,2.99-.27,3.07,0,6.17.79,9.05-.01.25-.14.86-.21,1.17-.2.92-.47,2.18-.41,3.63.1,2.29,1,4.41,2.53,6,1.76,2.2,4.42,3.42,7.51,3.42.87,0,1.68-.09,2.4-.17,1.12-.13,2.14-.21,2.83,0,2.95.87,5.88,1.19,8.69.94.39.62.82,1.2,1.3,1.75l5.19,5.96,7.05,15.61,9.27-8.83c.79-.76,1.97-1.9,2.31-2.07,1.21-.37,2.25-.77,3.19-1.23,1.99-.51,3.83-1.3,5.5-2.34.71.41,1.43.74,2.16,1.01l6.66,2.38.62.43.12.18c1.79,2.63,4.78,4.19,8,4.19,2.35,0,4.59-.84,6.33-2.37,1.67-1.48,2.75-3.45,3.14-5.72l2.84-4.42c.06-.04.13-.09.19-.14,1.54-1.14,2.8-2.6,3.76-4.36,2.34.12,4.79-.15,6.96-.77,1.26-.36,2.38-.53,3.63-.53,1.08,0,2.32.11,4.15.37l12.85,1.83-3.66-12.45c-.68-2.31-.49-4.24.07-6.79l.19-.88v-4.73c1.72-.97,3.41-2.27,4.99-3.84,1.76-1.62,3.25-2.41,5.51-2.89l8.9-1.92-2.69-8.7ZM193.92,579.73c-2.77.6-4.77,1.65-6.95,3.66-1.65,1.63-3.36,2.9-5.09,3.76l-.83.41v6.23s-.12.57-.12.57c-.63,2.87-.87,5.38-.02,8.28l2.35,7.97-8.23-1.17c-1.98-.28-3.35-.4-4.58-.4-1.55,0-2.92.2-4.46.64-2.13.61-4.61.82-6.86.59l-1.07-.11-.45.97c-.79,1.72-1.9,3.11-3.3,4.15-.11.08-.22.16-.33.23l-.27.17-3.53,5.49-.04.33c-.23,1.72-.97,3.13-2.2,4.22-1.18,1.04-2.73,1.62-4.34,1.62-2.23,0-4.29-1.08-5.52-2.88l-.44-.64-1.41-.97-7.03-2.51c-.8-.29-1.6-.69-2.37-1.21l-.86-.58-.84.6c-1.62,1.14-3.46,1.98-5.49,2.48l-.32.12c-.82.42-1.76.78-2.86,1.12-.88.27-1.86,1.18-3.51,2.77l-6.2,5.91-5.49-12.16-5.48-6.3c-.55-.63-1.04-1.33-1.44-2.08l-.49-.92-1.03.14c-2.68.36-5.55.11-8.45-.74-1.16-.34-2.56-.26-4.02-.1-.66.08-1.35.15-2.05.15-2.79,0-4.36-1.27-5.2-2.33l-.11-.13c-1.05-1.06-1.66-2.52-1.73-4.09-.05-1.07.16-2.03.34-2.87.24-1.09.38-1.85.19-2.5-.79-2.83-1.01-6.05-.61-9.08l.15-1.16-1.09-.43c-1.94-.77-3.44-1.97-4.53-2.93l-3.2-2.8-3.42-1.61c-.87-.4-2.32-1.08-3.86-2.88l-4.33-5.09,5.86-3.08.23-.15c.34-.27.73-.75,1.36-1.59l.53-.7.14-.74c.56-2.74,1.85-4.85,2.77-6.2l1.55-2.26-.61-.85c-.53-.74-.99-1.55-1.36-2.39l-.98-2.21-1.59-4.01-8.79-12.09,8.11-1.7c3.68-.77,5.04-1.88,5.96-2.95l.59-.68,1.42-.83.24-.18c.92-.83,2.06-1.56,3.4-2.19l1.06-.5-.23-1.15c-.38-1.91-.37-3.89.03-5.71l.73-3.4c.12-.56.17-1.02.17-1.38v-.35s-.91-1.77-.91-1.77l.42-2.24-.02-.2c-.12-1.48.25-2.87,1.1-4.15l1.86-2.8,3.32.46c1.09.15,2.12.4,3.03.61.98.23,1.77.41,2.29.45l.23.02.22-.05c.76-.19,1.43-.4,2.08-.61,1.53-.49,3.12-1,5.19-1,.58,0,1.15.04,1.74.12l1.18.17.43-1.12c.59-1.55,1.49-3.01,2.68-4.35l4.32-4.87,1.69-3.58c1.65-3.65,4.42-4.19,5.91-4.19h.12c2.07.04,3.8,1.01,5.13,2.89l.18.21c.13.13.28.27.44.43l.27.27,4.07,1.23c2.45.74,4.61,1.79,6.42,3.11l.89.65.89-.65c2.1-1.54,4.6-2.61,7.46-3.17l3-1.11.25-.31c1.72-2.09,4.05-3.3,6.38-3.3.31,0,.63.02.93.06,4.72.67,5.48,4.81,5.6,6.06l.03.27.97,1.97,3.38,3.75.13.13c1.49,1.3,2.54,2.76,3.11,4.33l.4,1.11,1.17-.13c1.12-.13,2.17-.16,3.48-.06,1.11.03,1.96.31,2.48.48l.17.05c3.15.84,5.46,1.18,7.63.4l4.62-1.65,2.04,4.46c1.46,3.19.87,5.67.52,7.14-.03.14-.07.27-.1.42l-.03.31c0,.4.09,1.01.27,2.08.33,2.03.79,4.8.31,8.22l-.15,1.08.99.48c.57.28,1.12.61,1.64.98l.2.12c.84.43,1.59,1,2.23,1.72l.22.25.3.13c.79.34,1.5.81,2.11,1.41.55.54,1.08,1.04,1.47,1.31l.28.19.33.06c6.49,1.08,7.3,5.5,7.39,6.83l.2,2.76-2.15,1.75c-1.86,1.52-2.69,3.34-3.84,6.84-.62,1.89-1.48,3.58-2.56,5.03l-.71.96.77.91c1.39,1.64,2.34,3.56,2.83,5.72l.05.23.12.2c.44.74.78,1.6,1,2.58l.11.49.38.32c1.18.99,2.85,2.64,3.77,5.64l1.72,5.57-5.7,1.23Z"/>
    <path class="cls-6" d="M176.65,553.57c-1.2-1.57-1.98-3.53-2.3-5.83l-.08-.33c-.79-2.06-1.21-4.04-1.27-5.89v-.43s-.25-.36-.25-.36c-.66-1-1.2-2.13-1.59-3.35-.18-.55-.33-1.11-.44-1.66l-.08-.39-.26-.3c-1.13-1.29-2.09-2.86-2.76-4.54-.59-1.47-.93-2.94-1-4.35l-.02-.45-3.87-4.84-.72.39-14.82-9.52-.28-.06c-4.31-.88-9.79-2.84-11.64-5.06l-.45-.55-1.19-.28-5.58-.57-.47.35c-1.74,1.29-3.96,2.01-6.25,2.01-1.6,0-3.11-.33-4.5-.97l-.43-.2-.47.09c-4.77.9-9.68,2.79-15.45,5.95l-.2.11-.16.16c-.76.79-1.63,1.39-2.6,1.79l-.43.26.88,1.21-.97-1.15c-.1.07-.2.14-.31.24l-6.53,5.45-4.42,5.3-2.58,3.9-2.78,4.61-3.4,9.27-1.41,5.06-.05.34c-.01.29,0,.79,0,1.15,0,.31,0,.6,0,.85l-.26,10.02,1.69,9.91.65,1.88.38.27c2.12,1.52,3.97,4.06,5.09,6.97.15.38.28.77.39,1.14l.06.19,1.53,2.49c2.5,4.06,6.05,7.88,10.84,11.66l1.89,1.5.21.79.94.18c3.28.61,6.54,2.53,8.5,5.01.12.15.23.3.34.46l.24.27c.29.25.56.52.81.81l.35.4,11.86,2.2c1.37.26,2.92.39,4.62.39.87,0,1.79-.03,2.73-.1l.62-.04,1.52-1.75,9.12-1.86.32-.1c1.87-.84,3.74-1.39,5.56-1.64l.47-.06.35-.33c2.46-2.3,6.01-3.97,9.27-4.36l1.07-.13.48-2.31,1.88-1.6c4.29-3.65,7.59-7.57,9.8-11.67l.84-1.55.14-.36c.66-2.71,2.26-5.23,4.37-6.92l.37-.3,2.23-7.77v-.2c0-.13,0-.53,0-.53l.2-9.93-.32-.42ZM173.77,563.89v.32s-1.85,6.47-1.85,6.47c-2.38,2.05-4.18,4.95-4.98,8.05l-.75,1.39c-2.04,3.77-5.11,7.41-9.11,10.82l-2.66,2.26-.26,1.24c-3.43.63-6.9,2.32-9.54,4.66-1.91.31-3.84.89-5.77,1.74l-9.95,2.03-1.38,1.58c-2.29.13-4.31.03-5.97-.28l-10.31-1.93-.57-.1c-.19-.2-.39-.39-.6-.58-.11-.15-.22-.3-.33-.44-2.21-2.8-5.77-5.01-9.43-5.91l-2.6-2.06c-4.51-3.56-7.83-7.12-10.14-10.88l-1.33-2.16c-.12-.38-.25-.77-.4-1.16-.75-1.95-2.47-5.53-5.76-8.06l-.22-.63-1.62-9.49.25-9.76c0-.3,0-.62,0-.94,0-.24,0-.57,0-.82l1.31-4.71,3.21-8.81,2.67-4.44,2.41-3.65,4.09-4.94,6.41-5.35c.06-.05.12-.09.18-.13l.08-.06c1.21-.53,2.3-1.28,3.26-2.24,5.22-2.84,9.66-4.57,13.92-5.44,4.09,1.71,9.21,1.24,12.86-1.21l4.15.42.12.03c3.2,3.52,10.75,5.34,12.88,5.8l15.84,10.18.1-.05,1.69,2.07c.13,1.6.53,3.24,1.18,4.87.75,1.86,1.79,3.62,3.03,5.1.12.54.27,1.07.44,1.6.43,1.33,1.01,2.58,1.71,3.71.11,2.01.58,4.13,1.39,6.29.38,2.55,1.23,4.78,2.54,6.64l-.18,8.93Z"/>
    <path class="cls-6" d="M152.05,549.61c.63-.78,2.54-3.14,1.85-6.69l-.89-4.53-15.42.07c-.49-.92-1.04-1.94-1.8-2.97l-.03-.23-2.86-4.73c-.39-.99-1.41-3.6-4.31-4.64-.71-.25-1.43-.38-2.17-.38-1.25,0-4.33.42-5.98,4.28l-1.44,2.55s-2.65,4.41-3.72,6.19l-8.3-.02-9.69.29,1.38,6.54c.39,1.87,1.32,3.1,1.81,3.77l.1.13c.06.12.13.25.19.38.43.87,1.01,2.03,1.93,3.15.16.35.32.64.46.86.18.54.58,1.56,1.42,2.53.06.14.12.28.19.43l-2.57,4.57-2.4.03.92,2.53-.62,1.07c-1.22,1.83-1.56,3.77-.96,5.62.57,1.77,1.92,3.15,3.7,3.8,1.05.38,2.2.57,3.51.57.6,0,1.15-.04,1.64-.07.27-.02.53-.04.7-.04h6.5s.22.03.22.03c.02,0,.04,0,.06,0l5.48,9.49c1.28,2.21,3.3,3.48,5.55,3.48h.34c1.62-.11,3.86-.87,5.35-3.97l2.68-4.44,2.61-4.57h5.61c.38-.01.8,0,1.28.03.57.03,1.16.05,1.79.05,1.46,0,2.71-.15,3.94-.46l7.12-1.8-9.17-16.03,4-6.86ZM152.66,570.56l-3.3.83c-.99.25-2.01.37-3.21.37-.59,0-1.13-.03-1.68-.05-.49-.02-.96-.05-1.39-.05l-7.35.02-3.45,6.04-2.7,4.47-.08.16c-.92,1.97-2.06,2.25-2.83,2.3h-.17c-1.15,0-2.22-.72-2.95-1.98l-6.29-10.88-.82-.04c-.27-.01-.52-.04-.8-.06-.12-.01-.23-.02-.39-.03h-6.55c-.23-.01-.56,0-.92.03-.42.03-.91.06-1.43.06-.95,0-1.77-.13-2.48-.39-.91-.33-1.59-1.02-1.87-1.9-.31-.98-.11-1.98.62-3.06l5.06-8.87.55-.92-.44-.76c-.21-.37-.38-.71-.5-1.05l-.11-.29-.21-.22c-.63-.65-.88-1.42-1-1.79l-.16-.34c-.12-.19-.28-.45-.42-.78l-.09-.22-.16-.18c-.76-.88-1.27-1.89-1.67-2.7-.09-.18-.18-.35-.27-.53l-.07-.13c-.06-.09-.12-.17-.23-.32-.41-.55-1.02-1.37-1.28-2.59l-.64-3.03,6.05-.18,9.95.02,4.62-7.68,1.51-2.67.08-.16c.69-1.67,1.78-2.52,3.24-2.52.38,0,.77.07,1.15.21,1.63.59,2.22,2.11,2.58,3.01l2.73,4.57.06.41.25.32c.75.96,1.29,1.97,1.81,2.96.13.25.26.49.38.72l.43.78,14.74-.07.41,2.1c.43,2.18-.74,3.61-1.28,4.28l-5.1,8.68,8.08,14.1Z"/>
  </g>
  <g>
    <path class="cls-1" d="M192.01,401.72c.44-.57.78-1.07,1.09-1.56,1.51-.86,2.94-1.97,4.35-3.38l4.9-4.88-3.89-5.72c-.74-1.09-2.37-3.08-5.05-4.37l-2.07-2.68c-.4-.52-.79-.99-1.19-1.44.43-1.19.69-2.42.77-3.67.26-.51.48-1.04.67-1.59,2.26-2.54,3.92-6.67,2.04-10.97-.91-2.07-3.31-5.59-9.16-5.97l-.25-.08-.73-.91-3.39-1.17c-.06-1.33-.31-2.64-.76-3.85,0-.29,0-.73.01-1,1.38-3.99.43-6.87-.63-8.59-1.73-2.83-4.87-4.45-8.59-4.45-.76,0-1.51.07-2.23.21l-6.19-.13c-.07,0-.13,0-.2,0-.44-.94-.95-1.78-1.52-2.55.23-1.37.13-2.79-.29-4.15-.89-2.87-3.11-5.21-5.94-6.28-1.17-.44-2.38-.66-3.62-.66-2.81,0-5.59,1.2-7.68,3.3-.05.02-.11.05-.16.07-1.22.13-2.44.42-3.64.85-.76-.8-1.74-1.67-3.03-2.39-.08-.14-.17-.28-.25-.42-.37-.62-.79-1.33-1.34-2.1-2.29-3.19-5.26-4.03-7.35-4.17-.22-.02-.44-.02-.65-.02-2.44,0-4.61.88-6.41,2.56-1.09.92-1.98,2.07-2.64,3.44l-3.71,3.34s-.03,0-.05-.01c-.18-.05-.36-.11-.54-.17l-2.89-.94c-2.23-2.56-5.51-3.48-7.92-3.48-4.52,0-8.28,3.02-9.14,7.33l-.82,4.11-.61,1.22c-.18.35-.37.73-.57,1.14-.77.03-1.51.1-2.23.16-.82.07-1.59.14-2.24.14-.3,0-.55-.01-.69-.03-.79-.31-2.29-.85-4.22-.85-1.82,0-3.63.5-5.22,1.43l-5.08,2.98,1.11,5.78c.12.62.24,1.21.37,1.82.15.73.32,1.55.4,2.11-.4,1.32-.64,2.68-.72,4.06l-4,2.21-1.99.71c-5.03.57-7.01,4.02-7.64,5.49-1.5,3.55-.81,7.49,1.85,10.54.12.13.24.26.36.4.35,1.54.8,3.39,1.61,5.21-.04.06-.07.11-.11.17-1.34,1.17-2.16,2.45-2.62,3.19-.1.09-.22.2-.34.31-4.22,1.99-6.72,5.52-6.71,9.49v.79s.22,1.11.22,1.11c.75,3.18,2.84,5.6,6.2,7.2l1.37,1.4,1.05,1.48c.22.3.46.6.71.88-.3.92-.49,1.86-.57,2.79-.37.64-.69,1.32-.97,2.02-2.74,2.67-3.25,6.54-2.84,9.12.56,3.48,2.92,6.25,6.16,7.22l4.65,1.4,3.43,1.74.06.03c.06.9.17,1.84.34,2.79.08.47.18.94.27,1.39.02.11.05.22.07.34-2.66,6.54,1.36,10.36,2.67,11.39,2.81,2.2,6.44,2.76,9.86,1.47.63-.02,1.4,0,2.21.02.98.02,1.92.04,2.98.02.42.88.92,1.73,1.49,2.55.2.73.19.97.19.98-.18,3.6,1.3,5.95,2.57,7.28,1.76,1.85,4.2,2.88,6.87,2.88.64,0,1.28-.06,1.97-.17,2.18-.37,4.13-1.32,5.66-2.75l4.21-1.26s.08-.02.12-.04c1.04,1.07,2.11,1.99,2.99,2.76l.69.6.75,1.15c1.82,2.8,4.66,4.36,8,4.41h.15c3.72,0,5.94-1.98,6.67-2.63,1.06-.94,1.91-2.09,2.53-3.42.35-.31.67-.63.97-.98.96-.52,1.84-1.15,2.63-1.88.99.46,2.11.81,3.34,1.04.41.27.82.51,1.24.71.72.7,1.52,1.34,2.37,1.91l4.91,3.23,4.7-3.53c4.11-3.09,4.47-7.45,4.59-8.86l.8-2.7.43-.66c.13-.2.25-.4.37-.6.66,0,1.34-.02,2.02-.03h.12c.47-.02.96-.03,1.44-.03,1.16,0,1.93.09,2.59.29.89.27,1.81.41,2.75.41,2.81,0,5.55-1.25,7.53-3.44,2.26-2.5,2.98-5.81,1.91-8.85-.2-.56-.45-1.1-.76-1.61.47-1.32.74-2.69.82-4.09,1.09-.46,2.07-.97,2.95-1.43,1.27-.66,2.36-1.22,3.19-1.35,3.76-.56,5.81-2.57,6.86-4.16,1.05-1.58,2.11-4.23,1.18-7.86-.55-2.14-1.64-3.91-3.25-5.26l-.35-1.27c-.21-.78-.44-1.63-.74-2.53.77-.81,1.34-1.58,1.75-2.13l.29-.38ZM190.94,397.93l-.21.36c-.3.51-.64,1.01-1.12,1.63l-.3.4c-.49.66-1.16,1.56-2.09,2.42l-.74.68.35.94c.41,1.11.71,2.22.98,3.21l.62,2.23.41.31c1.3.98,2.14,2.27,2.57,3.94.66,2.56-.06,4.38-.77,5.46-.72,1.08-2.14,2.45-4.8,2.85-1.33.2-2.62.87-4.13,1.65-1.06.55-2.26,1.17-3.57,1.66l-.99.37v1.05c.03,1.6-.27,3.16-.87,4.64l-.11.27v.29c0,.09,0,.17,0,.25l.03.44.26.36c.32.44.58.93.77,1.46.7,1.99.21,4.17-1.3,5.84-1.87,2.06-4.71,2.93-7.18,2.17-.96-.29-1.99-.42-3.47-.42-.52,0-1.02.01-1.52.03h-.12c-.93.03-1.81.05-2.78.02l-.97-.03-.43.87c-.19.38-.41.76-.65,1.13l-.67,1.03-.96,3.21-.07.49c-.11,1.33-.37,4.45-3.41,6.73l-3.01,2.26-3.14-2.07c-.77-.5-1.45-1.06-2.08-1.7l-.19-.19-.25-.11c-.44-.2-.87-.45-1.3-.76l-.28-.2-.34-.06c-1.44-.24-2.68-.67-3.67-1.26l-1.06-.64-.83.92c-.82.91-1.78,1.65-2.87,2.2l-.28.14-.2.25c-.3.38-.65.72-1.03,1.04l-.28.23-.14.33c-.46,1.06-1.1,1.97-1.92,2.7-.57.51-2.1,1.87-4.67,1.87h-.12c-2.34-.04-4.25-1.09-5.52-3.05l-.97-1.49-1.01-.88c-1.07-.93-2.28-1.97-3.41-3.23l-.69-.76-.96.36c-.29.11-.58.21-.88.3l-4.93,1.48-.27.27c-1.12,1.14-2.62,1.89-4.32,2.18-.52.09-1,.13-1.47.13-1.84,0-3.51-.69-4.7-1.94-.87-.91-1.87-2.53-1.74-5.07.03-.52-.09-1.22-.37-2.19l-.07-.25-.15-.21c-.71-1-1.29-2.06-1.75-3.15l-.41-.99-1.07.06c-1.4.08-2.5.05-3.83.02-.9-.02-1.86-.04-2.59,0h-.26s-.24.11-.24.11c-2.52,1.02-5.1.65-7.14-.95-1.43-1.12-3.54-3.65-1.67-8.05l.28-.62-.08-.46c-.05-.27-.11-.58-.17-.84-.09-.42-.17-.85-.25-1.3-.2-1.15-.31-2.26-.34-3.32l-.02-1.03-.97-.35c-.23-.08-.46-.18-.67-.29l-3.55-1.8-5.02-1.53c-2.13-.64-3.69-2.49-4.06-4.82-.33-2.07.21-4.93,2.16-6.67l.28-.25.13-.35c.28-.77.63-1.49,1.03-2.16l.2-.33.02-.38c.05-1.04.29-2.09.72-3.11l.33-.79-.52-.69-.28-.33c-.35-.32-.65-.65-.92-1.02l-1.12-1.57-1.98-2.06-.26-.12c-2.66-1.21-4.23-2.94-4.78-5.28l-.14-.6v-.61c-.02-4.19,3.97-6.31,5.19-6.86l.25-.11.2-.2c.21-.21.4-.38.55-.52l.22-.23.12-.2c.42-.67,1.11-1.78,2.25-2.73l.19-.16.13-.21c.17-.29.37-.57.58-.83l.62-.77-.46-.88c-.09-.18-.18-.35-.27-.54-.81-1.76-1.22-3.58-1.58-5.19l-.1-.43-.31-.31c-.18-.18-.36-.37-.53-.56-1.89-2.16-2.39-4.92-1.35-7.39.52-1.24,1.91-3.36,5.35-3.69l2.63-.89,4.01-2.19,1.83-.48v-1.16c-.01-1.57.22-3.12.7-4.6l.09-.28-.02-.3c-.06-.72-.27-1.75-.49-2.79-.12-.55-.24-1.13-.35-1.73l-.71-3.7,3.25-1.91c1.14-.67,2.42-1.02,3.71-1.02,1.48,0,2.59.44,3.26.7l.28.08c.94.18,2.37.09,3.87-.04.95-.08,1.93-.17,2.95-.17h.97s.39-.89.39-.89c.31-.69.62-1.31.92-1.91l.78-1.55.9-4.51c.57-2.9,3.12-4.92,6.19-4.92,1.73,0,4.3.71,5.86,2.7l.28.36,3.74,1.22c.2.06.4.12.64.2.24.07.5.15.79.24l.85.28.65-.62c.14-.13.29-.27.43-.4l4.32-3.9.13-.29c.49-1.09,1.14-1.97,2.04-2.72,1.3-1.21,2.75-1.8,4.42-1.8.14,0,.29,0,.45.01,1.45.1,3.51.68,5.12,2.93.47.66.86,1.31,1.21,1.9.16.26.35.58.5.82l.22.34.36.18c1.47.75,2.44,1.77,3.2,2.67l.72.86,1.03-.45c1.32-.58,2.66-.93,4-1.05l.29-.02.26-.13c.17-.08.34-.16.52-.24l.3-.12.22-.24c2.19-2.33,5.48-3.17,8.28-2.12,1.97.74,3.51,2.37,4.13,4.36.33,1.08.37,2.2.09,3.25l-.2.75.49.59c.77.92,1.39,2,1.92,3.28l.39.96,1.04-.03c.38-.01.72,0,1.09,0l6.51.13.17-.04c.57-.12,1.17-.18,1.79-.18,2.66,0,4.86,1.1,6.04,3.02,1.07,1.73,1.16,3.83.28,6.23l-.08.23v.24c-.01.16-.03,1.57-.03,1.57v.3s.11.28.11.28c.5,1.25.72,2.64.66,4.03l-.05,1.12,4.64,1.59.75.94,1.29.41.38.07c3.35.18,5.62,1.59,6.77,4.19,1.36,3.11.01,6.15-1.7,7.96l-.24.25-.1.33c-.18.59-.42,1.16-.71,1.68l-.17.31v.35c-.06,1.32-.37,2.62-.93,3.86l-.42.95.73.73c.56.55,1.09,1.16,1.62,1.86l2.02,2.63.64.7.28.13c1.59.72,3.08,1.98,4.09,3.46l2.49,3.66-3.14,3.13c-1.31,1.31-2.63,2.31-4.02,3.07l-.37.2Z"/>
    <path class="cls-1" d="M172.78,381v-.23s-2.29-6.72-2.29-6.72c-.28-.88-.76-2-1.14-2.65l-5.32-9.17-3.05-3.97-.16-.12c-.65-.49-1.22-1.08-1.71-1.75l-.2-.27-.3-.16c-1.57-.84-2.65-1.97-3.3-2.65l-3.69-2.74-2.22-1.38-4.1-2.28-.09-.05c-.11-.05-.23-.1-.43-.19-.75-.32-1.89-.8-3.06-1.67l-.33-.24-2.72-.3-5.47-1.06-4.8-.3-.39.23c-1.75,1.03-3.79,1.57-5.89,1.57-.71,0-1.41-.06-2.09-.19l-.49-.09-.44.22c-3.32,1.63-7.36,2.53-10.65,2.35l-.7-.02-.48.48c-1.28,1.3-2.98,2.07-4.79,2.15h-.31s-.28.15-.28.15c-.34.16-.68.31-1.03.43l-.29.1-.22.21c-.91.84-1.8,1.37-2.4,1.73l-5.38,4.46-.16.15c-.35.39-.75.77-1.2,1.13l-.21.17-.14.24c-.97,1.64-2.37,3.58-4.29,5.92l-.15.18-.09.22c-.33.84-.82,1.95-1.68,3.07l-.17.22-.08.26c-.39,1.29-1.03,2.46-1.89,3.46l-.2.23-2.06,6.57-.21,1.06v.17c.04.98-.13,1.98-.5,2.89l-.1.25v.27c-.03,1.05-.13,2.65-.71,4.36l-.08.23-.04,5.64c-.02,2.87.08,5.83.93,8.05l2.82,7.34c2.36,6.16,6.32,11.92,11.46,16.64l.37.34.51.05c2.11.19,4.1,1.17,5.61,2.74l.16.17,1.23.66c4.77,2.58,9.93,5.12,15.38,6.31l2.2.48,1.01,1.16.98-.38c2.52-.98,5.71-.94,8.34.05l.72.27.64-.43c2.08-1.39,4.8-1.85,7.28-1.22l.89.22.6-.69c1.17-1.33,2.72-2.25,4.48-2.66l.34-.08.27-.22c1.41-1.16,3.09-2.04,4.87-2.54l.38-.11.28-.28c2.11-2.14,5.01-3.6,7.77-3.91l.48-.05.36-.33c1.37-1.25,2.79-2.77,4.1-4.41,2.36-2.94,4.16-6.67,6.07-10.63l.08-.17c.28-.58.56-1.16.84-1.74,2.95-6.02,3.5-12.98,3.82-19.6v-.23s-.05-.22-.05-.22c-.73-2.8-1.07-5.02-1.12-7.19ZM167.44,406.91c-.29.58-.57,1.17-.85,1.76l-.09.18c-1.83,3.79-3.56,7.37-5.7,10.05-1.11,1.38-2.29,2.67-3.44,3.75-3.14.48-6.37,2.11-8.79,4.45-1.92.59-3.75,1.55-5.31,2.78-1.94.51-3.68,1.49-5.09,2.86-2.81-.49-5.74.02-8.16,1.42-1.49-.48-3.06-.72-4.68-.72-1.43,0-2.8.19-4.09.58l-.31-.36-3.17-.69c-5.09-1.1-10.02-3.54-14.59-6.01l-.82-.44c-1.87-1.87-4.26-3.07-6.81-3.42-4.63-4.35-8.2-9.59-10.34-15.18l-2.82-7.34c-.67-1.76-.75-4.38-.73-6.96l.03-5.16c.47-1.45.72-2.97.78-4.75.43-1.17.65-2.44.62-3.69l1.94-6.39c.98-1.2,1.72-2.56,2.2-4.04.92-1.25,1.48-2.47,1.84-3.36,1.88-2.31,3.25-4.19,4.27-5.88.47-.39.89-.8,1.28-1.22l4.84-4.07.15-.09c.54-.33,1.52-.92,2.57-1.84.26-.1.51-.2.77-.32,2.23-.17,4.33-1.07,6.02-2.57,3.48.07,7.58-.85,11.04-2.46,3.12.45,6.42-.12,9.14-1.6l3.6.22,5.46,1.06,2.09.23c1.33.93,2.57,1.45,3.34,1.78l.1.04c.06.03.12.05.18.08l3.99,2.22,2.08,1.29,3.05,2.17.14.14c.68.71,1.92,2.01,3.75,3.05.57.73,1.22,1.39,1.95,1.96l2.65,3.42,5.27,9.08c.27.47.66,1.39.88,2.09l2.14,6.31c.07,2.27.43,4.58,1.16,7.42-.31,6.23-.85,12.75-3.51,18.2Z"/>
    <path class="cls-1" d="M152.07,367.61l-29.2-.12h-28.96s-.77,5.59-.77,5.59c-.39,2.85.52,5.48,2.7,7.8.79,2.17,2,3.96,2.99,5.42l.09.14c.21.31.42.63.62.94l1.84,2.87,3.25,5.64,3.31,5.29c.04.07.11.2.16.31.28.56.74,1.46,1.5,2.39.6,1.79,1.71,3.63,3.38,5.61l3.18,5.9,2.47,4.29.38.79c1.96,4.04,5.42,4.62,6.82,4.67h.3c1.15,0,5.02-.35,6.91-4.86l3.92-6.28,1.09-2.08,4.49-7.92c.17-.31.47-.72.78-1.16.53-.75,1.19-1.67,1.82-2.82l1.55-2.81,2.03-2.96,1.28-2.41c.16-.31.45-.84.7-1.54.97-1.06,1.59-2.14,1.97-2.8l2.86-4.96c.69-.81,1.22-1.71,1.58-2.71,1.34-1.68,2.02-3.97,1.77-6.07-.42-3.55-3.28-6.14-6.82-6.15ZM154.65,378.11l-.2.23-.09.29c-.25.76-.64,1.45-1.18,2.05l-3.11,5.33c-.39.67-.92,1.59-1.76,2.46l-.25.25-.11.34c-.19.6-.44,1.07-.6,1.38l-1.15,2.19-2.03,2.95-1.66,3.01c-.55,1-1.15,1.85-1.64,2.53-.35.5-.69.97-.94,1.41l-4.52,7.96-1.03,1.97-3.96,6.34-.12.23c-1.09,2.71-3.09,3.11-4.18,3.11h-.18c-1.06-.05-3.03-.49-4.24-2.99l-.41-.84-2.53-4.39-3.23-6-.18-.26c-1.53-1.79-2.54-3.46-3-4.97l-.09-.31-.21-.24c-.64-.73-1.03-1.5-1.29-2.02-.09-.18-.22-.42-.27-.52l-3.3-5.28-3.26-5.65-1.87-2.93c-.21-.33-.43-.66-.66-1l-.09-.14c-.98-1.45-2.09-3.1-2.75-5.03l-.11-.33-.24-.25c-1.08-1.09-2.47-2.85-2.1-5.52l.41-2.99h26.34s29.19.11,29.19.11c1.99,0,3.61,1.48,3.85,3.5.16,1.37-.33,2.93-1.25,3.99Z"/>
    <path class="cls-1" d="M142.14,381.54l-.52-1.28-.12-.16c-.49-.63-.95-1.3-1.43-2.03l-.13-.19-.18-.15c-.79-.65-1.5-1.4-2.09-2.24l-.51-.71-.87.09c-.35.04-.65.05-.88.05-2.67,0-5.23-1.15-7.03-3.15-.1-.11-.2-.22-.29-.34l-.43-.52-.67-.03c-2.48-.1-5.08.4-7.66,1.49-3.32,1.4-6.59,4.34-9.21,8.28-.84,1.27-1.37,3.53-1.81,7.81l-.02.19.43,2.91.37.36c1.52,1.45,2.79,3.36,3.77,5.67l.08.19.13.16c1.31,1.63,2.3,3.35,2.92,5.12l.14.39.58.49.22.09c.87.37,1.73.85,2.61,1.47l.25.18,3.39.72,6.87-.1.31-.16c.79-.4,2-.97,3.41-1.39l.25-.07.21-.15c.85-.62,1.72-1.19,2.6-1.69l.66-.37.09-.75c.12-1.02.36-2.03.72-3.02.96-2.7,2.63-5.01,4.81-6.68l.56-.43.21-4.89-.04-.19c-.33-1.5-1.01-3.18-1.73-4.96ZM140.77,390.07c-2.37,1.98-4.18,4.6-5.26,7.61-.34.96-.6,1.94-.76,2.93-.69.42-1.38.87-2.05,1.35-1.36.42-2.52.95-3.35,1.36l-5.84.08-2.47-.53c-.8-.55-1.59-1-2.4-1.38-.72-1.83-1.75-3.6-3.08-5.28-1.05-2.42-2.4-4.46-4.01-6.1l-.23-1.53c.36-3.4.79-5.5,1.3-6.27,2.3-3.45,5.09-6,7.88-7.18,1.95-.82,3.88-1.25,5.74-1.27,2.37,2.57,5.7,4.04,9.17,4.04.1,0,.21,0,.32,0,.58.72,1.23,1.39,1.94,1.98.44.66.87,1.27,1.31,1.86l.37.91c.64,1.58,1.24,3.08,1.54,4.3l-.13,3.1Z"/>
  </g>
  <g>
    <path class="cls-3" d="M198.33,746.74c-.65-1.52-1.68-2.82-3.02-3.81-.22-.64-.42-1.31-.63-1.98-.58-1.89-1.28-4.19-2.55-6.41.97-1.56,1.65-3.25,2.02-5.05l.68-3.28c.1-.14.21-.29.3-.41.17-.23.33-.45.48-.66l.15-.22s.08-.12.14-.23c2.73-2.9,3.79-6.39,3.06-10.11l-1.3-6.63-6.78-.1-4.18-3.66c-.76-.67-1.93-1.58-3.42-2.4,0-2.22-.4-4.22-.72-5.87-.51-2.56-.77-4.09-.24-5.74l2.73-8.6-8.79-2.05c-1.26-.29-2.57-.44-3.87-.44-1.47,0-2.74.18-3.9.39-2.93-1.1-5.62-1.68-8.2-1.76l-7.38-7.38-.6-1.66c-2.24-6.15-7.03-6.81-8.99-6.81-1.15,0-2.27.2-3.45.61-1.56.55-2.95,1.46-4.15,2.72l-3.07.96c-1.89.59-4.2,1.3-6.44,2.51-2.94-1.74-6.05-2.46-8.16-2.96-.42-.1-.93-.22-1.36-.33-2.17-2.34-4.72-3.52-7.58-3.52-2.06,0-4.07.66-5.81,1.91-2.83,2.03-3.78,4.98-4.24,6.48-.42.6-1.23,1.41-2.02,2.19-1.29,1.29-3.01,3.01-4.37,5.26-2.28.05-4.31.54-6.12.98-1.44.35-2.81.68-3.97.68-.47,0-.9-.05-1.33-.16-.74-.18-1.51-.28-2.31-.28-2.98,0-5.71,1.25-7.47,3.44-1.68,2.07-2.31,4.76-1.75,7.38l.53,2.45c-.06.52-.35,1.75-.46,2.25-.45,1.96-1.05,4.58-1,7.48-1.79,1.02-3.4,2.35-4.81,3.97-.64.73-1.62,1.49-2.85,2.2l-.86.2c-3.19.74-5.67,3.04-6.65,6.14-1,3.18-.18,6.76,2.14,9.33l1.04,1.15c.17.45.37.88.6,1.3.21,2.01.83,4.08,1.84,6.16.21.44.57,1.18,1.1,2.05-1.57,2.56-2.65,5.54-3.02,8.36l-.18.3c-3.88,3.2-5.18,7.75-3.39,11.94l1.59,3.73,3.92,1.06c1.82.49,3.05,1.64,4.76,3.23,1.27,1.19,2.82,2.63,4.79,3.81-.02,2.59.52,4.85.96,6.71.25,1.06.47,1.99.54,2.77-.76,1.69-1,3.45-.73,5.23.75,4.88,4.58,8.15,9.53,8.15,1.47,0,2.76-.29,3.95-.56l.18-.04c.58.16,1.2.27,1.83.34,2.46,1.05,5.17,1.6,7.86,1.56.19.33.4.66.61.97,1.41,2.1,3.3,4.12,5.63,6.01.27.56.62,1.53.87,2.2.18.49.36.98.55,1.47l2.75,7.1,7.32-2.09c3.36-.96,5.39-2.84,6.5-3.97.24-.06.53-.11.83-.18,1.86-.38,4.62-.94,7.83-2.86,2.46,1.48,5.46,2.46,8.95,2.93l.2.06c3.01,3.41,6.51,3.94,8.36,3.94.45,0,.91-.03,1.37-.09,2.31-.3,6.38-1.69,8.05-7.62l2.13-2.82c1.74-1.45,3.17-3.13,4.27-4.98,2.61.07,5.27-.43,7.67-1.45.92-.39,1.62-.54,2.52-.54s2,.15,3.54.46l14.36,2.92-4.82-13.84c-.49-1.4-.3-2.66.28-5.39.38-1.79.84-3.96.85-6.38,2.49-1.43,4.18-3.21,5.36-4.45.24-.25.71-.75.89-.91l.18-.11c.51-.32.88-.55,1.1-.64,3.15-.47,5.87-2.37,7.29-5.12,1.42-2.74,1.41-5.97-.05-8.86ZM195.71,754.22c-1,1.93-2.94,3.26-5.2,3.55l-.27.06c-.54.17-1.04.48-1.86.99l-.34.22c-.26.19-.6.53-1.35,1.32-1.14,1.2-2.86,3.01-5.35,4.26l-.88.44.05.98c.12,2.42-.35,4.62-.77,6.57-.61,2.89-.95,4.78-.18,7l3.09,8.86-9.2-1.87c-3.85-.78-5.48-.74-7.83.26-2.25.96-4.81,1.37-7.22,1.17l-.99-.08-.46.88c-.99,1.89-2.38,3.58-4.13,5.02l-2.83,3.69-.08.29c-.89,3.41-2.78,5.33-5.61,5.69-.33.04-.66.06-.99.06-1.69,0-4.17-.55-6.34-3.19l-.28-.34-1.16-.37-.26-.06c-3.49-.45-6.39-1.46-8.62-2.98l-.82-.56-1.01.65c-3.01,1.94-5.69,2.49-7.49,2.85-.53.11-1.04.21-1.42.33l-.42.17-.27.28c-.94.97-2.52,2.6-5.41,3.42l-4.69,1.34-1.76-4.55h0c-.18-.48-.36-.95-.53-1.43-.36-.97-.8-2.18-1.2-2.88l-.14-.25-.23-.18c-2.2-1.75-3.97-3.62-5.26-5.54-.33-.49-.63-1-.89-1.52l-.45-.88-.99.06c-2.58.16-5.27-.32-7.65-1.37l-.23-.1-.25-.02c-.65-.06-1.27-.17-1.83-.35l-.38-.12-1.02.22c-1.08.24-2.1.47-3.24.47-3.47,0-6.04-2.2-6.57-5.61-.2-1.29.02-2.57.63-3.82l.17-.34v-.38c-.06-1.13-.34-2.32-.66-3.69-.45-1.89-1-4.23-.85-6.79l.06-.96-.85-.45c-2.01-1.06-3.58-2.53-4.97-3.82-1.87-1.74-3.48-3.24-6.02-3.93l-2.51-.68-1.02-2.39c-1.26-2.97-.22-6.25,2.71-8.58l.21-.16.81-1.31.04-.34c.31-2.76,1.44-5.75,3.1-8.18l.58-.84-.58-.85c-.72-1.05-1.16-1.97-1.43-2.52-.9-1.86-1.43-3.68-1.58-5.43l-.03-.34-.17-.29c-.25-.42-.46-.88-.63-1.36l-.1-.28-1.43-1.59c-1.61-1.79-2.19-4.25-1.5-6.42.65-2.08,2.32-3.62,4.47-4.12l1.28-.3.18-.1c1.63-.91,2.92-1.9,3.83-2.95,1.38-1.58,2.98-2.83,4.76-3.72l.9-.45-.07-1c-.2-2.85.43-5.58.89-7.58.29-1.26.54-2.36.55-2.99v-.18s-.61-2.84-.61-2.84c-.37-1.72.05-3.49,1.15-4.86,1.19-1.48,3.06-2.32,5.13-2.32.55,0,1.08.06,1.58.19,2.11.52,4.35.06,6.74-.52,1.86-.45,4.03-.97,6.22-.89l.94.03.44-.83c1.2-2.26,2.91-3.97,4.29-5.35,1.01-1.01,1.97-1.97,2.54-2.87l.1-.16.1-.32c.41-1.32,1.09-3.52,3.14-5,1.23-.88,2.63-1.35,4.06-1.35,2.12,0,3.96.93,5.63,2.84l.29.33.42.12c.52.15,1.31.34,1.93.49,2.22.52,5.26,1.23,7.98,3.03l.79.52.81-.49c2.17-1.31,4.62-2.07,6.59-2.68l3.86-1.2.28-.31c.92-1.04,1.99-1.78,3.19-2.19.85-.3,1.65-.44,2.45-.44,2.01,0,4.72.84,6.17,4.84l.83,2.28,6.75,6.75-.04.78.77,1.27.9-.05c2.79-.16,5.74.39,9.1,1.69l.4.16.42-.08c1.05-.2,2.29-.42,3.76-.42,1.08,0,2.15.12,3.19.37l5.63,1.31-1.75,5.51c-.73,2.29-.43,4.26.16,7.23.34,1.72.76,3.86.64,6.1l-.05,1,.9.43c1.61.78,2.85,1.74,3.62,2.41l4.49,3.94.75.46,5.22.08.84,4.25c.55,2.81-.25,5.35-2.39,7.57l-.46.66c-.14.2-.3.41-.46.62-.16.22-.38.52-.53.74l-.17.25-.8,3.88c-.35,1.71-1.05,3.31-2.09,4.74l-.6.84.56.86c1.39,2.12,2.13,4.55,2.72,6.51.25.81.53,1.73.83,2.56l.17.47.42.27c1.06.69,1.87,1.67,2.35,2.81l.05.1c1.03,2.03,1.06,4.28.08,6.17Z"/>
    <path class="cls-3" d="M166.84,705.05c-2.96-4.28-6.8-8.19-11.42-11.62l-.39-.29h-.48c-2.72-.05-5.25-1.53-6.6-3.87l-.29-.41-.49-.26c-.64-.34-.96-.51-1.18-.6l-8-3.18-9.02-.82-8.94.1-1.36.14-11.87,3.28-.29.11c-.24.12-.65.36-1.03.59-.92.54-2.06,1.22-3.4,1.74l-.33.13-.24.26c-.93,1.01-2.08,1.77-3.51,2.33l-.19.07-2.95,2.18c-2.87,2.12-5.45,5.11-7.39,7.49l-2.94,3.73-3.2,6.12-3.99,9.65c-1.35,3.28-1.51,7.6-1.49,10.99l.03,6.09c0,1.42.01,2.22.13,2.71l1.41,6.13,5.7,12.89c1.63,3.67,4.81,7.49,9.44,11.37l4.48,3.76,3.13,1.58,2.64,1.56.09.05c7.27,3.67,15.39,5.61,23.48,5.61,8.66,0,17.17-2.21,24.6-6.4,8.73-4.92,15.99-12.55,20.44-21.5,4.15-8.33,5.74-17.57,4.74-27.47-.83-8.23-4.06-16.61-9.33-24.23ZM168.75,755.41c-4.18,8.41-11.01,15.59-19.23,20.22-6.98,3.93-14.98,6.01-23.13,6.01-7.61,0-15.25-1.82-22.09-5.27l-2.65-1.57-2.82-1.38-4.34-3.64c-4.28-3.58-7.18-7.04-8.62-10.28l-5.55-12.48-1.37-5.98c-.06-.31-.05-1.57-.05-2.05l-.03-6.11c-.02-3.11.11-7.04,1.26-9.83l3.91-9.47,2.96-5.69,2.83-3.6c1.82-2.23,4.23-5.04,6.83-6.95l2.63-1.94c1.65-.66,3.06-1.59,4.21-2.77,1.42-.58,2.63-1.3,3.59-1.86.22-.13.49-.29.69-.4l11.35-3.15,1.02-.11,8.72-.1,8.44.77,7.6,3.02c.14.06.42.21.69.36,1.83,2.89,4.99,4.75,8.42,4.97,4.19,3.17,7.68,6.75,10.38,10.65,4.99,7.21,8.03,15.1,8.82,22.83.94,9.32-.55,18.01-4.44,25.83Z"/>
    <path class="cls-3" d="M150.55,712.49l-15.41-.04h-5.06s-34.11-.05-34.11-.05l-.77,5.27c-.52,3.6,1.2,6.09,1.93,7.15l.06.09c.04.06.08.11.11.16l3.82,6.45,5.63,9.33c.09.15.18.31.28.48.52.9,1.22,2.11,2.34,3.22l.37,1.35,1.52,2.41,5.58,9.47,2.16,3.98.42.43c.56,1.63,1.62,2.95,3.06,3.83,1.02.62,2.2.95,3.41.95,3.44,0,6.03-2.56,7.03-5,.64-.9,1.08-1.78,1.41-2.44.15-.29.33-.66.42-.79l1.38-2.05,5.8-9.78,2.28-3.96c.04-.07.14-.21.22-.32.46-.67,1.14-1.64,1.58-2.96.55-.58,1.05-1.28,1.5-2.14l6.91-11.89.12-.16c.38-.49,1-1.3,1.47-2.43,1.35-2.04,1.47-4.78.31-6.99-1.14-2.17-3.36-3.53-5.78-3.55ZM109.64,739.81c-.1-.18-.21-.36-.31-.53l-1.46-2.4-2.39-4.08-1.79-2.85-3.8-6.42c-.07-.12-.16-.24-.29-.43-.62-.9-1.78-2.57-1.43-5.01l.39-2.7,24.21.05-3.2,1.17c-3.17,1.16-6.2,3.38-9.81,7.21l-.15.16-1,1.98-1.03,3.91v.21c.03,1.03,0,1.98-.04,2.82-.02.54-.05,1.25-.04,1.66v.23s1.1,3.21,1.1,3.21l.34.27c.94.75,1.72,1.66,2.3,2.71.34.61.6,1.26.8,1.93l-.31-.28c-.96-.88-1.59-1.96-2.09-2.82ZM125.32,717.71c1.13.17,3.49,1.08,4.81,1.59,3.21,1.24,8.84,4.19,10.5,10l.05.17c.1.37.26.92.49,1.56v3.28c-2.28,2.12-3.87,4.97-4.53,8.11-.06.27-.1.54-.14.81-.64.53-1.23,1.12-1.76,1.78-2.69,1.84-5.25,2.74-7.83,2.74-1.99,0-4.2-.54-6.57-1.59l-3.79-2.41-1.59-1.61c-.26-.91-.63-1.79-1.1-2.62-.7-1.26-1.61-2.37-2.7-3.3l-.66-1.94c0-.37.02-.86.04-1.25.03-.83.07-1.77.05-2.81l.78-3.05.73-1.45c3.21-3.37,5.83-5.32,8.5-6.29l4.72-1.72ZM153.52,721.38l-.22.4c-.32.82-.78,1.42-1.15,1.9-.07.09-.14.18-.25.36l-6.97,11.98-.1.18c-.33.63-.72,1.16-1.16,1.57l-.3.28-.11.39c-.3,1.04-.85,1.83-1.29,2.46-.12.17-.28.42-.34.51l-2.28,3.97-4.23,7.16-1.51,2.52-1.34,1.99c-.2.29-.4.69-.62,1.13-.32.63-.71,1.41-1.26,2.16l-.12.17-.07.19c-.6,1.58-2.31,3.26-4.3,3.26-.66,0-1.29-.18-1.85-.52-.92-.56-1.54-1.39-1.86-2.48l-.1-.35-.63-.66-1.99-3.67-5.63-9.56-1.31-2.08-.45-1.63c.02.09.06.17.08.25l.1.39,2.27,2.3,4.28,2.77.19.1c2.79,1.26,5.45,1.9,7.9,1.9,3.27,0,6.45-1.11,9.72-3.4l.18-.13.14-.18c.54-.69,1.16-1.3,1.84-1.81l.52-.39.07-.65c.04-.39.11-.78.19-1.17.57-2.76,1.97-5.15,4.04-6.9l.53-.45.02-5.19-.1-.26c-.24-.63-.39-1.17-.5-1.58l-.04-.16c-2.01-7.07-8.57-10.54-12.31-11.99-1-.39-1.95-.75-2.82-1.05h1.69s5.07,0,5.07,0h11.66s3.71.04,3.71.04c1.32.02,2.53.76,3.16,1.95.66,1.26.6,2.8-.16,3.94Z"/>
  </g>
  <g>
    <path class="cls-7" d="M183.64,1072.05c.23-.3.46-.61.66-.92.22-.26.43-.54.62-.83,4.38-5.62,5.99-13.07,4.56-20.97l-1.14-6.3-2.93-13.83c-.25-1.2-.02-2.71.18-4.04.34-2.23.92-5.96-1.87-9.21-2.02-2.36-5.25-3.47-8.35-2.91h-4.47c-2.82,0-5.75-.34-9.23-1.09l-10.17-2.2-12.12-.19c-2.54,0-4.43.78-5.33,1.15l-.14.06c-2.91,1.04-5.56,2.53-7.9,4.43-.11-.08-.22-.15-.31-.22l-.09-.06c-.13-.09-.26-.18-.36-.26l-.25-.2c-1.19-.98-3.18-2.6-5.93-3.14-2.33-.97-4.52-1.51-6.67-1.64-3.27-.61-6.71-.63-10.01-.07-4.3.1-8.23,1.09-11.53,2.07l-1.13.04-3.28.92c-1.56.46-3.54.5-5.59.5h-2.06s-.62,0-.62,0c-1.85-.34-4.12-.11-5.69.11l-9.74,1.36,2.93,9.39c.45,1.44.59,3.02.46,5.4-.47,1.33-.57,2.49-.61,3.06l-3,15.37c-.63,3.23-1.28,8.11.35,13.15l1.36,4.23c.94,2.91,2.48,4.95,3.95,6.63-.38.46-.74.93-1.09,1.41-1.7,2.34-4.01,5.99-4.52,10.71l-.56,1.84-.05,8.1.57,3.37.7,3.74,1.65,7.69c.13.69.31,1.34.55,1.95v.38c0,1.08.19,2.14.56,3.17l-.24,9.5.86,1.8c1.62,3.4,5,5.51,8.82,5.51,1.84,0,3.39-.49,4.29-.8.85,0,2.34.29,3.55.53l17.65,3.45,12.31.05,5.45-1.7c2.62-.82,5.09-2.23,7.37-4.22,2.45,2.04,5.02,3.47,8.03,4.47.16.05.32.12.48.18l.15.06c1.26.51,3.38,1.35,6.04,1.38l8.47.09,16.34-3.42,5.59-.74,6.63.62,1.67-.55c3.43-1.14,8.53-5.25,6.09-13.44.14-3.68,1.09-7.52,1.93-10.93.87-3.51,1.69-6.82,1.67-9.98.54-1.84.53-3.49.53-4.49l.02-2.38c.07-7.01-2.07-13.04-6.06-17.16ZM186.67,1091.59c0,.93,0,2.33-.46,3.82l-.07.23v.25c.06,2.83-.7,5.89-1.58,9.46-.89,3.62-1.91,7.71-2.02,11.79v.25s.07.24.07.24c2.32,7.39-3.01,9.58-4.1,9.94l-1.07.36-6.34-.59-5.98.79-12.9,2.66-3.3.72-8.13-.08c-2.1-.02-3.75-.68-4.96-1.17l-.14-.06c-.22-.09-.44-.17-.65-.25-2.88-.96-5.31-2.37-7.66-4.44l-1.4-1.24-1,.97c-2.22,2.15-4.64,3.65-7.19,4.44l-5.01,1.57-11.42-.02-17.52-3.43c-1.4-.28-2.98-.59-4.12-.59-.21,0-.35.01-.42.02l-.41.1c-.73.26-1.96.69-3.45.69-2.65,0-5-1.46-6.12-3.8l-.55-1.15.23-9.38-.11-.28c-.31-.77-.46-1.57-.46-2.37v-.96s-.12-.28-.12-.28c-.21-.5-.37-1.06-.49-1.69l-1.65-7.69-.69-3.67-.52-3.09.05-7.4.48-1.56.06-.29c.4-4.07,2.46-7.32,3.97-9.4.56-.77,1.16-1.5,1.78-2.18l.93-1.01-1.25-1.36c-1.42-1.56-3.01-3.45-3.88-6.17l-1.36-4.23c-1.41-4.38-.82-8.75-.26-11.66l3.01-15.47.02-.19c.03-.46.09-1.43.5-2.51l.08-.22v-.23c.18-2.89,0-4.83-.57-6.68l-1.87-6.01,6.24-.87c1.49-.21,3.37-.4,4.84-.11l.15.03h.9s2.06,0,2.06,0c2.29,0,4.51-.05,6.45-.63l2.72-.81,1.13-.04.38-.06c3.17-.95,6.96-1.93,11.03-2l.23-.02c3.01-.53,6.16-.51,9.15.06l.2.02c1.88.1,3.82.59,5.92,1.48l.32.1c2.07.37,3.67,1.68,4.73,2.54l.33.26c.14.11.3.22.46.33l.09.07c.31.22.71.5,1.16.86l.99.78.94-.84c2.27-2.03,4.92-3.59,7.91-4.67l.21-.08c.84-.35,2.24-.92,4.17-.92l11.66.15,10.02,2.16c3.68.8,6.82,1.17,9.86,1.17h4.61s.29-.03.29-.03c2.1-.42,4.28.3,5.65,1.89,1.89,2.2,1.48,4.86,1.18,6.81-.23,1.5-.52,3.38-.15,5.12l2.92,13.78,1.14,6.26c1.29,7.07-.14,13.69-4,18.63l-.07.1c-.16.24-.32.46-.5.67l-.11.14c-.39.6-.85,1.18-1.36,1.73l-1.05,1.13,1.15,1.02c4,3.53,6.17,9.18,6.11,15.9l-.02,2.41Z"/>
    <path class="cls-7" d="M99.34,1099.15h54.26s.17-52.92.17-52.92l-54.26.18-.17,52.74ZM102.5,1049.4l48.26-.16-.15,46.91h-48.26s.15-46.75.15-46.75Z"/>
    <path class="cls-7" d="M172.84,1064.36l-.09-.25c-.43-1.26-.58-2.36-.69-3.17l-.06-.41-3.93-11.27-2.62-4.71-6.67-8.28-4.22-3.44h-.51c-2.46-.07-4.71-1.08-6.34-2.86l-.4-.44-.6-.04c-1.43-.1-2.82-.58-4.02-1.4l-.25-.17-.3-.06c-1.92-.37-3.74-1.22-5.26-2.47l-.53-.44-.68.12c-1.27.22-2.62.13-3.87-.25l-.27-.08-.29.02c-3.2.25-9.94.51-13.12.51-1.5,0-2.79,0-4.09-.39l-.42-.13-.42.12c-.25.07-.49.13-.73.2l-.52.13-.32.43c-1.65,2.24-4.28,3.58-7.03,3.58-.28,0-.56-.01-.84-.04l-.51-.05-.43.27c-.71.45-1.36.78-1.91,1.07-.29.15-.63.33-.81.45l-2.05,1.42-1.35,1.22-7.82,8.12-1.84,2.63-2.12,3.73-3.73,7.46-.03.28c-.17,1.85-.74,3.36-1.15,4.48l-.74,1.82v3.55s.54,10.24.54,10.24l.41,2.75,2.44,8.84.22.25c1.58,1.85,2.74,3.93,3.34,6.02l.12.42.33.29c.69.61,1.36,1.33,1.98,2.15l4.26,5.64,3.46,3.28,3.5,2.59.45.03c2.36.16,4.52,1.32,5.93,3.18l.16.21.22.14c.39.25.78.54,1.16.84l.26.21.32.08c.26.07.53.14.79.22l3.22.96,9.1,2.25h.19c3.99-.05,9.95-.26,15.73-1.56l.13-.03c1.06-.24,1.85-.43,2.32-.6l6.27-2.6,1.59-.84.21-.38c.41-.72.92-1.39,1.5-1.99,1.57-1.6,3.59-2.6,5.86-2.88l.39-.05.32-.24c2.74-2.03,5.16-4.46,7.2-7.21l2.21-2.98,3.12-5.43,1.25-2.55.81-2.69.78-2.99,1.62-9.26-.12-7.05v-.52ZM168.41,1080.48l-.75,2.89-.67,2.28-1.12,2.3-2.96,5.16-2.16,2.91c-1.79,2.41-3.9,4.55-6.28,6.37-2.78.43-5.26,1.71-7.22,3.7-.66.68-1.25,1.42-1.74,2.23l-.64.34-6.15,2.55c-.14.05-.58.17-1.91.47l-.1.02c-5.41,1.22-11.06,1.43-14.91,1.48l-8.66-2.14-3.15-.94c-.2-.06-.41-.12-.61-.17-.31-.24-.62-.47-.94-.68-1.84-2.3-4.54-3.77-7.49-4.1l-2.2-1.67-.47-.3-3.08-2.9-4.18-5.54c-.64-.85-1.34-1.63-2.06-2.3-.72-2.26-1.95-4.48-3.6-6.46l-2.2-7.94-.37-2.44-.54-10.09v-2.86s.57-1.4.57-1.4c.42-1.14,1.05-2.84,1.29-4.95l3.45-6.89,1.98-3.49,1.58-2.29,7.67-7.96,1.05-.96,1.91-1.32c.1-.06.35-.19.62-.33.4-.21.98-.51,1.62-.89,3.68.2,7.33-1.43,9.69-4.3,1.54.38,3.02.38,4.46.38,3.14,0,9.71-.25,13.07-.49,1.4.39,2.87.52,4.31.36,1.71,1.28,3.69,2.18,5.77,2.62,1.41.9,3,1.47,4.64,1.68,2.02,2,4.67,3.19,7.55,3.37l3.09,2.49,6.35,7.84,2.38,4.25,3.77,10.75.03.21c.11.83.27,2.06.74,3.5v.07s.12,6.79.12,6.79l-1.54,8.79Z"/>
    <path class="cls-7" d="M140.95,1056.72l-1.28-.77-7.67-.22-.22-.02c-.71-.06-1.82-.09-2.71.07h-22.76s1.03,6.56,1.03,6.56c.31,1.95,1.17,3.32,1.62,4.05l4.22,6.83c.38.61.97,1.51,1.8,2.4.56,1.16,1.21,2.16,1.8,3.07.39.6.8,1.23,1.04,1.72l.58,1.17c.25.51.55.98.88,1.4.5,1.19,1.2,2.21,2.1,3.04,1.14,1.07,2.62,1.66,4.16,1.66h0c2.06,0,3.95-1.03,5.1-2.78.74-.82,1.24-1.66,1.61-2.28l5.35-8.77,3.94-6.57.19-.34c1-1.01,1.72-2.37,1.99-3.75.51-2.61-.58-5.15-2.78-6.48ZM140.78,1062.61c-.17.86-.65,1.73-1.29,2.33l-.17.16-9.64,15.98c-.36.59-.76,1.26-1.34,1.9l-.17.22c-.58.92-1.59,1.49-2.64,1.49-.78,0-1.53-.3-2.11-.85-.62-.58-1.1-1.3-1.44-2.16l-.09-.23-.16-.19c-.24-.29-.46-.63-.64-1l-.58-1.17c-.32-.65-.78-1.35-1.23-2.05-.59-.91-1.2-1.84-1.69-2.9l-.11-.23-.18-.18c-.72-.74-1.25-1.54-1.58-2.07l-4.22-6.84c-.4-.63-.99-1.59-1.21-2.93l-.49-3.1h19.39s.3-.03.3-.03c.64-.13,1.4-.1,2.11-.05.1,0,.19.01.28.02l6.89.2.6.37c1.11.67,1.65,1.98,1.39,3.33Z"/>
  </g>
  <g>
    <path class="cls-2" d="M193.23,937.01c-.44-3.72-.08-8.1.31-11.95l.09-.89-.79-6.95c-.21-1.87-.89-3.62-2.02-5.18l-.34-.95c-.42-1.15-1-2.21-1.74-3.16.07-.09.13-.19.2-.29l1.36-2.02c3.2-4.76,3.02-10.4,2.82-16.4-.12-3.65-.24-7.41.52-10.26,1.81-2.34,2.61-5.11,2.31-8.03l-.64-6.27-12.9-2.28c-.23-.1-.77-.36-1.01-.48-.72-.36-1.59-.79-2.6-1.17-1.22-1.16-2.69-2.02-4.3-2.5-1.69-1.57-3.85-2.64-6.3-3.09-1.35-.87-2.94-1.39-4.73-1.55-2.32-.21-4.21-.25-5.99-.13-.92-1.91-2.29-3.64-3.95-4.94-.26-.21-.54-.41-.83-.59-.35-.38-.74-.75-1.15-1.1-1.25-1.89-3-3.31-5.08-4.13-.31-.23-.64-.45-.98-.65l-3.33-1.99-3.23-1.81-1.96-1.2c-.47-.29-.81-.52-1.04-.68-.34-.94-1-2.5-2.27-3.9-2.38-3.54-5.7-4.12-7.48-4.15l-2.92-.05-2.31,1.78c-1.67,1.29-2.95,2.82-3.8,4.56-.52.46-.98.94-1.39,1.45l-.09.1c-.12.12-.25.27-.39.43-1.06.58-2.01,1.28-2.83,2.09-.93.38-1.63.83-2.09,1.14-1.08.6-2.04,1.26-2.87,1.97-3.21.64-5.17,2.8-5.93,3.65l-.09.07c-.6.49-1.81,1.47-2.83,3.02-1.58,1.14-2.87,2.7-3.76,4.59-4.23-.47-8.66.42-12.49,2.51l-3.52,1.42-4.45,2.88-6.25,2.85c-.15.07-.29.14-.43.21l-3.33.35c-2.8.29-5.22,1.85-6.65,4.26-2.42,4.11-.65,8.27.02,9.84l.85,2c.09.88.27,1.69.54,2.47l-.12,10c-.04,3.07.27,6.02.96,9.3.52,2.46,1.85,4.59,3.87,6.18.02.03.04.06.06.09-1.43,1.83-2.6,3.95-3.5,6.33-1.71,4.57-1.52,9.26-1.34,13.8.13,3.16.26,6.43-.33,9.35l-6.54,13.44,10.48,2.19c2.17.45,4.5.89,6.96,1.06,1.77,1.15,3.33,1.93,4.85,2.43.29.26.59.51.92.74.89.65,1.83,1.15,2.81,1.5,1.36,1.12,2.74,1.75,3.41,2.07l.34.16c2.17,1.04,4.42,1.69,7.08,2.05,2.22.3,4.16.38,6.01.24.06.09.11.19.17.28.53,1.91,1.7,3.58,3.32,4.75l2.8,2.75c2.54,2.5,5.34,3.85,7.81,5.05,1.09.53,2.12,1.03,2.88,1.54l2.44,1.61c.76.86,1.55,1.49,2.04,1.87l1.07,1.62c.95,2.23,2.48,3.84,4.55,4.78,1.18.53,2.43.8,3.73.8,3.24,0,6.28-1.7,8.34-4.65l2.91-4.17c1.1-.52,1.94-1.11,2.56-1.56l7.41-4.27c1.94-1.11,5.51-3.16,7.53-6.89,1.07-1.04,1.94-2.19,2.61-3.49,1.47.13,2.97.1,4.58-.08,1.68.14,3.35-.19,5.03-.99,4-.91,7.22-3.23,8.31-4.09h0c.81-.4,2.11-1.05,3.38-2.24,1.4-.38,2.48-.96,3.19-1.36,1.24-.26,7.19-1.52,7.19-1.52,4.49-.95,7.39-5.01,6.91-9.67-.22-2.11-1.16-4.24-2.6-5.91ZM188.3,949.66c-6.4,1.35-7.51,1.58-7.85,1.74h0c-.67.38-1.67.95-3,1.26l-.43.1-.31.31c-1.01,1.03-2.13,1.59-2.88,1.96l-.42.24c-1.68,1.35-4.51,3.02-7.38,3.64l-.35.12c-1.28.63-2.5.89-3.73.76l-.16-.02-.16.02c-1.81.22-3.48.21-5.05-.02l-1.15-.17-.45,1.07c-.6,1.42-1.44,2.62-2.57,3.68l-.19.18-.12.23c-1.59,3.09-4.65,4.84-6.48,5.89l-7.38,4.24c-.1.06-.19.13-.33.23-.57.4-1.35.96-2.35,1.38l-.4.17-3.39,4.87c-1.49,2.14-3.64,3.37-5.88,3.37-.87,0-1.7-.18-2.49-.54-1.41-.64-2.41-1.73-3.07-3.33l-1.57-2.43-.21-.16c-.42-.31-1.2-.9-1.9-1.73l-.14-.17-2.78-1.84c-.92-.62-2.05-1.17-3.24-1.75-2.26-1.1-4.82-2.34-7.01-4.49l-2.88-2.83-.19-.16c-1.15-.8-1.96-1.99-2.29-3.33l-.06-.24-.13-.21c-.23-.36-.44-.74-.63-1.12l-.47-.96-1.06.13c-1.87.23-3.89.19-6.27-.13-2.34-.31-4.31-.88-6.19-1.79l-.36-.17c-.64-.3-1.83-.85-2.95-1.81l-.23-.2-.29-.09c-.77-.25-1.53-.64-2.24-1.16-.32-.23-.61-.48-.88-.73l-.26-.25-.34-.1c-1.44-.43-2.94-1.19-4.73-2.39l-.34-.23-.41-.02c-2.41-.14-4.75-.57-6.92-1.03l-6.71-1.4,4.94-10.15.12-.34c.71-3.33.57-6.86.43-10.28-.17-4.24-.35-8.62,1.15-12.62.92-2.45,2.17-4.58,3.71-6.33l.82-.93-.75-.98c-.3-.39-.56-.77-.79-1.11l-.14-.21-.21-.15c-1.56-1.18-2.55-2.71-2.94-4.56-.64-3.06-.93-5.81-.89-8.65l.13-10.55-.1-.26c-.25-.67-.41-1.39-.48-2.19l-.02-.24-1.03-2.44c-.6-1.41-1.84-4.33-.19-7.14.93-1.59,2.53-2.61,4.37-2.8l3.96-.42.28-.16c.16-.09.32-.18.46-.25l6.34-2.89,4.36-2.84,3.47-1.4.17-.08c3.62-2,7.88-2.74,11.8-2.06l1.23.21.43-1.17c.71-1.91,1.87-3.45,3.37-4.46l.27-.18.17-.28c.78-1.27,1.79-2.09,2.38-2.56l.38-.35c.65-.72,2.18-2.42,4.61-2.78l.46-.07.34-.31c.73-.67,1.63-1.3,2.67-1.88l.17-.11c.37-.24.98-.64,1.79-.94l.32-.12.24-.25c.71-.74,1.57-1.37,2.55-1.88l.26-.13.19-.22c.19-.22.36-.41.51-.57l.2-.22c.36-.45.77-.88,1.26-1.29l.26-.22.14-.31c.65-1.42,1.67-2.67,3.05-3.73l1.48-1.14,1.87.03c1.47.02,3.54.55,5.09,2.9l.16.2c1.12,1.2,1.62,2.65,1.86,3.35l.14.41.33.27c.41.33.98.72,1.69,1.16l2.01,1.23,3.25,1.82,3.29,1.97c.3.18.6.38.87.59l.18.14.22.08c1.63.6,2.99,1.71,3.93,3.2l.13.21.2.16c.42.33.79.69,1.12,1.07l.15.17.2.12c.24.15.49.31.73.5,1.53,1.2,2.76,2.87,3.45,4.71l.42,1.09,1.16-.13c1.86-.22,3.89-.2,6.5.04,1.39.12,2.58.53,3.55,1.21l.28.2.34.06c2.1.34,3.92,1.24,5.28,2.59l.29.29.39.1c1.35.35,2.58,1.06,3.55,2.06l.24.25.32.12c.98.35,1.84.78,2.6,1.16.67.33,1.17.58,1.51.68l10.98,1.96.41,4.02c.23,2.25-.39,4.3-1.85,6.08l-.19.24-.08.29c-.98,3.34-.84,7.47-.71,11.5.18,5.48.35,10.65-2.31,14.6l-1.36,2.02c-.25.37-.52.74-.8,1.08l-.85,1.04.94.96c.85.87,1.5,1.9,1.92,3.06l.49,1.37.14.18c.89,1.18,1.42,2.49,1.58,3.9l.75,6.64-.06.57c-.42,4.17-.82,8.96-.24,13.11l.07.48.33.35c1.19,1.26,1.97,2.91,2.14,4.54.32,3.1-1.59,5.8-4.54,6.42Z"/>
    <path class="cls-2" d="M175.02,902.5l-.08-.25c-.46-1.32-.61-2.48-.72-3.34v-.11c-.03-.11-.04-.22-.06-.32l-4.12-11.79-2.74-4.93-6.98-8.67-4.39-3.58h-.51c-2.6-.07-4.98-1.14-6.7-3.02l-.4-.44-.6-.04c-1.51-.11-2.98-.62-4.25-1.48l-.25-.17-.3-.06c-2.03-.39-3.95-1.29-5.54-2.6l-.53-.44-.68.12c-1.34.23-2.78.14-4.09-.27l-.27-.08-.29.02c-3.35.26-10.42.53-13.75.53-1.58,0-2.94,0-4.31-.42l-.42-.13-.42.12c-.26.07-.52.14-.77.2l-.52.13-.32.43c-1.75,2.37-4.52,3.78-7.42,3.78-.3,0-.59-.01-.89-.04l-.51-.05-.43.27c-.74.47-1.43.82-2,1.12-.3.16-.67.35-.85.47l-2.15,1.49-1.41,1.27-8.2,8.51-1.92,2.75-2.22,3.9-3.91,7.8-.03.28c-.18,1.96-.78,3.55-1.21,4.71l-.77,1.9v3.7s.56,10.74.56,10.74l.43,2.88,2.55,9.24.22.25c1.66,1.95,2.88,4.14,3.51,6.34l.12.42.33.29c.73.64,1.43,1.41,2.08,2.27l4.47,5.91,3.62,3.43.68.45,2.96,2.24.45.03c2.49.17,4.78,1.4,6.27,3.36l.16.21.22.14c.41.27.82.57,1.22.89l.26.21.32.08c.28.07.56.15.84.23l3.37,1.01,9.53,2.35h.19c4.17-.05,10.42-.27,16.47-1.63l.12-.03c1.12-.25,1.95-.45,2.43-.63l6.57-2.72,1.64-.87.21-.38c.44-.77.97-1.47,1.59-2.1,1.66-1.69,3.79-2.74,6.18-3.04l.39-.05.32-.24c2.86-2.13,5.4-4.67,7.54-7.55l2.32-3.13,3.27-5.68,1.3-2.67.84-2.8.82-3.14,1.7-9.69-.13-7.38v-.54ZM170.53,919.41l-.79,3.03-.71,2.4-1.18,2.42-3.1,5.41-2.27,3.06c-1.89,2.54-4.11,4.79-6.61,6.7-2.9.45-5.5,1.78-7.55,3.86-.69.71-1.31,1.49-1.83,2.34l-.69.37-6.45,2.67c-.22.08-.89.25-2.01.5l-.11.02c-5.68,1.28-11.62,1.5-15.66,1.55l-9.09-2.24-3.3-.99c-.22-.06-.43-.13-.65-.18-.33-.26-.67-.5-1.01-.73-1.92-2.41-4.74-3.95-7.83-4.28l-2.32-1.76-.5-.31-3.24-3.05-4.39-5.81c-.68-.9-1.41-1.71-2.17-2.42-.75-2.37-2.04-4.7-3.77-6.78l-2.31-8.34-.39-2.57-.56-10.58v-3.02s.6-1.47.6-1.47c.44-1.19,1.1-2.97,1.35-5.19l3.62-7.24,2.08-3.67,1.66-2.4,8.05-8.35,1.11-1.01,2.01-1.39c.11-.07.37-.2.65-.35.43-.22,1.04-.54,1.72-.94,3.84.21,7.68-1.49,10.14-4.52,1.62.41,3.19.41,4.7.41,3.3,0,10.2-.26,13.71-.52,1.46.41,3.01.54,4.53.37,1.79,1.35,3.87,2.29,6.06,2.76,1.48.94,3.15,1.55,4.87,1.76,2.12,2.1,4.89,3.34,7.91,3.53l3.26,2.63,6.66,8.23,2.51,4.47,3.96,11.28.03.23c.12.87.29,2.17.78,3.67v.08s.12,7.12.12,7.12l-1.61,9.23Z"/>
    <path class="cls-2" d="M150.29,901.78l-.07-.3c-.39-2-1.36-3.37-2-4.28-.11-.15-.22-.31-.33-.48l-.09-.14c-.58-.95-2.36-3.84-5.98-3.84-1.03,0-2.57.26-4.09,1.5l-.78.63-.5.87c-1.95,3.42.12,6.48.81,7.49v.02c.23.62.44,1.87.43,3.13l-.68,2.38c-.61.8-.97,1.62-1.2,2.26-.03.04-.06.07-.09.11l-.29.36c-.71.88-1.06,1.29-1.46,1.53-.3.18-.58.38-.83.61-.47.19-.91.42-1.32.69l-1.85,1.24c-.51.02-.98.07-1.41.11-.39.04-.75.08-1.06.08h-.34s-.34.04-.34.04c-.36.04-.71.08-1.07.12-.1-.03-.2-.05-.3-.07l-.38-.08-.7-.04h-.64c-.09,0-.17,0-.22,0l-.13-.04c-.52-.18-1.22-.42-2.06-.57l-1.27-.66-1.79-1.1c-.61-.37-1.37-1.4-2.11-2.4-.19-.25-.37-.5-.56-.75-.1-.22-.23-.58-.32-.8l-.14-.36c-.77-1.97-.64-4.14-.39-5.61.01-.06.09-.41.77-1.37l1.86-2.63-1.44-2.88c-.75-1.49-1.81-2.6-3.34-3.48l-4.75-2.74-3.66,6.67-1.2,1.93-.84,1.43-.17.36c-2.65,5.98-2.75,12.71-.26,18.49.05.19.11.37.18.55v.24s.6,1.21.6,1.21c.87,1.72,1.89,3.53,3.51,5.12.12.11.27.3.44.49.44.5,1.02,1.16,1.77,1.77.84,1.28,1.98,1.98,2.55,2.31,1.84,1.64,4.1,2.67,6.07,3.47,2.87,1.16,5.89,1.74,9,1.74,2.01,0,4.05-.25,6.05-.75,2.98-.73,5.55-2.04,7.88-3.35l1.25-.7c1.86-1.04,3.58-2.67,4.74-4.48l.88-.88,1.67-2.3,1.52-2.9,1.26-3.13c1.25-3.14,1.16-7.36,1.1-8.57-.15-3.14-.77-5.51-1.91-7.26ZM148.31,916.5l-1.17,2.93-1.32,2.56-1.37,1.92-.91.91-.22.27c-.9,1.46-2.27,2.77-3.75,3.59l-1.25.7c-2.15,1.2-4.51,2.41-7.14,3.06-4.47,1.1-9.05.8-13.2-.87-1.77-.71-3.79-1.63-5.3-3.02l-.29-.21c-.36-.2-1.21-.67-1.72-1.53l-.15-.25-.23-.18c-.63-.49-1.16-1.08-1.58-1.56-.22-.25-.44-.49-.59-.64-1.31-1.29-2.18-2.84-2.94-4.33l-.27-.53v-.11s-.12-.3-.12-.3c-.08-.19-.14-.38-.2-.59l-.08-.22c-2.2-5.03-2.12-10.92.21-16.17l2.05-3.41,2.22-4.06,2.1,1.21c1.02.59,1.67,1.25,2.15,2.22l.63,1.27-.82,1.16c-.77,1.08-1.16,1.89-1.28,2.61-.31,1.84-.46,4.58.55,7.19l.14.36c.22.58.38.97.52,1.23l.12.19c.21.28.42.56.63.85.95,1.28,1.84,2.5,2.95,3.18l1.84,1.12,1.83.96.24.04c.69.11,1.28.31,1.87.51l.28.09.28.06c.08.01.27.03.7.03h.63s.47.05.47.05c.11.02.22.05.33.09l.3.1.32-.04c.46-.05.92-.1,1.38-.16l.15-.02h.16c.41,0,.87-.04,1.37-.09.51-.05,1.04-.1,1.61-.11h.45s2.58-1.74,2.58-1.74c.28-.19.6-.35.95-.47l.32-.11.24-.24c.16-.15.33-.29.52-.4.85-.51,1.41-1.17,2.25-2.21l.29-.35c.06-.07.12-.14.18-.2l.22-.24.1-.31c.16-.49.44-1.22.96-1.84l.21-.25.91-3.17.06-.39c.03-1.43-.18-3.43-.7-4.66l-.25-.42c-.84-1.25-1.59-2.74-.68-4.32l.22-.38.34-.28c.84-.68,1.65-.83,2.19-.83,1.71,0,2.69,1.22,3.46,2.46l.1.16c.13.2.26.39.4.58.55.78,1.24,1.75,1.5,3.11.02.1.04.19.09.36l.14.6.17.24c.89,1.27,1.41,3.26,1.53,5.92.1,2.1-.08,5.27-.89,7.32Z"/>
  </g>
  <g>
    <path class="cls-4" d="M209.03,247.99c-.65-2.03-1.99-3.75-3.78-4.86-1.51-1.27-3.1-1.99-4.41-2.46-.38-.64-.84-1.34-1.45-2.07l-2.32-2.81-2.66-4.68-2.17-4.5c-.75-1.54-1.67-2.87-2.77-3.94-1.2-3.46-3.39-5.31-5.16-6.28l-2.46-3.03c-2.04-2.52-4.27-3.69-5.89-4.55l-2.98-1.58c-3.5-1.86-7.36-2.8-11.45-2.8s-7.51.9-10.04,1.55l-.11.03c-.09.02-.19.05-.29.07-1.93-1.24-3.95-2.23-5.99-3.05-.66-.32-1.41-.73-2.17-1.29l-.33-.24-2.88-.32c-.76-.23-1.51-.45-2.26-.66-1.24-.35-2.54-.52-3.74-.5h-.07c-1.89-.67-3.9-.76-5.8-.76-3.02,0-7.63.37-11.58,1.42-5.04.65-8.9,2.57-12,4.11-.51.25-1.22.61-1.87.91-1.59-.7-3.33-1.04-5.05-.97-1.09-.39-2.26-.58-3.51-.58-1.35,0-2.65.21-4.17.46-.77.13-1.64.27-2.58.39-5.85.76-10.2,3.85-13.38,6.11-1.24.88-2.14,1.77-2.86,2.49-.27.27-.5.5-.7.67-4.65,4.04-7.26,9.07-9.57,13.51l-.66,1.28c-1.82,3.47-4.02,6.91-6.72,10.51-1.45,1.18-3.14,2.32-4.77,3.23-3.11,1.72-4.95,4.99-4.81,8.54.14,3.57,2.27,6.8,5.43,8.24l2.12.97,1.41.9c.39.25,1.38,1.53,1.92,2.24l1.96,2.63,3.82,6.97,2.2,3.89,1.87,2.9c1.23,1.93,2.62,4.11,4.57,6.16.05.05.09.11.14.17l.09.11c.83,1.02,2.51,3.09,5.33,4.17,1.13,1.45,2.67,2.66,4.58,3.6,2.33,1.15,4.97,1.78,7.54,2.39l.27.06c1.67.4,3.9.85,6.35.85,1.83,0,3.59-.26,5.23-.76l.79-.09,2.65-.72c.55.31,1.06.58,1.54.82l.6.31c1.43.76,2.98,1.44,4.62,2.02l4.6,1.62c1.34.47,2.69.7,4.04.66,1.39.58,2.95.88,4.65.88.27,0,.54,0,.87-.02l5.11-.03c.26,0,.53.01.8.03h.11c.56.03,1.12.05,1.67.05,1.21,0,3.04-.08,5.05-.79,2.26-.14,4.02-.83,5.22-1.3.25-.1.49-.2.65-.24l2.87-.88,3.84-1.56c.61-.25,1.77-.72,3.06-1.57l.4.16,2.51.58.59.04c1.47.52,3.08.79,4.79.79s3.04-.23,4.18-.41l.64-.1c2.72-.42,5.81-.9,9.08-2.51l.45-.22c1.6-.78,3.99-1.95,6.02-4.08,2.18-1.2,4.02-2.91,5.33-4.96,1.86-1.43,2.85-3.13,3.42-4.11l2.5-4.08c.51-.83.92-1.74,1.23-2.7.86-1.16,1.28-2.31,1.48-3.08.01-.05.03-.1.04-.15.56-.8.95-1.54,1.22-2.04l.06-.12c.03-.05.05-.1.08-.15l.1-.14c.6-.58,1.11-1.24,1.52-1.97.1-.17.34-.48.58-.8.64-.85,1.5-1.99,2.2-3.44l3.5-2.56,1.95-1.25c3.61-2.31,5.24-6.72,3.97-10.72ZM98.76,293.77l-.82.1-.28.06c-1.39.44-2.89.67-4.46.67-2.15,0-4.15-.41-5.66-.77l-.28-.07c-2.4-.57-4.87-1.16-6.9-2.16-1.63-.8-2.89-1.82-3.75-3.04l-.29-.4-.47-.16c-2.27-.75-3.66-2.46-4.41-3.39l-.08-.09c-.08-.11-.17-.21-.28-.33-1.77-1.87-3.08-3.92-4.24-5.74l-1.83-2.83-2.15-3.8-3.85-7.04-1.86-2.54-.32-.41c-1.11-1.44-1.9-2.42-2.67-2.92l-1.5-.96-2.41-1.11c-2.14-.97-3.58-3.18-3.67-5.63-.09-2.41,1.16-4.63,3.27-5.8,1.85-1.02,3.75-2.32,5.37-3.65l.24-.25c2.85-3.79,5.17-7.4,7.09-11.07l.67-1.28c2.18-4.2,4.65-8.97,8.87-12.63.24-.21.52-.48.84-.8.64-.64,1.45-1.43,2.49-2.17,2.92-2.08,6.92-4.92,12.02-5.58.98-.13,1.89-.28,2.7-.41,1.38-.23,2.56-.42,3.67-.42.99,0,1.9.17,2.72.49l.32.13.34-.02c.4-.03.81-.03,1.21,0l-.15.13c-1,.91-1.96,1.49-2.6,1.88l-5.82,4.82-.16.15c-.38.43-.83.85-1.32,1.24l-.21.17-.14.24c-1.05,1.77-2.57,3.88-4.66,6.42l-.15.18-.09.22c-.36.92-.9,2.13-1.83,3.35l-.17.22-.08.26c-.43,1.42-1.12,2.69-2.07,3.79l-.2.23-2.22,7.08-.22,1.13v.17c.05,1.08-.14,2.17-.55,3.17l-.1.25v.27c-.03,1.15-.14,2.9-.78,4.76l-.08.23-.04,6.08c-.02,3.09.09,6.29,1,8.67l3.05,7.95c2.55,6.65,6.83,12.87,12.38,17.97l.37.34.51.05c2.31.21,4.5,1.28,6.15,3.01l.16.17,1.31.71c.17.09.33.18.5.27l-1.5.42ZM150.46,290.59c-2.09.64-4.07,1.68-5.76,3.02-2.11.55-4,1.62-5.53,3.12-3.05-.55-6.24,0-8.86,1.53-1.61-.52-3.32-.79-5.08-.79-1.56,0-3.06.22-4.46.64l-.37-.42-3.39-.73c-5.52-1.2-10.87-3.84-15.83-6.52l-.9-.49c-2.01-2.02-4.6-3.32-7.36-3.69-5.04-4.73-8.92-10.43-11.25-16.5l-3.05-7.95c-.74-1.92-.82-4.78-.8-7.58l.03-5.6c.65-2.01.8-3.85.84-5.15.47-1.27.7-2.63.67-3.98l.09-.47,2.03-6.49c1.06-1.29,1.86-2.76,2.38-4.38,1-1.36,1.61-2.69,1.99-3.64,2.05-2.51,3.53-4.56,4.63-6.39.51-.42.97-.87,1.39-1.33l5.25-4.42.18-.11c.59-.36,1.65-1,2.78-1.99.29-.11.58-.23.86-.36,2.43-.18,4.71-1.16,6.5-2.79,3.78.08,8.22-.92,11.98-2.67.76.11,1.55.17,2.33.17,2.68,0,5.28-.65,7.56-1.9l3.69.22.18.07h.27s5.55,1.06,5.55,1.06c1.63.49,3.27,1.04,4.88,1.69.46.22.86.39,1.19.53l.12.05c.08.03.15.06.14.05l4.38,2.44,2.26,1.4,3.31,2.36.15.16c.74.77,2.08,2.17,4.05,3.29.62.8,1.33,1.51,2.11,2.13l2.88,3.72,5.71,9.84c.3.52.73,1.53.97,2.28l2.33,6.85c.08,2.47.47,4.97,1.25,8.04-.33,6.77-.92,13.85-3.81,19.76-.28.57-.55,1.13-.83,1.71l-.18.38c-1.98,4.11-3.86,7.99-6.19,10.91-1.21,1.51-2.5,2.92-3.77,4.1-3.4.51-6.9,2.27-9.51,4.81ZM203.43,256.19l-2.03,1.3-4.21,3.08-.16.36c-.59,1.32-1.39,2.38-2.05,3.26-.37.49-.63.84-.77,1.1-.28.5-.64.96-1.07,1.35l-.5.64c-.07.12-.14.24-.2.37l-.05.09c-.27.5-.63,1.2-1.16,1.92l-.19.26-.07.32c-.02.11-.05.22-.08.33-.14.55-.45,1.38-1.1,2.2l-.18.23-.08.28c-.24.81-.58,1.57-1,2.26l-2.38,3.88-.18.31c-.49.84-1.3,2.24-2.8,3.32l-.24.18-.16.26c-1.08,1.76-2.64,3.22-4.56,4.25l-.23.12-.18.19c-1.69,1.83-3.78,2.85-5.31,3.6l-.46.22c-2.85,1.41-5.7,1.85-8.21,2.24l-.65.1c-1.04.17-2.33.37-3.71.37s-2.78-.23-3.98-.69l-.25-.09h-.66s-2-.45-2-.45l-.46-.18.18-.19c2.3-2.34,5.47-3.94,8.49-4.27l.48-.05.36-.33c1.48-1.35,3.02-3,4.43-4.76,2.55-3.18,4.5-7.21,6.56-11.48l.18-.38c.27-.57.55-1.13.82-1.69,3.18-6.5,3.78-14.02,4.13-21.16v-.23s-.05-.22-.05-.22c-.79-3.04-1.17-5.45-1.22-7.81v-.23s-2.47-7.25-2.47-7.25c-.3-.94-.81-2.14-1.22-2.85l-5.76-9.93-3.29-4.27-.16-.12c-.71-.54-1.34-1.19-1.88-1.92l-.2-.27-.3-.16c-1.72-.92-2.9-2.15-3.6-2.89l-.27-.28-2.9-2.09c2.03-.47,4.45-.9,7.07-.9,3.6,0,6.98.83,10.05,2.45l2.98,1.58c1.55.82,3.3,1.75,4.96,3.79l2.86,3.52.28.14c1.35.69,3.16,2.12,4.07,5.03l.12.38.3.27c.94.86,1.74,1.97,2.39,3.31l2.2,4.55,2.8,4.93,2.56,3.13c.62.75,1.08,1.5,1.45,2.15l.28.49.53.18c1.25.42,2.7,1,4.04,2.16l.21.15c1.22.73,2.14,1.89,2.58,3.27.86,2.71-.27,5.71-2.73,7.29Z"/>
    <path class="cls-4" d="M100.17,231.88l3.07,4.92c.8,1.28,1.38,2.71,1.76,4.35l.08.35.23.28c1.22,1.45,2.13,2.91,2.78,4.02l6.61,11.29c1.17,2,2.42,4.17,3.67,6.58.11.19.31.48.7,1.02.95,1.32,2.24,3.12,3.03,5.65l.05.14c.19.45.36.9.49,1.33l.09.28.19.23c.44.54.85,1.12,1.2,1.72l.12.21.19.16c.21.18.42.38.62.59l1.56,1.65.91-2.08c.61-1.41,1.35-2.47,1.79-3.1l.08-.11c.12-.17.24-.34.35-.53l13.68-23.13c.12-.21.33-.62.52-1.02.39-.81.93-1.93,1.75-3.14.08-.14.33-.62.55-1.08.61-1.26,1.45-2.98,2.87-4.61l.2-.22.09-.28c.35-1.05.92-2.08,1.67-3.07l1.84-2.41-44.08-.06-8.66.07ZM147.19,234.86c-.2.41-.38.82-.53,1.24-1.56,1.85-2.49,3.77-3.15,5.11-.14.28-.31.63-.34.7-.9,1.34-1.52,2.61-1.93,3.46-.15.31-.3.63-.4.8l-13.68,23.13c-.07.11-.15.23-.23.34l-.09.13c-.24.35-.59.85-.96,1.48-.15-.2-.3-.41-.45-.6-.14-.42-.3-.85-.48-1.28-.94-2.95-2.44-5.04-3.43-6.43-.19-.26-.44-.61-.5-.7-1.25-2.42-2.53-4.63-3.72-6.67l-6.61-11.29c-.67-1.15-1.59-2.64-2.85-4.17-.45-1.8-1.14-3.45-2.05-4.91l-.23-.37,3.28-.03,38.35.05Z"/>
  </g>
  <g>
    <path class="cls-5" d="M164.28,107.45l-.3-.83c-.6-1.63-1.43-3.87-1.82-6.48l-.04-.26-.12-.23c-.81-1.52-1.36-2.95-1.8-4.11l-1.4.53,1.35-.67-.09-.25-.17-.2c-1.53-1.78-2.42-3.53-3.01-4.69l-.29-.57-.61-.19c-3.45-1.04-6.3-3.51-7.81-6.78l-.17-.38-.34-.23c-.7-.48-1.32-.94-1.92-1.38-.85-.63-1.37-1.01-1.68-1.18-4.53-2.52-8.13-3.88-11-4.17l-3.1-.31-12.42.03c-.33,0-1.59.07-4.19.91-.75.25-1.88.72-3.03,1.22l-.92.39c-.43.18-1.26.53-1.94.84l-.31.19c-2,1.55-4.1,2.67-6.26,3.31l-.54.16-.3.47c-1.38,2.16-3,3.89-4.96,5.27l-.92.64c-.27.19-.63.43-.97.67l-.4.29-.15.47c-.47,1.43-1.02,2.98-1.9,4.65l-.24.46.09.51c.41,2.27.35,4.59-.19,6.9-.3,1.3-.76,2.56-1.35,3.74l-.17.33v.54c.08,2.16-.19,4.45-.75,6.64l-.1.38.1.38c1.12,4.15,1.72,9.39,1.55,13.66l-.03.82.68.47c2.79,1.94,5.04,4.74,6.68,8.32l.17.37.34.23c1.65,1.15,3.03,2.56,4.08,4.2.48.75.9,1.55,1.23,2.38l.14.34.28.24c.73.62,1.39,1.28,1.97,1.96l.23.28,5.87,2.43.26.08c.31.07.93.16,1.4.24,1.74.27,3.91.61,6.28,1.54l.25.1h.53c.76,0,1.55-.03,2.35-.07h.24c1.17-.07,2.5-.14,3.89-.14,1.17,0,2.17.04,3.16.13l.73.07.5-.53c2.28-2.42,5.5-3.81,8.85-3.81,1.11,0,2.23.15,3.31.44l.78.21.6-.53c1.53-1.34,3.02-2.16,3.9-2.65l2.73-2.25.13-.4c.1-.31.21-.57.29-.77,1.11-2.59,3.12-4.71,5.67-5.96l.34-.17,2.4-3.4c1-1.42,1.85-3.1,2.27-4.5l.86-2.84c1.27-4.19,1.74-8.75,1.45-13.93l-.2-3.55ZM160.17,124.06l-.86,2.84c-.33,1.09-1.04,2.49-1.85,3.64l-1.96,2.78c-3.03,1.59-5.42,4.17-6.76,7.3-.07.17-.15.36-.23.58l-1.73,1.45c-.84.46-2.22,1.24-3.7,2.44-1.09-.24-2.2-.36-3.32-.36-3.92,0-7.71,1.53-10.52,4.23-.86-.06-1.74-.09-2.72-.09-1.47,0-2.83.07-4.06.13h-.23c-.73.05-1.45.09-2.15.09-2.58-.97-4.92-1.34-6.66-1.61-.35-.06-.81-.13-1.11-.18l-5.07-2.1c-.54-.62-1.15-1.21-1.79-1.78-.38-.88-.83-1.73-1.35-2.53-1.2-1.86-2.73-3.47-4.56-4.8-1.72-3.62-4.03-6.53-6.86-8.68.08-4.26-.51-9.27-1.57-13.37.55-2.27.82-4.63.77-6.86.62-1.29,1.1-2.66,1.43-4.07.59-2.54.69-5.1.3-7.61.75-1.5,1.26-2.89,1.7-4.17.19-.13.39-.27.57-.39l.91-.63c2.15-1.51,3.94-3.36,5.47-5.65,2.28-.75,4.48-1.94,6.57-3.54.63-.28,1.35-.58,1.8-.77l.93-.4c.97-.42,2.08-.89,2.71-1.09,2.27-.74,3.26-.76,3.26-.76l12.27-.03,2.95.29c2.46.25,5.68,1.49,9.84,3.8.21.12,1.07.76,1.41,1,.49.36,1.03.76,1.63,1.18,1.81,3.66,5,6.47,8.87,7.81.61,1.17,1.53,2.83,2.94,4.52.44,1.16.98,2.57,1.8,4.13.45,2.8,1.31,5.11,1.94,6.82l.15.4.18,3.1c.28,4.83-.16,9.04-1.32,12.89Z"/>
    <path class="cls-5" d="M193.53,108.57c-1.12-1.52-2.35-2.75-3.75-3.75-.18-.45-.38-.88-.61-1.29.23-.98.33-1.82.4-2.42l.02-.15c.02-.15.03-.29.06-.43l.22-1.22c2.54-4.68.57-8.52-.41-9.97-1.83-2.71-4.51-3.75-5.84-4.17-.47-.55-1.01-1.05-1.59-1.47-.19-.69-.39-1.31-.54-1.81-.07-.21-.14-.45-.21-.68l1.27-4-.5-2.2c-.74-3.3-3.57-6.87-9.26-7.13-.36-.13-.72-.25-1.07-.34-.12-.05-.3-.13-.49-.21-1.1-.5-2.85-1.29-5.12-1.49l-2.24-4.94c-.27-1.05-.72-2.4-1.79-3.86-2.56-4.15-6.19-4.77-8.14-4.77-.88,0-1.75.12-2.61.37-1.6.45-2.78,1.26-3.57,1.89l-.75.31c-.08,0-.15,0-.23,0-.29,0-.57-.01-.86-.01-.42,0-1,0-1.68.07-1.22-.92-2.66-1.51-4.19-1.7-.61-.08-1.24-.09-1.87-.04-.65-.46-1.35-.88-2.13-1.29-.45-.51-.96-.97-1.51-1.37-.61-1.33-1.45-2.47-2.49-3.4-1.82-1.61-4.14-2.49-6.55-2.49-3.81,0-7.26,2.25-8.78,5.72-.04.08-.07.17-.11.26l-.64.67c-.7.18-1.37.43-2.01.73l-.59-.58-3.98,3.08c-.3-.04-.61-.08-.94-.1-2.17-.88-4.37-1.11-6.5-.69l-.12-.05c-.99-.44-2.82-1.27-5.17-1.27-2.56,0-4.98.98-6.83,2.77-2.15,2.08-3.24,4.79-3.24,8.07-.31.51-.7,1.18-1.06,1.99-.6.06-1.2.16-1.8.3l-1.05-2.13-7.67,4.23c-4.13,2.28-6.17,6.51-5.46,11.31l.21,1.01c.05.2.1.4.15.59-.52,1.23-.86,2.56-.98,3.89-.13.08-.26.16-.38.24l-2.46-.91-3.77,4.59c-2.22,2.7-3.03,6.41-2.16,9.91.25,1,.62,1.96,1.11,2.84.07.91.23,1.79.48,2.62-.14.3-.27.6-.39.91l-.04.04c-2.4,1.26-4.22,3.33-5.03,5.7-1.21,3.55-.58,8.48,4.78,11.68l.12.07c.17.3.35.6.53.88-.17.59-.3,1.21-.39,1.87-.25.48-.56,1.14-.83,1.93-1.71,2.22-2.29,5.01-1.59,7.7,1.33,5.15,6.35,6.96,9.03,7.83.27.24.55.49.87.75l.74,2.91.02.77c-.22.72-.36,1.38-.47,1.88l-1.2,5.01,3.29,3.31c2.79,2.8,6.27,3.47,8.77,3.69l.59.34c1.61.92,3.39,1.48,5.4,1.69.18.28.34.51.45.67.1.15.18.27.23.36v.88c-.02,2.98.98,5.53,2.97,7.58,1.71,1.76,3.98,2.73,6.39,2.73,1.45,0,2.86-.35,4.19-1.04.36-.11.69-.22,1.01-.34.33.46.69.88,1.07,1.27,2.1,2.11,4.97,3.14,7.85,2.82,1.9-.22,3.76-.77,5.43-1.61l1.23.69c1.69,3.23,4.12,5.15,7.21,5.72.57.1,1.15.16,1.73.16,1.86,0,6.36-.6,8.86-6.03.61-.18,1.36-.42,2.17-.79.97.56,2.13,1.1,3.55,1.39.71.14,1.43.21,2.13.21,2.29,0,5.42-.72,7.87-3.93.57.27,1.16.49,1.77.65.95.25,1.9.38,2.84.38,3.46,0,6.56-1.73,8.29-4.63l.68-1.14,1.21-5.36.02-.03c.17-.32.41-.78.65-1.36,1.23-.22,2.21-.52,3.01-.77l.31-.1c.24-.07.91-.28,1.21-.35.31.01.63.02.96.02,6.62,0,9.14-4.33,9.91-6.2,1.2-2.89.76-5.57.19-7.5.62-1.16,1.02-2.44,1.21-3.87l.12-.09c.41-.33.84-.67,1.15-.87l.31-.2c4.23-.84,6.48-4.02,7.19-6.76,1.09-4.23-.52-7.62-1.21-9.07l-1.11-2.85c.08-.15.17-.31.24-.47,2.08-1.35,3.78-3.22,4.94-5.44l2.41-4.61-3.08-4.19ZM191.54,115.98c-.98,1.87-2.44,3.43-4.23,4.5l-.41.24-.19.43c-.18.41-.39.8-.62,1.15l-.41.64,1.54,4.05c.04.08.08.18.14.3l.06.12c.64,1.35,1.83,3.86,1.01,7.04-.49,1.9-2.08,4.11-5.1,4.61l-.31.05-.83.55c-.42.27-.9.66-1.38,1.05l-1.09.85-.06.65c-.13,1.48-.52,2.73-1.2,3.81l-.38.6.22.67c.54,1.62,1.04,3.78.09,6.05-.67,1.62-2.5,4.35-7.14,4.35-.3,0-.59-.01-.87-.02h-.27s-.13,0-.13,0c-.38.05-.92.21-1.79.47l-.31.09c-.78.24-1.75.54-2.93.73-.08.01-.17.03-.34.07l-1.09.21-.28.82c-.26.76-.58,1.37-.83,1.85l-.16.3-1.2,5.28-.44.73c-1.52,2.54-4.65,3.72-7.79,2.89-.74-.2-1.42-.5-2.07-.93l-.31-.2-1.46-.14-.49.81c-1.45,2.41-3.5,3.63-6.08,3.63-.5,0-1.02-.05-1.54-.16-1.31-.26-2.34-.84-3.26-1.42l-.74-.47-.77.41c-1.09.58-2.12.87-2.96,1.11l-.4.11-.6.62-.11.27c-1.6,3.91-4.33,4.73-6.33,4.73-.39,0-.79-.04-1.19-.11-2.98-.54-4.4-2.77-5.22-4.41l-.1-.2-.15-.16c-.07-.08-.33-.35-.69-.57l-2.83-1.57-.74.43c-1.49.87-3.23,1.44-5.02,1.64-1.96.22-3.93-.49-5.38-1.95-.41-.41-.78-.89-1.11-1.43l-.27-.44-1.64-.62-.57.26c-.64.29-1.22.47-1.6.58l-.3.12c-2.42,1.31-5.29.85-7.15-1.06-1.42-1.47-2.14-3.31-2.13-5.47v-1.49s-.08-.25-.08-.25c-.09-.24-.28-.65-.67-1.22-.18-.26-.44-.64-.73-1.14l-.4-.7-.81-.05c-1.88-.12-3.49-.57-4.9-1.37l-1.17-.67-.34-.03c-2.21-.17-5.02-.64-7.21-2.84l-2.11-2.12.71-2.91c.03-.14.07-.28.1-.43l.03-.12c.11-.51.25-1.15.46-1.83l.08-.24-.03-1.46-.74-2.92v-.47s-.21-.96-.21-.96l-.46-.32c-.57-.39-1.02-.8-1.4-1.16l-.25-.23-.32-.1c-3.09-1-6.47-2.36-7.37-5.83-.48-1.85-.04-3.77,1.19-5.28l.18-.22.09-.28c.26-.82.6-1.5.83-1.93l.13-.25.03-.28c.09-.82.26-1.55.51-2.23l.28-.76-.48-.65c-.34-.46-.66-.97-.95-1.53l-.21-.39-.81-.46c-4.68-2.79-3.99-6.62-3.48-8.14.58-1.7,1.94-3.19,3.74-4.09l.21-.1.17-.16c.13-.12.26-.25.39-.36l.3-.26.13-.37c.17-.49.38-.97.63-1.41l.33-.6-.23-.64c-.31-.84-.49-1.77-.54-2.76l-.02-.38-.19-.32c-.43-.72-.75-1.5-.96-2.34-.64-2.59-.05-5.32,1.57-7.29l2.42-2.94,1.96.72.65-.49c.44-.33.92-.63,1.41-.89l.76-.4.07-1.19c.07-1.28.4-2.57.96-3.74l.23-.48-.12-.51c-.08-.36-.19-.75-.3-1.17l-.14-.66c-.52-3.52.96-6.6,3.95-8.25l4.91-2.71.8,1.63,1.25-.43c1.07-.37,2.1-.56,3.16-.57h1.04s.35-1,.35-1c.42-1.18,1-2.11,1.38-2.72l.24-.39v-.46c-.1-2.64.66-4.7,2.3-6.28,1.28-1.24,2.97-1.92,4.74-1.92s3.05.6,3.98,1.02l1.04.44.48-.12c1.71-.42,3.52-.26,5.34.52l.24.1.26.02c.52.03,1,.09,1.46.19l.68.14,2.99-2.31.36.35,1-.62c.77-.47,1.61-.82,2.52-1.02l.29-.1.39-.2,1.49-1.54.11-.28c.06-.14.11-.28.17-.42,1.05-2.39,3.42-3.94,6.04-3.94,1.67,0,3.29.62,4.56,1.74.82.73,1.44,1.62,1.89,2.71l.18.43.39.25c.48.31.91.68,1.29,1.12l.33.4.27.14c.93.47,1.73.96,2.44,1.5l.5.38.62-.09c.57-.08,1.13-.09,1.68-.02,1.16.15,2.24.64,3.12,1.42l.52.46.68-.1c.77-.11,1.46-.12,1.92-.12.26,0,.53,0,.79.01.19,0,.39,0,.59,0h.3l1.71-.71.17-.14c.63-.51,1.5-1.13,2.67-1.47.59-.17,1.19-.25,1.79-.25,1.62,0,3.9.59,5.61,3.39l.08.11c.94,1.26,1.23,2.43,1.37,2.99l3.16,7.02h.96c2.11.03,3.72.76,4.94,1.31.25.11.56.25.71.3l.14.04c.34.08.68.2,1.03.34l.25.1h.27c5.23.15,6.44,3.72,6.68,4.81l.32,1.41-1.29,4.07.11.42c.09.34.24.83.38,1.26.19.6.43,1.34.63,2.16l.15.59.52.32c.62.39,1.17.89,1.63,1.48l.3.39.47.14c1.36.4,3.33,1.16,4.65,3.11.85,1.25,1.99,3.83.16,7.03l-.12.22-.31,1.7c-.04.22-.07.44-.09.67l-.02.14c-.08.67-.18,1.58-.47,2.59l-.19.66.37.57c.31.48.57,1,.8,1.65l.16.5.44.29c1.28.85,2.4,1.93,3.41,3.31l1.97,2.69-1.54,2.95Z"/>
    <path class="cls-5" d="M131.39,103.92c-1.87-1.22-4.07-1.86-6.36-1.86-2.66,0-5.17.89-7.09,2.51-2.11,1.54-3.54,3.69-4.15,6.22-.75,3.12-.15,6.43,1.71,9.33l.25.39c2.06,3.23,5.79,5.23,9.73,5.23,2.21,0,4.34-.63,6.16-1.81l.16-.1c.82-.53,2.35-1.51,3.67-3.38,2.87-4.04,2.83-9.07-.1-12.82-1.08-1.68-2.41-2.93-3.97-3.72ZM133.02,118.73c-.99,1.4-2.11,2.11-2.85,2.59l-.17.11c-1.34.87-2.91,1.33-4.53,1.33-2.92,0-5.68-1.47-7.2-3.85l-.25-.39c-1.41-2.21-1.88-4.7-1.32-7.02.45-1.84,1.5-3.41,3.04-4.53l.09-.07c1.38-1.18,3.22-1.83,5.19-1.83,1.73,0,3.38.49,4.78,1.41l.17.1c1.12.55,2.09,1.47,2.89,2.74l.09.13c2.16,2.73,2.18,6.29.06,9.28Z"/>
  </g>
</svg>