<?xml version="1.0" encoding="UTF-8"?>
<svg id="Layer_1" xmlns="http://www.w3.org/2000/svg" version="1.1" viewBox="0 0 1320.7 1308.6">
  <defs>
    <style>.st0{fill:none}.st1{fill:#c0a775}</style>
  </defs>
  <g>
    <path class="st1" d="M662.3,967.6c-.1,0-.2,0-.3-.1l-302.7-398.5c0-.1-.1-.3,0-.4,0-.1.2-.2.3-.2l604-3.7c.1,0,.3,0,.3.2,0,.1,0,.3,0,.4l-301.3,402.2c0,0-.2.2-.3.2h0ZM360.4,569.1l302,397.5,300.5-401.2-602.5,3.7Z"/>
    <path class="st1" d="M965.7,729.4h0l-607.8-.5c-.1,0-.3,0-.3-.2s0-.3,0-.4l304.4-390.1c0,0,.2-.1.3-.1h0c.1,0,.2,0,.3.1l303.4,390.6c0,.1.1.3,0,.4,0,.1-.2.2-.3.2ZM358.7,728.1l606.2.5-302.6-389.6-303.6,389.1Z"/>
    <path class="st1" d="M661.8,869.8h0c-.1,0-.3,0-.3-.2l-216.1-366.1c0-.1,0-.3,0-.4,0-.1.2-.2.3-.2h433.1c.1,0,.3,0,.3.2,0,.1,0,.3,0,.4l-217,366.1c0,.1-.2.2-.3.2ZM446.4,503.7l215.4,365,216.4-365h-431.8Z"/>
    <path class="st1" d="M886.5,801.5h-450.6c-.1,0-.3,0-.3-.2s0-.3,0-.4l226.5-372.5c0-.1.2-.2.3-.2h0c.1,0,.3,0,.3.2l224.2,372.5c0,.1,0,.3,0,.4,0-.1-.2-.2-.3-.2ZM436.5,800.8h449.3s-223.5-371.4-223.5-371.4l-225.8,371.4Z"/>
    <path class="st1" d="M661.8,682h0c-.1,0-.2,0-.3-.2l-188.4-256.5c0-.1,0-.3,0-.4,0-.1.2-.2.3-.2h377.7c.1,0,.3,0,.3.2,0,.1,0,.3,0,.4l-189.3,256.5c0,0-.2.2-.3.2ZM474.2,425.5l187.6,255.5,188.6-255.5h-376.2Z"/>
    <path class="st1" d="M662.3,727.2h0c-.1,0-.2,0-.3-.1l-76.4-89.8c0-.1-.1-.3,0-.4,0-.1.2-.2.3-.2h154.1c.1,0,.3,0,.3.2,0,.1,0,.3,0,.4l-77.6,89.8c0,0-.2.1-.3.1ZM586.7,637.4l75.6,88.8,76.8-88.8h-152.4Z"/>
    <path class="st1" d="M662.3,795.9c-.1,0-.3,0-.3-.2l-101.8-194.6c0-.1,0-.3,0-.4,0-.1.2-.2.3-.2h201.8c.1,0,.3,0,.3.2,0,.1,0,.3,0,.4l-100,194.6c0,.1-.2.2-.3.2h0ZM561.1,601.3l101.2,193.4,99.4-193.4h-200.6Z"/>
    <path class="st1" d="M771.3,684.2h-215.6c-.1,0-.3,0-.3-.2,0-.1,0-.3,0-.4l106.6-177.2c0-.1.2-.2.3-.2.1,0,.3,0,.3.2l109,177.2c0,.1,0,.3,0,.4,0,.1-.2.2-.3.2ZM556.4,683.4h214.3l-108.3-176.1-105.9,176.1Z"/>
    <path class="st1" d="M821.9,874h-319.4c-.1,0-.3,0-.3-.2,0-.1,0-.3,0-.4l159.8-302.3c0-.1.2-.2.3-.2h0c.1,0,.3,0,.3.2l159.6,302.3c0,.1,0,.3,0,.4,0,.1-.2.2-.3.2ZM503.2,873.3h318.1s-159-301.1-159-301.1l-159.2,301.1Z"/>
    <path class="st1" d="M662.3,655c-.6,0-1.1-.5-1.1-1.1s.5-1.1,1.1-1.1,1.1.5,1.1,1.1-.5,1.1-1.1,1.1ZM662.3,653.6c-.2,0-.3.1-.3.3s.1.3.3.3.3-.1.3-.3-.1-.3-.3-.3Z"/>
  </g>
</svg>
