<svg viewBox="0 0 40 40" xmlns="http://www.w3.org/2000/svg">
  <g fill="none" stroke="currentColor" stroke-width="1" stroke-linejoin="round" stroke-linecap="round"><path d="M 21.23 8.26 C 21.64 4.44 29.52 5.5 33.79 6.21 C 34.5 10.48 35.56 18.36 31.74 18.77"/><path d="M 31.74 21.23 C 35.56 21.64 34.5 29.52 33.79 33.79 C 29.52 34.5 21.64 35.56 21.23 31.74"/><path d="M 18.77 31.74 C 18.36 35.56 10.48 34.5 6.21 33.79 C 5.5 29.52 4.44 21.64 8.26 21.23"/><path d="M 8.26 18.77 C 4.44 18.36 5.5 10.48 6.21 6.21 C 10.48 5.5 18.36 4.44 18.77 8.26"/><circle cx="20" cy="20" r="11"/><rect x="13" y="13" width="14" height="14"/><path d="M 15 17 L 25 17 L 20 25.5 Z"/></g>
</svg>
