<svg style="opacity:.25" viewBox="0 0 40 40" xmlns="http://www.w3.org/2000/svg">
  <g fill="none" stroke="#BA7A3F" stroke-width="0.25" stroke-linejoin="round" stroke-linecap="round"><path d="M 15.29 8.64 C 13.95 5.4 17.96 2.78 20.0 0.7 C 22.04 2.78 26.05 5.4 24.71 8.64"/><path d="M 27.49 10.24 C 29.62 7.47 33.89 9.63 36.71 10.35 C 35.93 13.16 35.66 17.94 32.19 18.39"/><path d="M 32.19 21.61 C 35.66 22.06 35.93 26.84 36.71 29.65 C 33.89 30.37 29.62 32.53 27.49 29.76"/><path d="M 24.71 31.36 C 26.05 34.6 22.04 37.22 20.0 39.3 C 17.96 37.22 13.95 34.6 15.29 31.36"/><path d="M 12.51 29.76 C 10.38 32.53 6.11 30.37 3.29 29.65 C 4.07 26.84 4.34 22.06 7.81 21.61"/><path d="M 7.81 18.39 C 4.34 17.94 4.07 13.16 3.29 10.35 C 6.11 9.63 10.38 7.47 12.51 10.24"/><circle cx="20" cy="20" r="11.5"/><path d="M 13.6 15.2 A 7.6 7.6 0 1 0 26.4 15.2 A 6.1 6.1 0 1 1 13.6 15.2"/></g>
</svg>
