<svg viewBox="0 0 40 40" xmlns="http://www.w3.org/2000/svg">
  <g fill="none" stroke="#B5953B" stroke-width="1" stroke-linejoin="round" stroke-linecap="round"><path d="M 17.27 8.62 C 16.51 5.46 18.84 3.66 20.0 1.8 C 21.16 3.66 23.49 5.46 22.73 8.62"/><path d="M 24.48 9.19 C 25.72 6.19 28.67 6.1 30.7 5.28 C 30.54 7.46 31.37 10.29 28.9 12.4"/><path d="M 29.98 13.89 C 32.75 12.19 35.18 13.85 37.31 14.38 C 35.9 16.05 34.9 18.83 31.66 19.08"/><path d="M 31.66 20.92 C 34.9 21.17 35.9 23.95 37.31 25.62 C 35.18 26.15 32.75 27.81 29.98 26.11"/><path d="M 28.9 27.6 C 31.37 29.71 30.54 32.54 30.7 34.72 C 28.67 33.9 25.72 33.81 24.48 30.81"/><path d="M 22.73 31.38 C 23.49 34.54 21.16 36.34 20.0 38.2 C 18.84 36.34 16.51 34.54 17.27 31.38"/><path d="M 15.52 30.81 C 14.28 33.81 11.33 33.9 9.3 34.72 C 9.46 32.54 8.63 29.71 11.1 27.6"/><path d="M 10.02 26.11 C 7.25 27.81 4.82 26.15 2.69 25.62 C 4.1 23.95 5.1 21.17 8.34 20.92"/><path d="M 8.34 19.08 C 5.1 18.83 4.1 16.05 2.69 14.38 C 4.82 13.85 7.25 12.19 10.02 13.89"/><path d="M 11.1 12.4 C 8.63 10.29 9.46 7.46 9.3 5.28 C 11.33 6.1 14.28 6.19 15.52 9.19"/><circle cx="20" cy="20" r="11"/><path d="M 12.7 15.2 L 27.3 15.2 L 20 27.8 Z"/><circle cx="20" cy="15.2" r="3.2"/></g>
</svg>
