<svg viewBox="0 0 40 40" xmlns="http://www.w3.org/2000/svg">
  <g fill="none" stroke="#7C8A57" stroke-width="1" stroke-linejoin="round" stroke-linecap="round"><path d="M 17.67 8.53 C 17.04 5.45 19.02 3.79 20.0 2.0 C 20.98 3.79 22.96 5.45 22.33 8.53"/><path d="M 23.71 8.9 C 24.71 5.92 27.26 5.48 29.0 4.41 C 28.95 6.45 29.84 8.88 27.75 11.24"/><path d="M 28.76 12.25 C 31.12 10.16 33.55 11.05 35.59 11.0 C 34.52 12.74 34.08 15.29 31.1 16.29"/><path d="M 31.47 17.67 C 34.55 17.04 36.21 19.02 38.0 20.0 C 36.21 20.98 34.55 22.96 31.47 22.33"/><path d="M 31.1 23.71 C 34.08 24.71 34.52 27.26 35.59 29.0 C 33.55 28.95 31.12 29.84 28.76 27.75"/><path d="M 27.75 28.76 C 29.84 31.12 28.95 33.55 29.0 35.59 C 27.26 34.52 24.71 34.08 23.71 31.1"/><path d="M 22.33 31.47 C 22.96 34.55 20.98 36.21 20.0 38.0 C 19.02 36.21 17.04 34.55 17.67 31.47"/><path d="M 16.29 31.1 C 15.29 34.08 12.74 34.52 11.0 35.59 C 11.05 33.55 10.16 31.12 12.25 28.76"/><path d="M 11.24 27.75 C 8.88 29.84 6.45 28.95 4.41 29.0 C 5.48 27.26 5.92 24.71 8.9 23.71"/><path d="M 8.53 22.33 C 5.45 22.96 3.79 20.98 2.0 20.0 C 3.79 19.02 5.45 17.04 8.53 17.67"/><path d="M 8.9 16.29 C 5.92 15.29 5.48 12.74 4.41 11.0 C 6.45 11.05 8.88 10.16 11.24 12.25"/><path d="M 12.25 11.24 C 10.16 8.88 11.05 6.45 11.0 4.41 C 12.74 5.48 15.29 5.92 16.29 8.9"/><circle cx="20" cy="20" r="11"/><path d="M 20 11.4 L 27.45 24.3 L 12.55 24.3 Z"/><path d="M 20 28.6 L 12.55 15.7 L 27.45 15.7 Z"/></g>
</svg>
