<svg viewBox="0 0 40 40" xmlns="http://www.w3.org/2000/svg">
  <g fill="none" stroke="currentColor" stroke-width="1" stroke-linejoin="round" stroke-linecap="round"><path d="M 18.27 8.43 C 17.82 5.41 19.28 3.92 20.0 2.2 C 20.72 3.92 22.18 5.41 21.73 8.43"/><path d="M 22.83 8.65 C 23.57 5.69 25.49 4.87 26.81 3.55 C 26.81 5.42 27.6 7.36 26.03 9.97"/><path d="M 26.96 10.59 C 28.77 8.14 30.86 8.13 32.59 7.41 C 31.87 9.14 31.86 11.23 29.41 13.04"/><path d="M 30.03 13.97 C 32.64 12.4 34.58 13.19 36.45 13.19 C 35.13 14.51 34.31 16.43 31.35 17.17"/><path d="M 31.57 18.27 C 34.59 17.82 36.08 19.28 37.8 20.0 C 36.08 20.72 34.59 22.18 31.57 21.73"/><path d="M 31.35 22.83 C 34.31 23.57 35.13 25.49 36.45 26.81 C 34.58 26.81 32.64 27.6 30.03 26.03"/><path d="M 29.41 26.96 C 31.86 28.77 31.87 30.86 32.59 32.59 C 30.86 31.87 28.77 31.86 26.96 29.41"/><path d="M 26.03 30.03 C 27.6 32.64 26.81 34.58 26.81 36.45 C 25.49 35.13 23.57 34.31 22.83 31.35"/><path d="M 21.73 31.57 C 22.18 34.59 20.72 36.08 20.0 37.8 C 19.28 36.08 17.82 34.59 18.27 31.57"/><path d="M 17.17 31.35 C 16.43 34.31 14.51 35.13 13.19 36.45 C 13.19 34.58 12.4 32.64 13.97 30.03"/><path d="M 13.04 29.41 C 11.23 31.86 9.14 31.87 7.41 32.59 C 8.13 30.86 8.14 28.77 10.59 26.96"/><path d="M 9.97 26.03 C 7.36 27.6 5.42 26.81 3.55 26.81 C 4.87 25.49 5.69 23.57 8.65 22.83"/><path d="M 8.43 21.73 C 5.41 22.18 3.92 20.72 2.2 20.0 C 3.92 19.28 5.41 17.82 8.43 18.27"/><path d="M 8.65 17.17 C 5.69 16.43 4.87 14.51 3.55 13.19 C 5.42 13.19 7.36 12.4 9.97 13.97"/><path d="M 10.59 13.04 C 8.14 11.23 8.13 9.14 7.41 7.41 C 9.14 8.13 11.23 8.14 13.04 10.59"/><path d="M 13.97 9.97 C 12.4 7.36 13.19 5.42 13.19 3.55 C 14.51 4.87 16.43 5.69 17.17 8.65"/><circle cx="20" cy="20" r="11"/><path d="M 12.7 15 L 27.3 15 L 20 27.5 Z"/><circle cx="20" cy="18.6" r="3.5"/></g>
</svg>
