<svg style="opacity:.25" viewBox="0 0 40 40" xmlns="http://www.w3.org/2000/svg">
  <g fill="none" stroke="#82627E" stroke-width="0.25" stroke-linejoin="round" stroke-linecap="round"><path d="M 20.17 12.3 C 20.21 10.4 21.5 9.67 22.24 8.72 C 22.57 9.89 23.48 11.05 22.79 12.82"/><path d="M 23.1 12.95 C 23.87 11.21 25.34 11.03 26.39 10.44 C 26.24 11.64 26.64 13.07 25.32 14.44"/><path d="M 25.56 14.68 C 26.93 13.36 28.36 13.76 29.56 13.61 C 28.97 14.66 28.79 16.13 27.05 16.9"/><path d="M 27.18 17.21 C 28.95 16.52 30.11 17.43 31.28 17.76 C 30.33 18.5 29.6 19.79 27.7 19.83"/><path d="M 27.7 20.17 C 29.6 20.21 30.33 21.5 31.28 22.24 C 30.11 22.57 28.95 23.48 27.18 22.79"/><path d="M 27.05 23.1 C 28.79 23.87 28.97 25.34 29.56 26.39 C 28.36 26.24 26.93 26.64 25.56 25.32"/><path d="M 25.32 25.56 C 26.64 26.93 26.24 28.36 26.39 29.56 C 25.34 28.97 23.87 28.79 23.1 27.05"/><path d="M 22.79 27.18 C 23.48 28.95 22.57 30.11 22.24 31.28 C 21.5 30.33 20.21 29.6 20.17 27.7"/><path d="M 19.83 27.7 C 19.79 29.6 18.5 30.33 17.76 31.28 C 17.43 30.11 16.52 28.95 17.21 27.18"/><path d="M 16.9 27.05 C 16.13 28.79 14.66 28.97 13.61 29.56 C 13.76 28.36 13.36 26.93 14.68 25.56"/><path d="M 14.44 25.32 C 13.07 26.64 11.64 26.24 10.44 26.39 C 11.03 25.34 11.21 23.87 12.95 23.1"/><path d="M 12.82 22.79 C 11.05 23.48 9.89 22.57 8.72 22.24 C 9.67 21.5 10.4 20.21 12.3 20.17"/><path d="M 12.3 19.83 C 10.4 19.79 9.67 18.5 8.72 17.76 C 9.89 17.43 11.05 16.52 12.82 17.21"/><path d="M 12.95 16.9 C 11.21 16.13 11.03 14.66 10.44 13.61 C 11.64 13.76 13.07 13.36 14.44 14.68"/><path d="M 14.68 14.44 C 13.36 13.07 13.76 11.64 13.61 10.44 C 14.66 11.03 16.13 11.21 16.9 12.95"/><path d="M 17.21 12.82 C 16.52 11.05 17.43 9.89 17.76 8.72 C 18.5 9.67 19.79 10.4 19.83 12.3"/><path d="M 17.88 7.99 C 17.59 6.31 19.23 5.37 20.0 4.4 C 20.77 5.37 22.41 6.31 22.12 7.99"/><path d="M 22.64 8.09 C 23.01 6.43 24.89 6.19 25.97 5.59 C 26.31 6.78 27.47 8.28 26.56 9.71"/><path d="M 27.0 10.01 C 27.97 8.61 29.8 9.11 31.03 8.97 C 30.89 10.2 31.39 12.03 29.99 13.0"/><path d="M 30.29 13.44 C 31.72 12.53 33.22 13.69 34.41 14.03 C 33.81 15.11 33.57 16.99 31.91 17.36"/><path d="M 32.01 17.88 C 33.69 17.59 34.63 19.23 35.6 20.0 C 34.63 20.77 33.69 22.41 32.01 22.12"/><path d="M 31.91 22.64 C 33.57 23.01 33.81 24.89 34.41 25.97 C 33.22 26.31 31.72 27.47 30.29 26.56"/><path d="M 29.99 27.0 C 31.39 27.97 30.89 29.8 31.03 31.03 C 29.8 30.89 27.97 31.39 27.0 29.99"/><path d="M 26.56 30.29 C 27.47 31.72 26.31 33.22 25.97 34.41 C 24.89 33.81 23.01 33.57 22.64 31.91"/><path d="M 22.12 32.01 C 22.41 33.69 20.77 34.63 20.0 35.6 C 19.23 34.63 17.59 33.69 17.88 32.01"/><path d="M 17.36 31.91 C 16.99 33.57 15.11 33.81 14.03 34.41 C 13.69 33.22 12.53 31.72 13.44 30.29"/><path d="M 13.0 29.99 C 12.03 31.39 10.2 30.89 8.97 31.03 C 9.11 29.8 8.61 27.97 10.01 27.0"/><path d="M 9.71 26.56 C 8.28 27.47 6.78 26.31 5.59 25.97 C 6.19 24.89 6.43 23.01 8.09 22.64"/><path d="M 7.99 22.12 C 6.31 22.41 5.37 20.77 4.4 20.0 C 5.37 19.23 6.31 17.59 7.99 17.88"/><path d="M 8.09 17.36 C 6.43 16.99 6.19 15.11 5.59 14.03 C 6.78 13.69 8.28 12.53 9.71 13.44"/><path d="M 10.01 13.0 C 8.61 12.03 9.11 10.2 8.97 8.97 C 10.2 9.11 12.03 8.61 13.0 10.01"/><path d="M 13.44 9.71 C 12.53 8.28 13.69 6.78 14.03 5.59 C 15.11 6.19 16.99 6.43 17.36 8.09"/><path d="M 20.5 3.71 C 20.55 2.16 22.71 1.67 23.78 0.97 C 24.51 2.03 26.32 3.31 25.77 4.76"/><path d="M 26.69 5.14 C 27.33 3.73 29.52 4.1 30.78 3.87 C 31.05 5.12 32.23 7.0 31.17 8.13"/><path d="M 31.87 8.83 C 33.0 7.77 34.88 8.95 36.13 9.22 C 35.9 10.48 36.27 12.67 34.86 13.31"/><path d="M 35.24 14.23 C 36.69 13.68 37.97 15.49 39.03 16.22 C 38.33 17.29 37.84 19.45 36.29 19.5"/><path d="M 36.29 20.5 C 37.84 20.55 38.33 22.71 39.03 23.78 C 37.97 24.51 36.69 26.32 35.24 25.77"/><path d="M 34.86 26.69 C 36.27 27.33 35.9 29.52 36.13 30.78 C 34.88 31.05 33.0 32.23 31.87 31.17"/><path d="M 31.17 31.87 C 32.23 33.0 31.05 34.88 30.78 36.13 C 29.52 35.9 27.33 36.27 26.69 34.86"/><path d="M 25.77 35.24 C 26.32 36.69 24.51 37.97 23.78 39.03 C 22.71 38.33 20.55 37.84 20.5 36.29"/><path d="M 19.5 36.29 C 19.45 37.84 17.29 38.33 16.22 39.03 C 15.49 37.97 13.68 36.69 14.23 35.24"/><path d="M 13.31 34.86 C 12.67 36.27 10.48 35.9 9.22 36.13 C 8.95 34.88 7.77 33.0 8.83 31.87"/><path d="M 8.13 31.17 C 7.0 32.23 5.12 31.05 3.87 30.78 C 4.1 29.52 3.73 27.33 5.14 26.69"/><path d="M 4.76 25.77 C 3.31 26.32 2.03 24.51 0.97 23.78 C 1.67 22.71 2.16 20.55 3.71 20.5"/><path d="M 3.71 19.5 C 2.16 19.45 1.67 17.29 0.97 16.22 C 2.03 15.49 3.31 13.68 4.76 14.23"/><path d="M 5.14 13.31 C 3.73 12.67 4.1 10.48 3.87 9.22 C 5.12 8.95 7.0 7.77 8.13 8.83"/><path d="M 8.83 8.13 C 7.77 7.0 8.95 5.12 9.22 3.87 C 10.48 4.1 12.67 3.73 13.31 5.14"/><path d="M 14.23 4.76 C 13.68 3.31 15.49 2.03 16.22 0.97 C 17.29 1.67 19.45 2.16 19.5 3.71"/><circle cx="20" cy="20" r="7"/><circle cx="20" cy="20" r="1.4"/></g>
</svg>
